<svg xmlns="http://www.w3.org/2000/svg" xmlns:xlink="http://www.w3.org/1999/xlink" width="1080" zoomAndPan="magnify" viewBox="0 0 810 809.999993" height="1080" preserveAspectRatio="xMidYMid meet" version="1.0"><defs><clipPath id="edd478f037"><path d="M 323 171.738281 L 341 171.738281 L 341 189 L 323 189 Z M 323 171.738281 " clip-rule="nonzero"/></clipPath><clipPath id="7c3c628c19"><path d="M 471 171.738281 L 489 171.738281 L 489 189 L 471 189 Z M 471 171.738281 " clip-rule="nonzero"/></clipPath></defs><path fill="#000000" d="M 256.917969 573.371094 C 256.347656 571.394531 257.488281 569.289062 259.507812 568.761719 C 261.484375 568.191406 263.589844 569.332031 264.117188 571.351562 C 265.476562 576.003906 266.792969 580.703125 268.507812 585.488281 C 270.128906 590.011719 271.972656 594.3125 274.300781 598.222656 C 276.671875 602.214844 279.613281 605.859375 282.992188 609.066406 C 286.285156 612.136719 290.015625 614.773438 294.273438 616.925781 C 298.53125 619.074219 303.316406 620.699219 308.320312 621.796875 C 313.546875 622.9375 318.988281 623.464844 324.34375 623.464844 C 329.742188 623.464844 335.054688 622.808594 340.148438 621.578125 C 345.019531 620.390625 349.628906 618.679688 353.886719 616.398438 C 358.011719 614.15625 361.742188 611.390625 364.992188 608.230469 C 368.460938 604.894531 371.402344 601.117188 373.816406 597.078125 C 376.140625 593.214844 377.941406 589.089844 379.304688 583.207031 C 380.707031 577.058594 381.671875 569.023438 382.242188 557.433594 C 383.253906 536.667969 382.992188 504.925781 382.816406 481.699219 L 382.726562 472.566406 C 382.640625 460.800781 382.640625 452.679688 382.859375 446.710938 C 383.078125 440.476562 383.5625 436.480469 384.394531 433.1875 C 385.316406 429.585938 386.675781 426.6875 388.519531 424.40625 C 390.410156 422.035156 392.78125 420.324219 395.542969 419.136719 C 398.265625 417.996094 401.472656 417.292969 404.675781 417.292969 C 407.703125 417.292969 410.820312 417.777344 413.628906 419.003906 C 416.617188 420.277344 419.207031 422.210938 421.398438 424.757812 C 423.550781 427.257812 425.261719 430.289062 426.535156 433.757812 C 427.765625 437.136719 428.554688 440.871094 429.082031 446.796875 C 429.566406 452.328125 429.785156 460.144531 429.960938 471.910156 C 430.09375 479.769531 430.136719 489.558594 430.222656 499.875 C 430.355469 519.546875 430.53125 541.320312 431.015625 556.6875 C 431.363281 568.191406 431.9375 575.917969 432.855469 581.625 C 433.734375 586.980469 435.007812 590.539062 436.851562 593.832031 C 438.738281 597.210938 441.242188 600.371094 444.402344 603.269531 C 447.5625 606.167969 451.339844 608.84375 455.726562 611.261719 C 460.46875 613.851562 465.957031 616.089844 471.839844 617.714844 C 477.148438 619.164062 482.726562 620.085938 488.300781 620.261719 C 494.226562 620.4375 500.195312 619.691406 505.945312 618.019531 C 511.476562 616.441406 516.789062 613.980469 521.707031 610.691406 C 526.710938 607.308594 531.320312 602.960938 535.269531 598 C 539.175781 593.039062 542.425781 587.507812 544.707031 581.714844 C 545.058594 580.835938 545.410156 579.914062 545.71875 578.992188 C 543.828125 583.074219 541.414062 586.980469 538.605469 590.40625 C 535.578125 594.136719 532.019531 597.300781 528.15625 599.582031 C 524.121094 601.910156 519.730469 603.269531 515.121094 603.664062 C 510.46875 604.058594 505.640625 603.488281 500.722656 602.085938 C 495.675781 600.589844 490.539062 598.175781 485.753906 594.445312 C 481.582031 591.195312 477.632812 586.980469 474.121094 581.492188 C 470.476562 575.742188 467.359375 568.671875 464.902344 559.9375 C 462.488281 551.332031 460.6875 541.058594 459.632812 528.851562 C 457.703125 506.109375 458.316406 476.167969 458.757812 456.148438 L 458.84375 452.8125 C 459.0625 442.890625 459.152344 436.039062 459.195312 431.167969 C 459.195312 426.335938 459.195312 423.441406 459.195312 421.464844 C 459.195312 420.015625 459.109375 419.136719 459.0625 418.609375 C 458.449219 417.25 458.710938 415.582031 459.855469 414.441406 C 461.304688 412.992188 463.71875 412.992188 465.164062 414.441406 C 465.691406 414.964844 466.21875 415.492188 466.484375 417.335938 C 466.570312 417.996094 466.660156 419.179688 466.703125 421.289062 C 466.703125 423.265625 466.746094 426.207031 466.703125 431.167969 C 466.703125 436.128906 466.570312 443.019531 466.351562 452.898438 L 466.261719 456.234375 C 465.824219 476.035156 465.210938 505.582031 467.140625 528.195312 C 468.152344 539.960938 469.863281 549.75 472.144531 557.875 C 474.382812 565.90625 477.195312 572.316406 480.441406 577.410156 C 483.425781 582.0625 486.761719 585.707031 490.320312 588.429688 C 494.355469 591.546875 498.617188 593.566406 502.785156 594.796875 C 506.78125 595.980469 510.6875 596.421875 514.417969 596.113281 C 517.929688 595.804688 521.265625 594.796875 524.296875 593.039062 C 527.367188 591.238281 530.222656 588.695312 532.679688 585.664062 C 535.402344 582.285156 537.726562 578.375 539.484375 574.292969 C 542.074219 568.277344 543.433594 561.78125 544.839844 555.152344 C 545.320312 552.824219 545.804688 550.496094 546.332031 548.300781 C 547.429688 543.605469 548.746094 538.863281 550.414062 534.386719 C 552.125 529.773438 554.1875 525.429688 556.734375 521.609375 C 559.238281 517.832031 562.222656 514.585938 565.425781 511.949219 C 568.851562 509.097656 572.496094 506.988281 576.007812 505.714844 C 578.773438 504.707031 581.449219 504.222656 583.644531 504.046875 C 588.253906 503.652344 592.074219 505.453125 592.644531 506.8125 C 593.742188 509.359375 592.863281 510.984375 590.359375 512.039062 C 589.703125 512.34375 588.78125 512.566406 587.59375 512.828125 C 585.796875 513.265625 583.117188 513.925781 580.484375 515.023438 C 577.980469 516.078125 575.390625 517.527344 573.019531 519.414062 C 570.871094 521.125 568.808594 523.1875 567.09375 525.558594 C 565.25 528.105469 563.714844 531.09375 562.441406 534.558594 C 561.125 538.203125 560.117188 542.417969 559.28125 547.425781 C 558.886719 549.882812 558.535156 552.515625 558.140625 555.28125 C 556.910156 564.371094 555.507812 574.644531 551.6875 584.433594 C 549.140625 590.933594 545.496094 597.167969 541.109375 602.699219 C 536.71875 608.230469 531.539062 613.058594 525.875 616.925781 C 520.257812 620.699219 514.242188 623.464844 507.964844 625.265625 C 501.511719 627.109375 494.796875 627.945312 488.082031 627.769531 C 481.847656 627.59375 475.65625 626.582031 469.820312 624.957031 C 463.410156 623.203125 457.351562 620.699219 452.128906 617.847656 C 447.125 615.125 442.867188 612.09375 439.265625 608.757812 C 435.535156 605.289062 432.550781 601.515625 430.265625 597.472656 C 428.027344 593.433594 426.492188 589.222656 425.394531 582.8125 C 424.386719 576.753906 423.816406 568.71875 423.464844 556.90625 C 422.980469 541.628906 422.804688 519.675781 422.671875 499.875 C 422.585938 489.601562 422.542969 479.945312 422.410156 471.953125 C 422.234375 460.625 422.015625 453.03125 421.53125 447.410156 C 421.09375 442.1875 420.433594 439.027344 419.425781 436.304688 C 418.460938 433.667969 417.1875 431.429688 415.648438 429.675781 C 414.199219 428.007812 412.53125 426.734375 410.644531 425.941406 C 408.800781 425.152344 406.695312 424.800781 404.632812 424.84375 C 402.394531 424.84375 400.242188 425.328125 398.355469 426.117188 C 396.6875 426.820312 395.371094 427.785156 394.273438 429.148438 C 393.128906 430.597656 392.207031 432.527344 391.59375 435.074219 C 390.890625 437.929688 390.453125 441.441406 390.277344 447.058594 C 390.058594 452.945312 390.058594 460.976562 390.144531 472.613281 L 390.234375 481.699219 C 390.410156 505.058594 390.671875 537.019531 389.664062 557.828125 C 389.09375 569.902344 388.082031 578.375 386.546875 584.917969 C 384.964844 591.722656 382.859375 596.464844 380.179688 600.988281 C 377.460938 605.554688 374.078125 609.855469 370.171875 613.675781 C 366.398438 617.320312 362.140625 620.523438 357.398438 623.070312 C 352.65625 625.660156 347.390625 627.59375 341.859375 628.910156 C 336.238281 630.269531 330.3125 630.929688 324.34375 630.972656 C 318.375 630.972656 312.402344 630.402344 306.695312 629.171875 C 301.121094 627.945312 295.722656 626.144531 290.851562 623.683594 C 285.976562 621.226562 281.632812 618.152344 277.8125 614.597656 C 273.863281 610.910156 270.480469 606.695312 267.761719 602.128906 C 265.082031 597.648438 263.0625 592.953125 261.308594 588.078125 C 259.683594 583.511719 258.234375 578.507812 256.785156 573.460938 Z M 256.917969 573.371094 " fill-opacity="1" fill-rule="evenodd"/><path fill="#000000" d="M 344.007812 350.953125 C 344.007812 348.890625 345.722656 347.222656 347.785156 347.265625 C 349.847656 347.265625 351.515625 348.980469 351.472656 351.042969 C 351.078125 385.726562 350.636719 420.367188 350.242188 451.054688 C 349.847656 481.746094 349.496094 508.4375 349.144531 527.097656 C 348.792969 545.976562 348.53125 556.777344 348.003906 563.449219 C 347.390625 570.738281 346.511719 573.855469 344.929688 577.101562 C 342.035156 583.207031 336.941406 589.308594 331.851562 595.367188 C 330.53125 596.949219 328.164062 597.167969 326.582031 595.851562 C 325.003906 594.53125 324.78125 592.164062 326.097656 590.582031 C 330.882812 584.832031 335.667969 579.121094 338.171875 573.855469 C 339.3125 571.441406 340.015625 569.023438 340.496094 562.835938 C 341.070312 556.03125 341.332031 545.449219 341.640625 526.921875 C 341.992188 508.21875 342.339844 481.523438 342.738281 450.878906 C 343.132812 420.191406 343.527344 385.550781 343.964844 350.867188 Z M 344.007812 350.953125 " fill-opacity="1" fill-rule="evenodd"/><path fill="#000000" d="M 505.816406 394.902344 C 503.75 394.902344 502.039062 393.234375 502.039062 391.171875 C 502.039062 389.105469 503.707031 387.394531 505.769531 387.394531 C 547.867188 386.738281 589.921875 386.078125 614.855469 384.367188 C 627.058594 383.53125 634.960938 382.433594 640.710938 380.941406 C 646.152344 379.535156 649.664062 377.691406 653.222656 375.320312 C 656.996094 372.820312 660.816406 369.65625 664.414062 366.101562 C 667.796875 362.765625 670.957031 358.988281 673.632812 354.996094 C 676.441406 350.824219 678.769531 346.433594 680.789062 341.953125 C 682.894531 337.34375 684.738281 332.558594 686.628906 327.730469 C 687.375 325.796875 689.566406 324.832031 691.5 325.578125 C 693.429688 326.324219 694.398438 328.519531 693.652344 330.453125 C 691.761719 335.324219 689.832031 340.242188 687.636719 345.070312 C 685.398438 349.988281 682.894531 354.773438 679.867188 359.207031 C 676.882812 363.597656 673.414062 367.726562 669.683594 371.414062 C 665.777344 375.320312 661.5625 378.746094 657.390625 381.554688 C 653.222656 384.367188 649.050781 386.515625 642.597656 388.230469 C 636.410156 389.855469 628.066406 391.039062 615.382812 391.917969 C 590.582031 393.628906 548.21875 394.289062 505.859375 394.945312 L 505.816406 394.945312 Z M 505.816406 394.902344 " fill-opacity="1" fill-rule="evenodd"/><path fill="#000000" d="M 329.039062 378.921875 C 330.269531 377.253906 332.640625 376.945312 334.308594 378.175781 C 335.886719 379.359375 336.285156 381.601562 335.1875 383.269531 C 323.640625 400.566406 312.097656 417.910156 293.835938 427.257812 C 279.570312 434.589844 261.789062 436.699219 246.46875 438.542969 C 242.386719 439.027344 238.480469 439.507812 234.96875 439.992188 C 226.804688 441.222656 220.308594 442.800781 214.953125 444.953125 C 209.816406 447.015625 205.734375 449.652344 202.351562 453.03125 C 199.191406 456.191406 196.558594 459.96875 194.363281 464.09375 C 191.730469 469.054688 189.710938 474.457031 188.21875 479.726562 C 186.859375 484.597656 185.890625 489.25 185.277344 493.597656 C 184.617188 497.945312 184.269531 501.941406 184.003906 505.363281 C 183.917969 506.59375 183.871094 507.382812 183.828125 508.128906 C 183.433594 514.011719 183.171875 518.449219 181.019531 523.847656 C 179.789062 526.964844 177.945312 530.257812 175.75 533.375 C 173.601562 536.40625 171.140625 539.257812 168.550781 541.542969 C 165.875 543.910156 163.152344 545.625 160.386719 547.027344 C 157.710938 548.390625 155.074219 549.398438 152.441406 550.453125 C 150.511719 551.199219 148.316406 550.234375 147.570312 548.300781 C 146.824219 546.371094 147.789062 544.175781 149.71875 543.429688 C 152.179688 542.464844 154.679688 541.496094 157.007812 540.3125 C 159.246094 539.171875 161.484375 537.765625 163.59375 535.921875 C 165.699219 534.035156 167.804688 531.617188 169.648438 529.027344 C 171.539062 526.394531 173.074219 523.585938 174.082031 521.039062 C 175.796875 516.78125 176.015625 512.871094 176.367188 507.648438 L 176.542969 504.835938 C 176.804688 501.238281 177.15625 497.066406 177.859375 492.5 C 178.5625 487.890625 179.527344 482.886719 181.019531 477.660156 C 182.644531 471.996094 184.839844 466.070312 187.78125 460.539062 C 190.324219 455.796875 193.398438 451.363281 197.085938 447.675781 C 201.210938 443.59375 206.085938 440.429688 212.1875 437.972656 C 218.113281 435.601562 225.179688 433.84375 233.914062 432.570312 C 237.601562 432 241.507812 431.5625 245.636719 431.078125 C 260.386719 429.324219 277.417969 427.304688 290.453125 420.628906 C 306.917969 412.15625 317.933594 395.648438 328.953125 379.140625 L 329.085938 378.964844 Z M 329.039062 378.921875 " fill-opacity="1" fill-rule="evenodd"/><path fill="#000000" d="M 330.226562 340.507812 C 332.289062 340.417969 334.042969 342.042969 334.132812 344.105469 C 334.21875 346.167969 332.597656 347.925781 330.53125 348.011719 C 291.421875 349.8125 252.308594 351.613281 226.410156 351.394531 C 213.328125 351.261719 203.625 350.605469 195.855469 349.332031 C 187.824219 348.011719 181.808594 346.039062 176.234375 343.273438 C 170.527344 340.460938 165.304688 336.863281 160.914062 332.601562 C 156.65625 328.433594 153.1875 323.691406 150.773438 318.464844 C 148.359375 313.109375 147.085938 307.316406 147 301.34375 C 146.910156 295.417969 147.921875 289.359375 150.117188 283.476562 C 152.179688 277.898438 155.296875 272.457031 159.027344 267.582031 C 162.933594 262.445312 167.457031 257.921875 172.0625 254.542969 C 176.585938 251.207031 181.152344 248.964844 186.945312 247.121094 C 192.519531 245.324219 199.191406 243.960938 208.148438 242.292969 C 211.835938 241.589844 216.621094 240.757812 221.710938 239.835938 C 237.648438 236.980469 256.523438 233.601562 270.4375 230.132812 C 279.304688 227.9375 286.109375 225.742188 291.550781 223.371094 C 296.863281 221.042969 300.945312 218.585938 304.503906 215.773438 C 308.015625 213.054688 311.042969 209.980469 313.632812 206.6875 C 316.355469 203.21875 318.636719 199.488281 320.480469 195.492188 C 321.929688 192.417969 323.070312 189.34375 324.035156 186.710938 C 326.496094 180.125 328.292969 175.253906 332.902344 176.613281 C 335.316406 177.316406 336.984375 180.695312 338.082031 185.570312 C 339.050781 189.871094 339.882812 195.800781 340.496094 201.902344 C 340.671875 203.527344 340.847656 205.722656 341.070312 207.917969 C 341.902344 216.871094 342.691406 225.828125 345.371094 231.757812 C 346.820312 235.050781 348.96875 237.464844 351.648438 239.441406 C 354.5 241.546875 358.011719 243.128906 362.09375 244.621094 C 366.265625 246.15625 371.007812 247.5625 375.570312 248.878906 C 380.488281 250.328125 385.140625 251.734375 388.609375 253.09375 C 395.894531 255.992188 398.574219 258.890625 401.121094 261.785156 C 402.570312 263.234375 402.570312 265.648438 401.121094 267.097656 C 399.671875 268.546875 397.257812 268.546875 395.808594 267.097656 L 395.632812 266.921875 C 393.65625 264.640625 391.636719 262.402344 385.84375 260.074219 C 382.507812 258.757812 378.117188 257.441406 373.464844 256.078125 C 368.855469 254.71875 363.984375 253.269531 359.550781 251.644531 C 354.851562 249.933594 350.726562 248.042969 347.214844 245.5 C 343.527344 242.820312 340.585938 239.394531 338.566406 234.828125 C 335.40625 227.804688 334.527344 218.234375 333.648438 208.617188 C 333.472656 206.820312 333.296875 205.019531 333.078125 202.691406 C 332.550781 197.6875 331.9375 192.902344 331.191406 189.125 C 331.191406 189.214844 331.148438 189.300781 331.105469 189.34375 C 330.007812 192.242188 328.777344 195.625 327.328125 198.695312 C 325.265625 203.175781 322.675781 207.433594 319.601562 211.339844 C 316.617188 215.117188 313.195312 218.585938 309.199219 221.703125 C 305.160156 224.863281 300.550781 227.671875 294.582031 230.261719 C 288.742188 232.808594 281.585938 235.136719 272.28125 237.464844 C 258.277344 240.933594 239.226562 244.355469 223.074219 247.253906 C 218.464844 248.089844 214.074219 248.878906 209.550781 249.714844 C 200.859375 251.335938 194.453125 252.65625 189.273438 254.324219 C 184.3125 255.902344 180.40625 257.835938 176.542969 260.644531 C 172.503906 263.628906 168.464844 267.625 165.039062 272.148438 C 161.835938 276.40625 159.070312 281.191406 157.226562 286.109375 C 155.382812 291.113281 154.503906 296.25 154.59375 301.257812 C 154.679688 306.171875 155.734375 310.957031 157.710938 315.394531 C 159.683594 319.738281 162.625 323.734375 166.226562 327.246094 C 170.046875 330.933594 174.609375 334.097656 179.613281 336.597656 C 184.53125 339.011719 189.929688 340.769531 197.128906 341.953125 C 204.546875 343.183594 213.898438 343.796875 226.539062 343.929688 C 252.089844 344.195312 291.15625 342.351562 330.269531 340.550781 Z M 330.796875 183.769531 C 329.65625 183.417969 330.136719 184.253906 330.664062 185.527344 C 330.796875 184.429688 331.234375 183.902344 330.796875 183.769531 Z M 330.796875 183.769531 " fill-opacity="1" fill-rule="evenodd"/><path fill="#000000" d="M 161.660156 369.042969 C 163.242188 372.644531 165.039062 376.066406 167.234375 378.921875 C 169.5625 381.996094 172.414062 384.410156 176.101562 385.859375 C 184.882812 389.328125 199.542969 388.316406 213.941406 387.351562 L 214.03125 387.351562 C 216.574219 387.175781 219.121094 387 222.28125 386.824219 C 229.703125 386.386719 236.902344 386.210938 243.835938 386.121094 C 250.726562 386.035156 257.3125 386.121094 263.722656 386.121094 L 270.261719 386.121094 C 284.617188 386.253906 297.917969 386.121094 311.261719 385.945312 L 311.351562 385.945312 C 311.351562 385.945312 311.746094 385.945312 311.746094 385.945312 C 313.457031 385.945312 314.992188 386.648438 316.136719 387.746094 C 317.277344 388.886719 317.933594 390.425781 317.933594 392.136719 C 317.933594 393.847656 317.230469 395.386719 316.136719 396.484375 C 315.039062 397.582031 313.457031 398.285156 311.789062 398.285156 L 309.859375 398.285156 C 303.800781 398.371094 297.699219 398.414062 291.464844 398.457031 C 284.574219 398.503906 277.59375 398.546875 270.261719 398.457031 L 263.722656 398.457031 C 251.210938 398.328125 237.867188 398.238281 223.027344 399.117188 C 221.976562 399.160156 220.613281 399.25 219.121094 399.382812 L 214.863281 399.6875 C 207.136719 400.214844 199.28125 400.742188 191.90625 400.609375 C 184.398438 400.476562 177.464844 399.601562 171.667969 397.316406 C 165.742188 394.945312 161.351562 391.347656 157.886719 386.914062 C 154.769531 382.960938 152.441406 378.4375 150.378906 373.652344 C 148.183594 373.171875 146.253906 372.027344 144.761719 370.40625 C 142.960938 368.472656 141.863281 365.882812 141.863281 363.074219 C 141.863281 360.085938 143.09375 357.363281 145.023438 355.390625 C 147 353.414062 149.722656 352.183594 152.707031 352.183594 C 155.691406 352.183594 158.414062 353.414062 160.386719 355.34375 C 162.363281 357.320312 163.546875 360.042969 163.546875 363.027344 C 163.546875 364.390625 163.285156 365.707031 162.847656 366.890625 C 162.582031 367.636719 162.1875 368.339844 161.75 369 Z M 163.417969 381.863281 C 160.695312 378.308594 158.589844 374.09375 156.699219 369.703125 L 156.085938 368.296875 L 157.09375 367.15625 C 157.578125 366.628906 157.972656 365.96875 158.238281 365.269531 C 158.5 364.609375 158.632812 363.863281 158.632812 363.117188 C 158.632812 361.449219 157.972656 359.910156 156.875 358.859375 C 155.777344 357.761719 154.285156 357.101562 152.617188 357.101562 C 150.949219 357.101562 149.457031 357.761719 148.359375 358.859375 C 147.261719 359.957031 146.605469 361.449219 146.605469 363.117188 C 146.605469 364.785156 147.21875 366.144531 148.183594 367.199219 C 149.195312 368.296875 150.554688 369 152.136719 369.132812 L 153.582031 369.261719 L 154.152344 370.625 C 156.171875 375.453125 158.5 380.105469 161.574219 384.015625 C 164.558594 387.789062 168.289062 390.90625 173.335938 392.925781 C 178.472656 394.992188 184.882812 395.738281 191.863281 395.867188 C 198.929688 396 206.742188 395.472656 214.425781 394.945312 L 218.683594 394.640625 C 219.957031 394.550781 221.273438 394.464844 222.632812 394.375 C 237.472656 393.496094 250.949219 393.628906 263.589844 393.71875 L 270.128906 393.71875 C 277.417969 393.804688 284.398438 393.804688 291.289062 393.71875 C 298.09375 393.671875 304.851562 393.585938 311.613281 393.496094 L 311.789062 393.496094 C 312.097656 393.496094 312.402344 393.320312 312.625 393.101562 C 312.886719 392.839844 313.019531 392.488281 313.019531 392.136719 C 313.019531 391.785156 312.886719 391.433594 312.625 391.171875 C 312.402344 390.953125 312.097656 390.820312 311.789062 390.777344 L 311.613281 390.777344 C 298.179688 390.953125 284.703125 391.082031 270.21875 391.039062 L 263.675781 391.039062 C 257.3125 390.953125 250.726562 390.90625 243.878906 390.953125 C 237.074219 391.039062 230.007812 391.214844 222.546875 391.652344 C 219.78125 391.828125 217.058594 392.003906 214.335938 392.179688 L 214.25 392.179688 C 199.367188 393.234375 184.136719 394.289062 174.347656 390.378906 C 169.78125 388.582031 166.269531 385.59375 163.460938 381.863281 Z M 163.417969 381.863281 " fill-opacity="1" fill-rule="nonzero"/><path fill="#000000" d="M 480.96875 348.011719 C 478.90625 347.925781 477.28125 346.167969 477.371094 344.105469 C 477.457031 342.042969 479.210938 340.417969 481.277344 340.507812 C 520.34375 342.304688 559.457031 344.105469 585.003906 343.886719 C 597.648438 343.753906 606.953125 343.140625 614.417969 341.910156 C 621.617188 340.726562 627.015625 338.96875 631.929688 336.554688 C 636.933594 334.097656 641.5 330.933594 645.320312 327.203125 C 648.917969 323.691406 651.859375 319.695312 653.835938 315.347656 C 655.855469 310.914062 656.910156 306.128906 656.953125 301.210938 C 657.039062 296.207031 656.164062 291.070312 654.320312 286.066406 C 652.476562 281.148438 649.753906 276.363281 646.503906 272.105469 C 643.035156 267.539062 639.042969 263.585938 635.003906 260.601562 C 631.140625 257.746094 627.234375 255.859375 622.273438 254.277344 C 617.09375 252.609375 610.683594 251.292969 601.992188 249.667969 C 597.472656 248.835938 593.082031 248.042969 588.472656 247.210938 C 572.363281 244.3125 553.265625 240.886719 539.265625 237.421875 C 529.957031 235.136719 522.800781 232.765625 516.964844 230.21875 C 510.996094 227.628906 506.386719 224.820312 502.347656 221.660156 C 498.394531 218.542969 494.929688 215.074219 491.941406 211.296875 C 488.871094 207.390625 486.28125 203.132812 484.21875 198.652344 C 482.8125 195.578125 481.539062 192.242188 480.441406 189.300781 C 480.441406 189.214844 480.398438 189.125 480.355469 189.082031 C 479.652344 192.859375 478.992188 197.644531 478.464844 202.648438 C 478.246094 204.976562 478.070312 206.773438 477.894531 208.574219 C 477.019531 218.191406 476.140625 227.761719 472.980469 234.785156 C 470.917969 239.394531 468.019531 242.777344 464.332031 245.453125 C 460.820312 248.042969 456.695312 249.886719 451.996094 251.601562 C 447.605469 253.226562 442.734375 254.628906 438.082031 256.035156 C 433.429688 257.394531 428.996094 258.714844 425.703125 260.03125 C 419.90625 262.3125 417.886719 264.597656 415.914062 266.878906 L 415.738281 267.054688 C 414.289062 268.503906 411.875 268.503906 410.425781 267.054688 C 408.976562 265.605469 408.976562 263.191406 410.425781 261.742188 C 412.972656 258.84375 415.605469 255.902344 422.9375 253.050781 C 426.40625 251.6875 431.058594 250.285156 435.972656 248.835938 C 440.496094 247.519531 445.28125 246.070312 449.449219 244.578125 C 453.53125 243.082031 457.042969 241.503906 459.898438 239.394531 C 462.574219 237.421875 464.683594 235.003906 466.175781 231.710938 C 468.808594 225.785156 469.644531 216.828125 470.476562 207.871094 C 470.695312 205.675781 470.871094 203.480469 471.046875 201.859375 C 471.664062 195.753906 472.496094 189.828125 473.460938 185.527344 C 474.558594 180.652344 476.226562 177.273438 478.640625 176.570312 C 483.207031 175.253906 485.050781 180.125 487.507812 186.667969 C 488.476562 189.300781 489.617188 192.375 491.066406 195.449219 C 492.910156 199.441406 495.191406 203.175781 497.914062 206.644531 C 500.503906 209.9375 503.53125 213.007812 507.042969 215.730469 C 510.644531 218.542969 514.683594 221.042969 519.992188 223.328125 C 525.4375 225.699219 532.195312 227.894531 541.109375 230.089844 C 555.023438 233.554688 573.898438 236.9375 589.832031 239.789062 C 594.925781 240.710938 599.710938 241.546875 603.398438 242.25 C 612.351562 243.917969 618.980469 245.277344 624.601562 247.078125 C 630.394531 248.921875 634.960938 251.160156 639.480469 254.5 C 644.089844 257.878906 648.613281 262.402344 652.519531 267.539062 C 656.207031 272.410156 659.324219 277.855469 661.429688 283.429688 C 663.625 289.3125 664.632812 295.371094 664.546875 301.300781 C 664.414062 307.269531 663.1875 313.066406 660.769531 318.421875 C 658.402344 323.648438 654.933594 328.433594 650.632812 332.558594 C 646.242188 336.816406 641.019531 340.417969 635.3125 343.226562 C 629.734375 345.992188 623.679688 347.96875 615.6875 349.285156 C 607.917969 350.558594 598.21875 351.21875 585.136719 351.351562 C 559.28125 351.613281 520.167969 349.8125 481.011719 347.96875 Z M 480.882812 185.527344 C 481.40625 184.253906 481.847656 183.460938 480.75 183.769531 C 480.308594 183.902344 480.75 184.429688 480.882812 185.527344 Z M 480.882812 185.527344 " fill-opacity="1" fill-rule="evenodd"/><path fill="#000000" d="M 351.910156 210.507812 C 350.023438 211.210938 347.871094 210.289062 347.125 208.355469 C 346.335938 206.425781 347.300781 204.230469 349.234375 203.480469 L 349.320312 203.480469 C 365.035156 197.597656 380.75 191.804688 397.914062 190.3125 C 405.113281 189.695312 412.488281 189.828125 419.425781 190.398438 C 428.90625 191.144531 437.464844 192.683594 443.347656 193.957031 C 448.527344 195.097656 451.6875 196.0625 453.882812 196.941406 C 456.253906 197.90625 457.441406 198.742188 458.625 199.617188 C 460.292969 200.804688 460.6875 203.175781 459.503906 204.84375 C 458.316406 206.511719 455.949219 206.90625 454.277344 205.722656 C 453.445312 205.152344 452.65625 204.535156 451.03125 203.921875 C 449.230469 203.175781 446.464844 202.339844 441.726562 201.332031 C 436.105469 200.101562 427.898438 198.652344 418.808594 197.90625 C 412.269531 197.378906 405.289062 197.203125 398.53125 197.820312 C 382.417969 199.222656 367.144531 204.84375 351.910156 210.507812 Z M 351.910156 210.507812 " fill-opacity="1" fill-rule="evenodd"/><path fill="#000000" d="M 361.480469 339.101562 C 363.191406 338.265625 365.253906 338.3125 367.097656 338.574219 C 369.382812 338.925781 371.664062 339.671875 373.816406 340.507812 C 376.757812 341.648438 379.566406 343.097656 382.332031 344.546875 C 382.945312 344.894531 383.605469 345.203125 384.21875 345.511719 C 385.183594 345.992188 386.105469 346.476562 387.074219 346.914062 C 388.347656 347.53125 389.707031 348.144531 390.847656 348.933594 C 391.8125 349.550781 392.648438 350.296875 393.21875 351.304688 C 393.789062 352.316406 394.007812 353.414062 394.050781 354.597656 C 394.097656 355.695312 394.050781 356.839844 393.964844 357.9375 C 393.875 359.078125 393.703125 360.261719 393.480469 361.402344 C 393.304688 362.324219 393 363.335938 392.515625 364.125 C 391.726562 365.441406 390.453125 366.191406 388.871094 366.015625 C 387.996094 365.925781 387.378906 365.574219 386.632812 365.09375 C 386.371094 364.917969 386.0625 364.742188 385.800781 364.609375 C 385.230469 364.390625 384.21875 364.34375 383.605469 364.257812 C 382.507812 364.125 381.410156 363.996094 380.3125 363.863281 C 378.335938 363.554688 376.363281 363.160156 374.429688 362.632812 C 372.191406 362.019531 369.910156 361.140625 367.890625 359.910156 C 366.003906 358.769531 364.289062 357.320312 362.839844 355.652344 C 361.394531 353.941406 360.164062 352.007812 359.328125 349.945312 C 358.582031 348.144531 358.011719 345.992188 358.1875 344.019531 C 358.363281 341.867188 359.375 340.023438 361.347656 339.058594 Z M 364.246094 344.371094 C 364.246094 344.371094 364.246094 344.5 364.246094 344.546875 C 364.160156 345.511719 364.597656 346.828125 364.949219 347.75 C 365.5625 349.242188 366.441406 350.648438 367.496094 351.878906 C 368.503906 353.0625 369.734375 354.117188 371.050781 354.90625 C 372.585938 355.828125 374.386719 356.488281 376.140625 356.96875 C 377.808594 357.453125 379.566406 357.804688 381.277344 358.023438 C 382.289062 358.15625 383.296875 358.285156 384.308594 358.417969 C 385.449219 358.550781 386.632812 358.636719 387.730469 359.035156 C 387.773438 359.035156 387.820312 359.035156 387.863281 359.078125 C 387.949219 358.550781 387.996094 357.980469 388.039062 357.453125 C 388.125 356.617188 388.171875 355.742188 388.125 354.949219 C 388.125 354.773438 388.125 354.378906 388.039062 354.246094 C 387.949219 354.160156 387.730469 354.027344 387.597656 353.941406 C 386.632812 353.324219 385.449219 352.800781 384.4375 352.273438 C 383.429688 351.789062 382.464844 351.304688 381.453125 350.78125 C 380.796875 350.429688 380.136719 350.121094 379.523438 349.769531 C 376.933594 348.410156 374.34375 347.046875 371.578125 345.992188 C 369.863281 345.335938 367.933594 344.675781 366.132812 344.414062 C 365.78125 344.371094 364.730469 344.238281 364.203125 344.324219 Z M 364.246094 344.371094 " fill-opacity="1" fill-rule="evenodd"/><path fill="#000000" d="M 316.441406 444.46875 C 319.425781 444.46875 322.148438 445.699219 324.125 447.632812 C 326.097656 449.605469 327.285156 452.328125 327.285156 455.3125 C 327.285156 458.300781 326.054688 461.023438 324.125 462.996094 C 322.148438 464.972656 319.472656 466.160156 316.441406 466.160156 C 315.300781 466.160156 314.203125 465.984375 313.105469 465.632812 C 312.535156 465.457031 311.964844 465.191406 311.4375 464.929688 C 305.554688 468.003906 299.671875 470.898438 293.703125 473.359375 C 287.292969 475.992188 280.839844 478.011719 274.34375 479.023438 C 270.4375 479.636719 266.617188 479.855469 262.800781 479.8125 C 258.980469 479.8125 255.207031 479.460938 251.472656 478.933594 C 249.015625 478.628906 246.644531 478.230469 244.320312 477.792969 C 242.300781 477.441406 240.457031 477.046875 238.613281 476.652344 C 237.824219 477.398438 236.902344 478.011719 235.890625 478.496094 C 234.484375 479.152344 232.90625 479.550781 231.238281 479.550781 C 228.253906 479.550781 225.53125 478.320312 223.554688 476.386719 C 221.582031 474.414062 220.394531 471.691406 220.394531 468.703125 C 220.394531 465.71875 221.625 462.996094 223.554688 461.023438 C 225.53125 459.046875 228.253906 457.816406 231.238281 457.816406 C 233.785156 457.816406 236.109375 458.695312 237.953125 460.144531 C 239.445312 461.328125 240.585938 462.867188 241.289062 464.621094 C 243.132812 465.015625 244.890625 465.367188 246.558594 465.675781 C 248.753906 466.070312 250.902344 466.464844 253.011719 466.730469 C 256.304688 467.167969 259.550781 467.429688 262.800781 467.476562 C 266.003906 467.476562 269.253906 467.34375 272.457031 466.816406 C 277.945312 465.9375 283.605469 464.140625 289.3125 461.769531 C 294.667969 459.574219 300.15625 456.851562 305.644531 453.996094 C 305.949219 451.496094 307.046875 449.253906 308.761719 447.585938 C 310.734375 445.613281 313.457031 444.382812 316.441406 444.382812 Z M 320.699219 451.054688 C 319.601562 449.957031 318.109375 449.300781 316.441406 449.300781 C 314.773438 449.300781 313.28125 449.957031 312.183594 451.054688 C 311.085938 452.152344 310.429688 453.644531 310.429688 455.3125 C 310.429688 455.886719 310.429688 456.410156 310.429688 456.984375 L 309.109375 457.683594 C 303.097656 460.847656 297.128906 463.832031 291.113281 466.289062 C 285.054688 468.792969 279.085938 470.679688 273.160156 471.601562 C 269.691406 472.128906 266.179688 472.347656 262.710938 472.304688 C 259.242188 472.304688 255.820312 471.953125 252.394531 471.515625 C 250.113281 471.207031 247.875 470.855469 245.679688 470.417969 C 243.308594 469.976562 241.070312 469.496094 238.917969 469.054688 L 237.472656 468.75 L 237.121094 467.257812 C 236.8125 465.9375 236.023438 464.753906 234.96875 463.917969 C 233.960938 463.128906 232.640625 462.644531 231.238281 462.644531 C 229.570312 462.644531 228.078125 463.304688 226.980469 464.402344 C 225.882812 465.5 225.222656 466.992188 225.222656 468.660156 C 225.222656 470.328125 225.882812 471.820312 226.980469 472.917969 C 228.078125 474.015625 229.570312 474.675781 231.238281 474.675781 C 232.160156 474.675781 233.039062 474.457031 233.828125 474.105469 C 234.617188 473.710938 235.363281 473.140625 235.933594 472.480469 L 236.855469 471.339844 L 238.304688 471.644531 C 240.675781 472.171875 243.003906 472.65625 245.152344 473.050781 C 247.480469 473.492188 249.761719 473.886719 252.046875 474.148438 C 255.644531 474.632812 259.199219 474.9375 262.800781 474.984375 C 266.355469 474.984375 269.953125 474.808594 273.597656 474.238281 C 279.699219 473.269531 285.800781 471.339844 291.859375 468.878906 C 297.960938 466.378906 304.195312 463.261719 310.382812 460.011719 L 311.703125 459.308594 L 312.886719 460.1875 C 313.371094 460.539062 313.941406 460.847656 314.554688 461.023438 C 315.125 461.199219 315.738281 461.285156 316.398438 461.285156 C 318.066406 461.285156 319.601562 460.625 320.65625 459.527344 C 321.753906 458.429688 322.414062 456.9375 322.414062 455.269531 C 322.414062 453.601562 321.753906 452.066406 320.65625 451.011719 Z M 320.699219 451.054688 " fill-opacity="1" fill-rule="nonzero"/><path fill="#000000" d="M 159.554688 546.898438 C 159.554688 547.449219 159.5 548 159.390625 548.542969 C 159.285156 549.085938 159.125 549.613281 158.910156 550.125 C 158.699219 550.632812 158.441406 551.121094 158.132812 551.582031 C 157.824219 552.039062 157.476562 552.464844 157.085938 552.859375 C 156.695312 553.25 156.269531 553.597656 155.808594 553.90625 C 155.347656 554.214844 154.863281 554.472656 154.351562 554.683594 C 153.839844 554.898438 153.3125 555.058594 152.769531 555.164062 C 152.226562 555.273438 151.679688 555.328125 151.125 555.328125 C 150.570312 555.328125 150.023438 555.273438 149.480469 555.164062 C 148.9375 555.058594 148.410156 554.898438 147.898438 554.683594 C 147.390625 554.472656 146.902344 554.214844 146.441406 553.90625 C 145.984375 553.597656 145.558594 553.25 145.164062 552.859375 C 144.773438 552.464844 144.425781 552.039062 144.117188 551.582031 C 143.808594 551.121094 143.550781 550.632812 143.339844 550.125 C 143.125 549.613281 142.96875 549.085938 142.859375 548.542969 C 142.75 548 142.695312 547.449219 142.695312 546.898438 C 142.695312 546.34375 142.75 545.796875 142.859375 545.253906 C 142.96875 544.710938 143.125 544.183594 143.339844 543.671875 C 143.550781 543.160156 143.808594 542.675781 144.117188 542.214844 C 144.425781 541.753906 144.773438 541.328125 145.164062 540.9375 C 145.558594 540.546875 145.984375 540.195312 146.441406 539.886719 C 146.902344 539.582031 147.390625 539.320312 147.898438 539.109375 C 148.410156 538.898438 148.9375 538.738281 149.480469 538.628906 C 150.023438 538.523438 150.570312 538.46875 151.125 538.46875 C 151.679688 538.46875 152.226562 538.523438 152.769531 538.628906 C 153.3125 538.738281 153.839844 538.898438 154.351562 539.109375 C 154.863281 539.320312 155.347656 539.582031 155.808594 539.886719 C 156.269531 540.195312 156.695312 540.546875 157.085938 540.9375 C 157.476562 541.328125 157.824219 541.753906 158.132812 542.214844 C 158.441406 542.675781 158.699219 543.160156 158.910156 543.671875 C 159.125 544.183594 159.285156 544.710938 159.390625 545.253906 C 159.5 545.796875 159.554688 546.34375 159.554688 546.898438 Z M 159.554688 546.898438 " fill-opacity="1" fill-rule="nonzero"/><path fill="#000000" d="M 268.945312 572.316406 C 268.945312 572.871094 268.890625 573.417969 268.785156 573.960938 C 268.675781 574.503906 268.515625 575.03125 268.304688 575.542969 C 268.09375 576.054688 267.832031 576.539062 267.523438 577 C 267.21875 577.460938 266.867188 577.886719 266.476562 578.277344 C 266.085938 578.667969 265.660156 579.019531 265.199219 579.328125 C 264.738281 579.632812 264.253906 579.894531 263.742188 580.105469 C 263.230469 580.316406 262.703125 580.476562 262.160156 580.585938 C 261.617188 580.691406 261.070312 580.746094 260.515625 580.746094 C 259.964844 580.746094 259.414062 580.691406 258.871094 580.585938 C 258.332031 580.476562 257.804688 580.316406 257.292969 580.105469 C 256.78125 579.894531 256.292969 579.632812 255.835938 579.328125 C 255.375 579.019531 254.949219 578.667969 254.558594 578.277344 C 254.167969 577.886719 253.816406 577.460938 253.507812 577 C 253.203125 576.539062 252.941406 576.054688 252.730469 575.542969 C 252.519531 575.03125 252.359375 574.503906 252.25 573.960938 C 252.144531 573.417969 252.089844 572.871094 252.089844 572.316406 C 252.089844 571.765625 252.144531 571.214844 252.25 570.671875 C 252.359375 570.128906 252.519531 569.601562 252.730469 569.089844 C 252.941406 568.582031 253.203125 568.09375 253.507812 567.632812 C 253.816406 567.175781 254.167969 566.75 254.558594 566.355469 C 254.949219 565.964844 255.375 565.617188 255.835938 565.308594 C 256.292969 565 256.78125 564.742188 257.292969 564.53125 C 257.804688 564.316406 258.332031 564.15625 258.871094 564.050781 C 259.414062 563.941406 259.964844 563.886719 260.515625 563.886719 C 261.070312 563.886719 261.617188 563.941406 262.160156 564.050781 C 262.703125 564.15625 263.230469 564.316406 263.742188 564.53125 C 264.253906 564.742188 264.738281 565 265.199219 565.308594 C 265.660156 565.617188 266.085938 565.964844 266.476562 566.355469 C 266.867188 566.75 267.21875 567.175781 267.523438 567.632812 C 267.832031 568.09375 268.09375 568.582031 268.304688 569.089844 C 268.515625 569.601562 268.675781 570.128906 268.785156 570.671875 C 268.890625 571.214844 268.945312 571.765625 268.945312 572.316406 Z M 268.945312 572.316406 " fill-opacity="1" fill-rule="nonzero"/><path fill="#000000" d="M 340.496094 381.203125 C 340.496094 381.757812 340.445312 382.304688 340.335938 382.847656 C 340.226562 383.390625 340.066406 383.917969 339.855469 384.429688 C 339.644531 384.941406 339.386719 385.425781 339.078125 385.886719 C 338.769531 386.347656 338.421875 386.773438 338.027344 387.164062 C 337.636719 387.554688 337.210938 387.90625 336.753906 388.214844 C 336.292969 388.519531 335.804688 388.78125 335.292969 388.992188 C 334.785156 389.203125 334.257812 389.363281 333.714844 389.472656 C 333.171875 389.582031 332.621094 389.632812 332.070312 389.632812 C 331.515625 389.632812 330.96875 389.582031 330.425781 389.472656 C 329.882812 389.363281 329.355469 389.203125 328.84375 388.992188 C 328.332031 388.78125 327.847656 388.519531 327.386719 388.214844 C 326.925781 387.90625 326.5 387.554688 326.109375 387.164062 C 325.71875 386.773438 325.371094 386.347656 325.0625 385.886719 C 324.753906 385.425781 324.496094 384.941406 324.28125 384.429688 C 324.070312 383.917969 323.910156 383.390625 323.804688 382.847656 C 323.695312 382.304688 323.640625 381.757812 323.640625 381.203125 C 323.640625 380.652344 323.695312 380.101562 323.804688 379.558594 C 323.910156 379.015625 324.070312 378.488281 324.28125 377.980469 C 324.496094 377.46875 324.753906 376.980469 325.0625 376.523438 C 325.371094 376.0625 325.71875 375.636719 326.109375 375.242188 C 326.5 374.851562 326.925781 374.503906 327.386719 374.195312 C 327.847656 373.886719 328.332031 373.628906 328.84375 373.417969 C 329.355469 373.203125 329.882812 373.046875 330.425781 372.9375 C 330.96875 372.828125 331.515625 372.773438 332.070312 372.773438 C 332.621094 372.773438 333.171875 372.828125 333.714844 372.9375 C 334.257812 373.046875 334.785156 373.203125 335.292969 373.417969 C 335.804688 373.628906 336.292969 373.886719 336.753906 374.195312 C 337.210938 374.503906 337.636719 374.851562 338.027344 375.242188 C 338.421875 375.636719 338.769531 376.0625 339.078125 376.519531 C 339.386719 376.980469 339.644531 377.46875 339.855469 377.980469 C 340.066406 378.488281 340.226562 379.015625 340.335938 379.558594 C 340.445312 380.101562 340.496094 380.652344 340.496094 381.203125 Z M 340.496094 381.203125 " fill-opacity="1" fill-rule="nonzero"/><path fill="#000000" d="M 337.425781 593.039062 C 337.425781 593.59375 337.371094 594.140625 337.261719 594.683594 C 337.15625 595.226562 336.996094 595.753906 336.785156 596.265625 C 336.570312 596.777344 336.3125 597.261719 336.003906 597.722656 C 335.695312 598.183594 335.347656 598.609375 334.957031 599 C 334.566406 599.390625 334.140625 599.742188 333.679688 600.050781 C 333.21875 600.355469 332.734375 600.617188 332.222656 600.828125 C 331.710938 601.039062 331.183594 601.199219 330.640625 601.308594 C 330.097656 601.414062 329.550781 601.46875 328.996094 601.46875 C 328.445312 601.46875 327.894531 601.414062 327.351562 601.308594 C 326.808594 601.199219 326.28125 601.039062 325.769531 600.828125 C 325.261719 600.617188 324.773438 600.355469 324.3125 600.050781 C 323.855469 599.742188 323.429688 599.390625 323.035156 599 C 322.644531 598.609375 322.296875 598.183594 321.988281 597.722656 C 321.679688 597.261719 321.421875 596.777344 321.210938 596.265625 C 321 595.753906 320.839844 595.226562 320.730469 594.683594 C 320.621094 594.140625 320.570312 593.59375 320.570312 593.039062 C 320.570312 592.488281 320.621094 591.9375 320.730469 591.394531 C 320.839844 590.851562 321 590.324219 321.210938 589.8125 C 321.421875 589.304688 321.679688 588.816406 321.988281 588.355469 C 322.296875 587.898438 322.644531 587.472656 323.035156 587.078125 C 323.429688 586.6875 323.855469 586.339844 324.3125 586.03125 C 324.773438 585.722656 325.261719 585.464844 325.769531 585.253906 C 326.28125 585.039062 326.808594 584.878906 327.351562 584.773438 C 327.894531 584.664062 328.445312 584.609375 328.996094 584.609375 C 329.550781 584.609375 330.097656 584.664062 330.640625 584.773438 C 331.183594 584.878906 331.710938 585.039062 332.222656 585.253906 C 332.734375 585.464844 333.21875 585.722656 333.679688 586.03125 C 334.140625 586.339844 334.566406 586.6875 334.957031 587.078125 C 335.347656 587.472656 335.695312 587.898438 336.003906 588.355469 C 336.3125 588.816406 336.570312 589.304688 336.785156 589.8125 C 336.996094 590.324219 337.15625 590.851562 337.261719 591.394531 C 337.371094 591.9375 337.425781 592.488281 337.425781 593.039062 Z M 337.425781 593.039062 " fill-opacity="1" fill-rule="nonzero"/><path fill="#000000" d="M 471.003906 417.03125 C 471.003906 417.582031 470.949219 418.132812 470.84375 418.675781 C 470.734375 419.21875 470.574219 419.746094 470.363281 420.257812 C 470.152344 420.765625 469.890625 421.253906 469.582031 421.714844 C 469.277344 422.171875 468.925781 422.597656 468.535156 422.992188 C 468.144531 423.382812 467.71875 423.730469 467.257812 424.039062 C 466.796875 424.347656 466.3125 424.605469 465.800781 424.816406 C 465.289062 425.03125 464.761719 425.191406 464.21875 425.296875 C 463.675781 425.40625 463.128906 425.460938 462.574219 425.460938 C 462.023438 425.460938 461.472656 425.40625 460.929688 425.296875 C 460.390625 425.191406 459.863281 425.03125 459.351562 424.816406 C 458.839844 424.605469 458.351562 424.347656 457.894531 424.039062 C 457.433594 423.730469 457.007812 423.382812 456.617188 422.992188 C 456.226562 422.597656 455.875 422.171875 455.566406 421.714844 C 455.261719 421.253906 455 420.765625 454.789062 420.257812 C 454.578125 419.746094 454.417969 419.21875 454.308594 418.675781 C 454.203125 418.132812 454.148438 417.582031 454.148438 417.03125 C 454.148438 416.476562 454.203125 415.929688 454.308594 415.386719 C 454.417969 414.84375 454.578125 414.316406 454.789062 413.804688 C 455 413.292969 455.261719 412.808594 455.566406 412.347656 C 455.875 411.886719 456.226562 411.460938 456.617188 411.070312 C 457.007812 410.679688 457.433594 410.328125 457.894531 410.019531 C 458.351562 409.714844 458.839844 409.453125 459.351562 409.242188 C 459.863281 409.03125 460.390625 408.871094 460.929688 408.761719 C 461.472656 408.65625 462.023438 408.601562 462.574219 408.601562 C 463.128906 408.601562 463.675781 408.65625 464.21875 408.761719 C 464.761719 408.871094 465.289062 409.03125 465.800781 409.242188 C 466.3125 409.453125 466.796875 409.714844 467.257812 410.019531 C 467.71875 410.328125 468.144531 410.679688 468.535156 411.070312 C 468.925781 411.460938 469.277344 411.886719 469.582031 412.347656 C 469.890625 412.808594 470.152344 413.292969 470.363281 413.804688 C 470.574219 414.316406 470.734375 414.84375 470.84375 415.386719 C 470.949219 415.929688 471.003906 416.476562 471.003906 417.03125 Z M 471.003906 417.03125 " fill-opacity="1" fill-rule="nonzero"/><path fill="#000000" d="M 546.417969 457.730469 C 548.394531 457.730469 550.28125 458.253906 551.863281 459.222656 C 553.09375 459.925781 554.144531 460.847656 554.980469 461.988281 C 560.992188 461.679688 566.964844 461.460938 572.671875 461.460938 C 578.773438 461.460938 584.523438 461.679688 589.65625 462.339844 C 592.90625 462.734375 595.847656 463.304688 598.527344 464.050781 C 601.246094 464.796875 603.835938 465.71875 606.207031 466.816406 C 608.664062 467.957031 610.90625 469.230469 612.96875 470.679688 C 615.074219 472.171875 617.007812 473.796875 618.761719 475.554688 C 620.386719 477.179688 621.921875 478.976562 623.414062 480.910156 C 623.679688 481.261719 623.941406 481.613281 624.207031 482.007812 C 623.589844 479.945312 622.886719 477.96875 622.140625 476.125 C 621.175781 473.753906 620.121094 471.558594 618.980469 469.453125 C 617.796875 467.34375 616.609375 465.410156 615.339844 463.613281 C 614.066406 461.8125 612.703125 460.101562 611.253906 458.429688 C 609.851562 456.851562 608.402344 455.3125 606.820312 453.867188 C 605.285156 452.460938 603.617188 451.097656 601.816406 449.828125 C 600.019531 448.554688 598.042969 447.367188 595.847656 446.269531 C 593.609375 445.128906 591.238281 444.074219 588.5625 443.152344 C 584.171875 441.574219 579.035156 440.125 573.636719 438.804688 C 568.28125 437.488281 562.441406 436.261719 556.777344 435.074219 C 554.363281 434.546875 551.996094 434.066406 547.648438 433.097656 C 544.179688 432.308594 540.84375 431.5625 537.597656 430.726562 C 534.347656 429.894531 531.230469 429.015625 528.246094 428.050781 C 525.085938 427.039062 522.144531 425.988281 519.289062 424.84375 C 516.394531 423.660156 513.585938 422.34375 510.773438 420.894531 C 508.054688 419.445312 505.375 417.863281 502.828125 416.195312 C 500.195312 414.484375 497.648438 412.640625 495.234375 410.664062 C 492.777344 408.730469 490.449219 406.667969 488.253906 404.515625 C 486.105469 402.410156 484.085938 400.257812 482.242188 398.0625 C 480.398438 395.867188 478.816406 393.671875 477.414062 391.566406 C 476.007812 389.414062 474.777344 387.261719 473.683594 385.15625 C 472.628906 383.136719 471.707031 381.027344 470.871094 378.878906 C 470.039062 376.8125 469.335938 374.75 468.675781 372.730469 C 468.019531 370.710938 467.492188 368.78125 466.964844 366.890625 C 466.484375 365.046875 466.042969 363.160156 465.605469 361.226562 C 464.769531 357.453125 464.113281 353.898438 463.453125 350.382812 C 463.148438 348.671875 463.542969 347.046875 464.464844 345.730469 C 465.339844 344.414062 466.746094 343.492188 468.414062 343.183594 C 470.082031 342.875 471.707031 343.273438 473.023438 344.148438 C 474.339844 345.027344 475.261719 346.433594 475.570312 348.101562 C 475.875 349.636719 476.140625 351.21875 476.578125 353.371094 C 476.929688 355.214844 477.28125 356.96875 477.632812 358.507812 C 477.984375 360.21875 478.421875 361.929688 478.863281 363.6875 C 479.34375 365.441406 479.828125 367.199219 480.398438 368.910156 C 480.925781 370.625 481.539062 372.335938 482.242188 374.136719 C 482.898438 375.847656 483.691406 377.605469 484.65625 379.449219 C 485.578125 381.25 486.585938 383.046875 487.730469 384.804688 C 488.914062 386.605469 490.1875 388.359375 491.636719 390.117188 C 493.128906 391.917969 494.839844 393.761719 496.773438 395.605469 C 498.660156 397.40625 500.679688 399.207031 502.875 400.917969 C 505.023438 402.628906 507.261719 404.253906 509.546875 405.789062 C 511.785156 407.238281 514.109375 408.644531 516.480469 409.875 C 518.984375 411.191406 521.441406 412.332031 523.945312 413.386719 C 526.488281 414.441406 529.125 415.363281 531.890625 416.238281 C 534.699219 417.117188 537.597656 417.953125 540.625 418.742188 C 543.652344 419.53125 546.859375 420.277344 550.238281 421.023438 L 554.234375 421.859375 L 559.324219 422.957031 C 565.03125 424.140625 570.871094 425.414062 576.707031 426.820312 C 582.460938 428.226562 587.945312 429.761719 592.773438 431.519531 C 596.023438 432.703125 598.921875 433.933594 601.554688 435.292969 C 604.230469 436.65625 606.644531 438.105469 608.886719 439.683594 C 611.125 441.222656 613.1875 442.890625 615.117188 444.6875 C 617.007812 446.445312 618.804688 448.289062 620.5625 450.265625 C 622.273438 452.242188 623.898438 454.261719 625.433594 456.457031 C 627.015625 458.652344 628.464844 460.976562 629.824219 463.4375 C 631.183594 465.894531 632.457031 468.527344 633.597656 471.382812 C 634.742188 474.191406 635.75 477.179688 636.628906 480.425781 C 637.59375 483.894531 638.382812 487.539062 639.042969 491.226562 C 639.699219 494.828125 640.316406 498.601562 640.929688 502.246094 C 641.414062 505.144531 641.851562 507.953125 642.289062 510.457031 C 642.730469 513.003906 643.257812 515.417969 643.828125 517.65625 C 644.398438 519.898438 645.011719 521.828125 645.671875 523.539062 C 646.328125 525.207031 647.03125 526.613281 647.777344 527.886719 C 648.480469 529.074219 649.226562 530.082031 649.972656 531.003906 C 650.71875 531.925781 651.507812 532.714844 652.34375 533.417969 C 654.144531 535.042969 656.074219 536.359375 657.433594 537.328125 C 659.015625 538.425781 660.289062 539.300781 661.210938 540.488281 C 662.351562 541.890625 662.789062 543.472656 662.351562 545.582031 C 662.351562 545.582031 662.265625 545.929688 662.265625 545.929688 C 662.175781 546.28125 662.042969 546.589844 661.914062 546.941406 C 661.386719 548.125 659.894531 549.621094 658.707031 550.144531 C 657.699219 550.628906 656.511719 550.847656 655.285156 550.761719 C 654.84375 550.761719 654.363281 550.71875 653.878906 550.628906 C 653.398438 550.542969 652.914062 550.453125 652.429688 550.320312 C 651.15625 550.015625 649.535156 549.445312 647.820312 548.652344 C 646.375 547.996094 644.835938 547.160156 643.300781 546.152344 C 641.765625 545.140625 640.183594 543.910156 638.691406 542.550781 C 637.242188 541.234375 635.839844 539.742188 634.476562 538.117188 C 633.203125 536.578125 632.019531 534.910156 630.964844 533.199219 C 629.957031 531.53125 629.035156 529.773438 628.289062 527.976562 C 627.410156 525.910156 626.75 523.761719 626.179688 521.519531 C 625.609375 519.324219 625.171875 517.128906 624.6875 514.890625 C 624.378906 513.355469 624.03125 511.730469 623.589844 509.886719 C 623.195312 508.175781 622.757812 506.507812 622.230469 504.882812 C 621.613281 502.949219 620.867188 500.972656 619.945312 499 C 619.070312 497.066406 618.101562 495.179688 617.050781 493.378906 C 616.039062 491.667969 614.941406 490 613.714844 488.417969 C 612.574219 486.925781 611.386719 485.519531 610.070312 484.203125 C 608.753906 482.886719 607.347656 481.699219 605.898438 480.648438 C 604.40625 479.59375 602.828125 478.671875 601.117188 477.878906 C 599.359375 477.046875 597.382812 476.386719 595.234375 475.773438 C 593.039062 475.203125 590.667969 474.71875 588.121094 474.414062 C 583.554688 473.839844 578.246094 473.621094 572.539062 473.664062 C 567.226562 473.664062 561.519531 473.886719 555.636719 474.191406 C 554.804688 475.554688 553.664062 476.695312 552.34375 477.574219 C 550.632812 478.714844 548.570312 479.375 546.417969 479.375 C 543.433594 479.375 540.710938 478.144531 538.738281 476.210938 C 536.761719 474.238281 535.578125 471.515625 535.578125 468.527344 C 535.578125 465.542969 536.804688 462.820312 538.738281 460.847656 C 540.710938 458.871094 543.390625 457.640625 546.417969 457.640625 Z M 549.449219 463.347656 C 548.570312 462.820312 547.515625 462.515625 546.417969 462.515625 C 544.75 462.515625 543.214844 463.171875 542.160156 464.269531 C 541.109375 465.367188 540.40625 466.859375 540.40625 468.527344 C 540.40625 470.199219 541.0625 471.691406 542.160156 472.789062 C 543.257812 473.886719 544.75 474.542969 546.417969 474.542969 C 547.648438 474.542969 548.789062 474.191406 549.710938 473.578125 C 550.675781 472.917969 551.46875 472.042969 551.949219 470.945312 L 552.566406 469.582031 L 554.058594 469.496094 C 560.378906 469.1875 566.613281 468.925781 572.539062 468.925781 C 578.421875 468.925781 583.90625 469.101562 588.738281 469.714844 C 591.589844 470.066406 594.136719 470.550781 596.507812 471.207031 C 598.875 471.867188 601.070312 472.613281 603.132812 473.578125 C 605.152344 474.5 606.996094 475.554688 608.664062 476.78125 C 610.378906 478.011719 612 479.375 613.496094 480.867188 C 614.898438 482.269531 616.261719 483.851562 617.578125 485.5625 C 618.894531 487.277344 620.078125 489.121094 621.21875 491.007812 C 622.40625 492.984375 623.460938 495.046875 624.382812 497.109375 C 625.347656 499.21875 626.136719 501.371094 626.839844 503.519531 C 627.453125 505.363281 627.894531 507.164062 628.332031 508.875 C 628.683594 510.457031 629.078125 512.257812 629.472656 514.011719 C 629.957031 516.253906 630.394531 518.402344 630.921875 520.378906 C 631.449219 522.355469 632.019531 524.285156 632.851562 526.175781 C 633.511719 527.753906 634.300781 529.292969 635.222656 530.742188 C 636.1875 532.277344 637.242188 533.769531 638.339844 535.132812 C 639.523438 536.535156 640.753906 537.851562 642.070312 539.039062 C 643.386719 540.269531 644.75 541.320312 646.109375 542.199219 C 647.425781 543.078125 648.742188 543.78125 649.972656 544.351562 C 651.378906 545.007812 652.695312 545.449219 653.75 545.710938 C 654.144531 545.800781 654.496094 545.886719 654.800781 545.929688 C 655.109375 545.976562 655.417969 546.019531 655.636719 546.019531 C 656.164062 546.019531 656.601562 545.976562 656.910156 545.800781 C 657.171875 545.667969 657.390625 545.492188 657.566406 545.230469 L 657.65625 545.097656 L 657.65625 545.007812 C 657.65625 545.007812 657.742188 544.878906 657.785156 544.832031 L 657.785156 544.746094 C 657.960938 544.175781 657.875 543.78125 657.609375 543.472656 C 657.128906 542.859375 656.074219 542.15625 654.890625 541.277344 C 653.351562 540.222656 651.289062 538.773438 649.269531 537.019531 C 648.304688 536.140625 647.382812 535.21875 646.460938 534.121094 C 645.539062 533.023438 644.660156 531.792969 643.828125 530.390625 C 642.992188 528.941406 642.160156 527.273438 641.414062 525.339844 C 640.667969 523.453125 640.007812 521.300781 639.394531 518.886719 C 638.824219 516.648438 638.339844 514.101562 637.8125 511.378906 C 637.332031 508.65625 636.890625 505.890625 636.410156 503.039062 C 635.839844 499.480469 635.222656 495.835938 634.566406 492.105469 C 633.90625 488.503906 633.117188 484.992188 632.238281 481.699219 C 631.40625 478.671875 630.4375 475.816406 629.339844 473.140625 C 628.289062 470.503906 627.101562 468.046875 625.828125 465.71875 C 624.554688 463.390625 623.195312 461.242188 621.746094 459.179688 C 620.296875 457.113281 618.761719 455.183594 617.183594 453.382812 C 615.601562 451.582031 613.933594 449.828125 612.132812 448.15625 C 610.378906 446.535156 608.488281 444.996094 606.425781 443.546875 C 604.363281 442.097656 602.125 440.78125 599.667969 439.507812 C 597.164062 438.234375 594.441406 437.050781 591.457031 435.953125 C 586.804688 434.242188 581.492188 432.792969 575.917969 431.429688 C 570.429688 430.070312 564.460938 428.839844 558.667969 427.609375 L 553.574219 426.511719 C 552.390625 426.25 551.117188 425.988281 549.535156 425.636719 C 546.15625 424.890625 542.90625 424.144531 539.789062 423.308594 C 536.675781 422.519531 533.644531 421.640625 530.792969 420.761719 C 527.9375 419.839844 525.21875 418.875 522.496094 417.777344 C 519.773438 416.679688 517.140625 415.449219 514.59375 414.089844 C 512.136719 412.773438 509.675781 411.324219 507.261719 409.742188 C 504.804688 408.117188 502.433594 406.40625 500.195312 404.648438 C 497.914062 402.847656 495.761719 400.960938 493.785156 399.03125 C 491.8125 397.097656 489.96875 395.121094 488.300781 393.148438 C 486.675781 391.214844 485.269531 389.28125 484.042969 387.394531 C 482.769531 385.417969 481.671875 383.53125 480.707031 381.644531 C 479.738281 379.757812 478.90625 377.824219 478.117188 375.890625 C 477.371094 374.003906 476.710938 372.203125 476.140625 370.359375 C 475.527344 368.472656 475 366.671875 474.558594 364.871094 C 474.078125 363.117188 473.683594 361.316406 473.285156 359.515625 C 472.847656 357.628906 472.496094 355.871094 472.1875 354.246094 C 471.925781 352.886719 471.574219 350.910156 471.179688 348.933594 C 471.09375 348.585938 470.917969 348.277344 470.609375 348.058594 C 470.34375 347.835938 469.949219 347.792969 469.597656 347.835938 C 469.25 347.925781 468.941406 348.101562 468.722656 348.410156 C 468.546875 348.671875 468.457031 349.023438 468.5 349.375 C 469.160156 352.929688 469.820312 356.488281 470.609375 360.085938 C 471.003906 361.84375 471.441406 363.644531 471.925781 365.574219 C 472.410156 367.460938 472.980469 369.351562 473.550781 371.195312 C 474.164062 373.125 474.867188 375.058594 475.613281 377.035156 C 476.359375 378.921875 477.238281 380.851562 478.246094 382.875 C 479.257812 384.847656 480.398438 386.824219 481.714844 388.84375 C 483.03125 390.863281 484.523438 392.925781 486.191406 394.902344 C 487.859375 396.921875 489.792969 398.984375 491.855469 400.960938 C 493.917969 402.9375 496.113281 404.914062 498.484375 406.757812 C 500.765625 408.601562 503.226562 410.355469 505.726562 412.023438 C 508.183594 413.648438 510.730469 415.140625 513.277344 416.503906 C 515.867188 417.863281 518.589844 419.136719 521.355469 420.234375 C 524.207031 421.375 527.0625 422.429688 529.957031 423.351562 C 532.898438 424.273438 535.929688 425.152344 539.042969 425.941406 C 542.160156 426.734375 545.496094 427.523438 548.964844 428.3125 C 552.214844 429.015625 555.109375 429.628906 558.097656 430.289062 C 563.671875 431.472656 569.421875 432.703125 575.085938 434.066406 C 580.660156 435.425781 585.972656 436.875 590.535156 438.542969 C 593.433594 439.597656 596.023438 440.695312 598.351562 441.921875 C 600.71875 443.152344 602.914062 444.425781 604.890625 445.832031 C 606.867188 447.191406 608.710938 448.683594 610.421875 450.265625 C 612.089844 451.800781 613.667969 453.46875 615.207031 455.183594 C 616.699219 456.894531 618.191406 458.738281 619.597656 460.757812 C 621 462.777344 622.316406 464.839844 623.546875 467.035156 C 624.777344 469.277344 625.917969 471.644531 626.972656 474.238281 C 627.980469 476.78125 628.902344 479.503906 629.734375 482.402344 C 630.351562 484.730469 630.921875 487.144531 631.449219 489.691406 C 631.976562 492.238281 632.414062 494.785156 632.851562 497.285156 L 636.671875 519.808594 L 628.242188 498.601562 C 627.671875 497.109375 626.972656 495.574219 626.179688 493.992188 C 625.433594 492.457031 624.644531 490.964844 623.808594 489.558594 C 622.625 487.539062 621.308594 485.5625 619.945312 483.765625 C 618.628906 482.050781 617.226562 480.425781 615.6875 478.890625 C 614.066406 477.265625 612.351562 475.816406 610.507812 474.542969 C 608.664062 473.226562 606.644531 472.085938 604.496094 471.121094 C 602.386719 470.152344 600.105469 469.320312 597.558594 468.660156 C 595.011719 467.957031 592.25 467.433594 589.308594 467.082031 C 584.433594 466.464844 578.859375 466.246094 572.933594 466.246094 C 567.007812 466.246094 560.640625 466.507812 554.144531 466.859375 L 552.652344 466.949219 L 551.90625 465.632812 C 551.378906 464.710938 550.589844 463.917969 549.667969 463.390625 Z M 549.449219 463.347656 " fill-opacity="1" fill-rule="nonzero"/><path fill="#000000" d="M 698.566406 329.003906 C 698.566406 329.554688 698.511719 330.105469 698.40625 330.648438 C 698.296875 331.191406 698.136719 331.71875 697.925781 332.230469 C 697.714844 332.742188 697.453125 333.226562 697.148438 333.6875 C 696.839844 334.148438 696.488281 334.574219 696.097656 334.964844 C 695.707031 335.355469 695.28125 335.703125 694.820312 336.011719 C 694.359375 336.320312 693.875 336.578125 693.363281 336.789062 C 692.851562 337.003906 692.324219 337.164062 691.78125 337.269531 C 691.238281 337.378906 690.691406 337.433594 690.140625 337.433594 C 689.585938 337.433594 689.039062 337.378906 688.496094 337.269531 C 687.953125 337.164062 687.425781 337.003906 686.914062 336.789062 C 686.402344 336.578125 685.917969 336.320312 685.457031 336.011719 C 684.996094 335.703125 684.570312 335.355469 684.179688 334.964844 C 683.789062 334.574219 683.4375 334.148438 683.132812 333.6875 C 682.824219 333.226562 682.5625 332.742188 682.351562 332.230469 C 682.140625 331.71875 681.980469 331.191406 681.871094 330.648438 C 681.765625 330.105469 681.710938 329.554688 681.710938 329.003906 C 681.710938 328.449219 681.765625 327.902344 681.871094 327.359375 C 681.980469 326.816406 682.140625 326.289062 682.351562 325.777344 C 682.5625 325.265625 682.824219 324.78125 683.132812 324.320312 C 683.4375 323.859375 683.789062 323.433594 684.179688 323.042969 C 684.570312 322.652344 684.996094 322.300781 685.457031 321.996094 C 685.917969 321.6875 686.402344 321.425781 686.914062 321.214844 C 687.425781 321.003906 687.953125 320.84375 688.496094 320.734375 C 689.039062 320.628906 689.585938 320.574219 690.140625 320.574219 C 690.691406 320.574219 691.238281 320.628906 691.78125 320.734375 C 692.324219 320.84375 692.851562 321.003906 693.363281 321.214844 C 693.875 321.425781 694.359375 321.6875 694.820312 321.996094 C 695.28125 322.300781 695.707031 322.652344 696.097656 323.042969 C 696.488281 323.433594 696.839844 323.859375 697.148438 324.320312 C 697.453125 324.78125 697.714844 325.265625 697.925781 325.777344 C 698.136719 326.289062 698.296875 326.816406 698.40625 327.359375 C 698.511719 327.902344 698.566406 328.449219 698.566406 329.003906 Z M 698.566406 329.003906 " fill-opacity="1" fill-rule="nonzero"/><path fill="#000000" d="M 514.242188 391.128906 C 514.242188 391.679688 514.1875 392.230469 514.082031 392.769531 C 513.972656 393.3125 513.8125 393.839844 513.601562 394.351562 C 513.390625 394.863281 513.128906 395.351562 512.824219 395.808594 C 512.515625 396.269531 512.164062 396.695312 511.773438 397.085938 C 511.382812 397.480469 510.957031 397.828125 510.496094 398.136719 C 510.035156 398.441406 509.550781 398.703125 509.039062 398.914062 C 508.527344 399.125 508 399.285156 507.457031 399.394531 C 506.917969 399.503906 506.367188 399.554688 505.816406 399.554688 C 505.261719 399.554688 504.714844 399.503906 504.171875 399.394531 C 503.628906 399.285156 503.101562 399.125 502.589844 398.914062 C 502.078125 398.703125 501.59375 398.441406 501.132812 398.136719 C 500.671875 397.828125 500.246094 397.480469 499.855469 397.085938 C 499.464844 396.695312 499.113281 396.269531 498.808594 395.808594 C 498.5 395.351562 498.238281 394.863281 498.027344 394.351562 C 497.816406 393.839844 497.65625 393.3125 497.546875 392.769531 C 497.441406 392.230469 497.386719 391.679688 497.386719 391.128906 C 497.386719 390.574219 497.441406 390.023438 497.546875 389.480469 C 497.65625 388.941406 497.816406 388.414062 498.027344 387.902344 C 498.238281 387.390625 498.5 386.902344 498.808594 386.445312 C 499.113281 385.984375 499.464844 385.558594 499.855469 385.167969 C 500.246094 384.773438 500.671875 384.425781 501.132812 384.117188 C 501.59375 383.8125 502.078125 383.550781 502.589844 383.339844 C 503.101562 383.128906 503.628906 382.96875 504.171875 382.859375 C 504.714844 382.75 505.261719 382.699219 505.816406 382.699219 C 506.367188 382.699219 506.917969 382.75 507.457031 382.859375 C 508 382.96875 508.527344 383.128906 509.039062 383.339844 C 509.550781 383.550781 510.035156 383.8125 510.496094 384.117188 C 510.957031 384.425781 511.382812 384.773438 511.773438 385.167969 C 512.164062 385.558594 512.515625 385.984375 512.824219 386.445312 C 513.128906 386.902344 513.390625 387.390625 513.601562 387.902344 C 513.8125 388.414062 513.972656 388.941406 514.082031 389.480469 C 514.1875 390.023438 514.242188 390.574219 514.242188 391.128906 Z M 514.242188 391.128906 " fill-opacity="1" fill-rule="nonzero"/><path fill="#000000" d="M 456.386719 284.96875 C 459.371094 284.96875 462.09375 286.195312 464.070312 288.128906 C 466.042969 290.105469 467.230469 292.828125 467.230469 295.8125 C 467.230469 298.796875 466 301.519531 464.070312 303.496094 C 462.09375 305.472656 459.414062 306.65625 456.386719 306.65625 C 453.359375 306.65625 450.765625 305.472656 448.792969 303.582031 C 447.253906 302.089844 446.160156 300.113281 445.71875 297.917969 L 444.621094 297.613281 C 443.65625 297.390625 442.515625 297.128906 441.152344 296.820312 C 438.082031 296.164062 434.175781 295.417969 429.828125 294.757812 C 426.359375 294.230469 422.542969 293.792969 418.546875 293.441406 C 415.078125 293.175781 411.566406 293.003906 408.097656 292.957031 C 404.984375 292.957031 401.820312 293.046875 398.617188 293.308594 C 391.988281 293.878906 385.449219 295.199219 379.039062 296.953125 C 372.9375 298.621094 366.96875 300.640625 361.042969 302.75 C 360.515625 304.855469 359.328125 306.699219 357.75 308.105469 C 355.816406 309.816406 353.273438 310.871094 350.507812 310.871094 C 347.519531 310.871094 344.800781 309.640625 342.824219 307.710938 C 340.847656 305.777344 339.664062 303.011719 339.664062 300.027344 C 339.664062 297.042969 340.894531 294.320312 342.824219 292.34375 C 344.800781 290.367188 347.519531 289.136719 350.507812 289.136719 C 351.910156 289.136719 353.273438 289.402344 354.5 289.929688 C 355.292969 290.234375 356.082031 290.675781 356.738281 291.15625 C 363.105469 288.875 369.46875 286.722656 375.964844 284.921875 C 382.992188 283.035156 390.144531 281.585938 397.5625 280.929688 C 400.988281 280.621094 404.5 280.535156 408.054688 280.535156 C 412.007812 280.535156 415.824219 280.753906 419.46875 281.015625 C 423.726562 281.367188 427.808594 281.851562 431.539062 282.421875 C 436.238281 283.125 440.40625 283.914062 443.65625 284.617188 C 445.28125 284.96875 446.816406 285.320312 448.265625 285.714844 C 449.144531 285.933594 449.933594 286.152344 450.679688 286.371094 C 451.339844 285.976562 452.039062 285.671875 452.742188 285.40625 C 453.839844 285.011719 455.027344 284.835938 456.253906 284.835938 Z M 460.644531 291.554688 C 459.546875 290.457031 458.054688 289.796875 456.386719 289.796875 C 455.683594 289.796875 455.027344 289.929688 454.410156 290.105469 C 453.753906 290.324219 453.183594 290.632812 452.65625 291.070312 L 451.644531 291.859375 L 450.460938 291.464844 C 449.539062 291.15625 448.441406 290.851562 447.167969 290.542969 C 445.984375 290.234375 444.535156 289.886719 442.777344 289.488281 C 439.574219 288.789062 435.535156 287.996094 430.96875 287.339844 C 427.328125 286.8125 423.375 286.328125 419.207031 285.976562 C 415.5625 285.671875 411.832031 285.496094 408.1875 285.496094 C 404.894531 285.496094 401.515625 285.582031 398.089844 285.890625 C 390.980469 286.503906 384.085938 287.910156 377.328125 289.710938 C 370.523438 291.554688 363.851562 293.835938 357.222656 296.25 L 355.816406 296.734375 L 354.765625 295.722656 C 354.195312 295.199219 353.578125 294.757812 352.832031 294.496094 C 352.175781 294.230469 351.429688 294.101562 350.59375 294.101562 C 348.925781 294.101562 347.433594 294.757812 346.335938 295.855469 C 345.238281 296.953125 344.582031 298.445312 344.582031 300.113281 C 344.582031 301.78125 345.238281 303.277344 346.335938 304.375 C 347.433594 305.472656 348.925781 306.128906 350.59375 306.128906 C 352.128906 306.128906 353.578125 305.558594 354.632812 304.59375 C 355.6875 303.625 356.433594 302.265625 356.609375 300.773438 L 356.785156 299.28125 L 358.1875 298.753906 C 364.730469 296.382812 371.269531 294.144531 377.855469 292.34375 C 384.527344 290.542969 391.332031 289.136719 398.308594 288.566406 C 401.515625 288.304688 404.851562 288.171875 408.230469 288.214844 C 411.960938 288.214844 415.5625 288.390625 419.03125 288.699219 C 423.113281 289.050781 427.019531 289.488281 430.617188 290.015625 C 435.140625 290.675781 439.089844 291.464844 442.25 292.125 C 443.523438 292.386719 444.710938 292.695312 445.851562 292.957031 C 446.90625 293.222656 447.871094 293.484375 448.703125 293.703125 L 450.371094 294.1875 L 450.371094 295.945312 C 450.460938 297.566406 451.164062 299.0625 452.214844 300.113281 C 453.3125 301.167969 454.804688 301.828125 456.429688 301.828125 C 458.054688 301.828125 459.632812 301.167969 460.6875 300.070312 C 461.785156 298.972656 462.445312 297.480469 462.445312 295.8125 C 462.445312 294.144531 461.785156 292.605469 460.6875 291.554688 Z M 460.644531 291.554688 " fill-opacity="1" fill-rule="nonzero"/><g clip-path="url(#edd478f037)"><path fill="#000000" d="M 340.277344 180.167969 C 340.277344 180.722656 340.222656 181.269531 340.117188 181.8125 C 340.007812 182.355469 339.847656 182.882812 339.636719 183.394531 C 339.425781 183.90625 339.164062 184.390625 338.859375 184.851562 C 338.550781 185.3125 338.199219 185.738281 337.808594 186.128906 C 337.417969 186.519531 336.992188 186.871094 336.53125 187.179688 C 336.074219 187.484375 335.585938 187.746094 335.074219 187.957031 C 334.5625 188.167969 334.035156 188.328125 333.496094 188.4375 C 332.953125 188.546875 332.402344 188.597656 331.851562 188.597656 C 331.296875 188.597656 330.75 188.546875 330.207031 188.4375 C 329.664062 188.328125 329.136719 188.167969 328.625 187.957031 C 328.113281 187.746094 327.628906 187.484375 327.167969 187.179688 C 326.707031 186.871094 326.28125 186.519531 325.890625 186.128906 C 325.5 185.738281 325.148438 185.3125 324.84375 184.851562 C 324.535156 184.390625 324.273438 183.90625 324.0625 183.394531 C 323.851562 182.882812 323.691406 182.355469 323.582031 181.8125 C 323.476562 181.269531 323.421875 180.722656 323.421875 180.167969 C 323.421875 179.617188 323.476562 179.066406 323.582031 178.523438 C 323.691406 177.980469 323.851562 177.453125 324.0625 176.945312 C 324.273438 176.433594 324.535156 175.945312 324.84375 175.484375 C 325.148438 175.027344 325.5 174.601562 325.890625 174.207031 C 326.28125 173.816406 326.707031 173.46875 327.167969 173.160156 C 327.628906 172.851562 328.113281 172.59375 328.625 172.382812 C 329.136719 172.167969 329.664062 172.011719 330.207031 171.902344 C 330.75 171.792969 331.296875 171.738281 331.851562 171.738281 C 332.402344 171.738281 332.953125 171.792969 333.496094 171.902344 C 334.035156 172.011719 334.5625 172.167969 335.074219 172.382812 C 335.585938 172.59375 336.074219 172.851562 336.53125 173.160156 C 336.992188 173.46875 337.417969 173.816406 337.808594 174.207031 C 338.199219 174.601562 338.550781 175.027344 338.859375 175.484375 C 339.164062 175.945312 339.425781 176.433594 339.636719 176.945312 C 339.847656 177.453125 340.007812 177.980469 340.117188 178.523438 C 340.222656 179.066406 340.277344 179.617188 340.277344 180.167969 Z M 340.277344 180.167969 " fill-opacity="1" fill-rule="nonzero"/></g><g clip-path="url(#7c3c628c19)"><path fill="#000000" d="M 488.125 180.167969 C 488.125 180.722656 488.070312 181.269531 487.960938 181.8125 C 487.855469 182.355469 487.695312 182.882812 487.480469 183.394531 C 487.269531 183.90625 487.011719 184.390625 486.703125 184.851562 C 486.394531 185.3125 486.046875 185.738281 485.65625 186.128906 C 485.265625 186.519531 484.839844 186.871094 484.378906 187.179688 C 483.917969 187.484375 483.433594 187.746094 482.921875 187.957031 C 482.410156 188.167969 481.882812 188.328125 481.339844 188.4375 C 480.796875 188.546875 480.25 188.597656 479.695312 188.597656 C 479.140625 188.597656 478.59375 188.546875 478.050781 188.4375 C 477.507812 188.328125 476.980469 188.167969 476.46875 187.957031 C 475.960938 187.746094 475.472656 187.484375 475.011719 187.179688 C 474.554688 186.871094 474.128906 186.519531 473.734375 186.128906 C 473.34375 185.738281 472.996094 185.3125 472.6875 184.851562 C 472.378906 184.390625 472.121094 183.90625 471.910156 183.394531 C 471.695312 182.882812 471.539062 182.355469 471.429688 181.8125 C 471.320312 181.269531 471.265625 180.722656 471.265625 180.167969 C 471.265625 179.617188 471.320312 179.066406 471.429688 178.523438 C 471.539062 177.980469 471.695312 177.453125 471.910156 176.945312 C 472.121094 176.433594 472.378906 175.945312 472.6875 175.484375 C 472.996094 175.027344 473.34375 174.601562 473.734375 174.207031 C 474.128906 173.816406 474.554688 173.46875 475.011719 173.160156 C 475.472656 172.851562 475.960938 172.59375 476.46875 172.382812 C 476.980469 172.167969 477.507812 172.011719 478.050781 171.902344 C 478.59375 171.792969 479.140625 171.738281 479.695312 171.738281 C 480.25 171.738281 480.796875 171.792969 481.339844 171.902344 C 481.882812 172.011719 482.410156 172.167969 482.921875 172.382812 C 483.433594 172.59375 483.917969 172.851562 484.378906 173.160156 C 484.839844 173.46875 485.265625 173.816406 485.65625 174.207031 C 486.046875 174.601562 486.394531 175.027344 486.703125 175.484375 C 487.011719 175.945312 487.269531 176.433594 487.480469 176.945312 C 487.695312 177.453125 487.855469 177.980469 487.960938 178.523438 C 488.070312 179.066406 488.125 179.617188 488.125 180.167969 Z M 488.125 180.167969 " fill-opacity="1" fill-rule="nonzero"/></g><path fill="#000000" d="M 458.449219 339.101562 C 456.738281 338.265625 454.675781 338.3125 452.832031 338.574219 C 450.546875 338.925781 448.265625 339.671875 446.113281 340.507812 C 443.171875 341.648438 440.363281 343.097656 437.597656 344.546875 C 436.984375 344.894531 436.324219 345.203125 435.710938 345.511719 C 434.746094 345.992188 433.824219 346.476562 432.859375 346.914062 C 431.585938 347.53125 430.222656 348.144531 429.082031 348.933594 C 428.117188 349.550781 427.28125 350.296875 426.710938 351.304688 C 426.140625 352.316406 425.921875 353.414062 425.878906 354.597656 C 425.832031 355.695312 425.878906 356.839844 425.964844 357.9375 C 426.054688 359.078125 426.230469 360.261719 426.449219 361.402344 C 426.625 362.324219 426.929688 363.335938 427.414062 364.125 C 428.203125 365.441406 429.476562 366.191406 431.058594 366.015625 C 431.9375 365.925781 432.550781 365.574219 433.296875 365.09375 C 433.558594 364.917969 433.867188 364.742188 434.128906 364.609375 C 434.699219 364.390625 435.710938 364.34375 436.324219 364.257812 C 437.421875 364.125 438.519531 363.996094 439.617188 363.863281 C 441.59375 363.554688 443.570312 363.160156 445.5 362.632812 C 447.738281 362.019531 450.019531 361.140625 452.039062 359.910156 C 453.929688 358.769531 455.640625 357.320312 457.089844 355.652344 C 458.539062 353.941406 459.765625 352.007812 460.601562 349.945312 C 461.347656 348.144531 461.917969 345.992188 461.742188 344.019531 C 461.566406 341.867188 460.554688 340.023438 458.582031 339.058594 Z M 455.683594 344.371094 C 455.683594 344.371094 455.683594 344.5 455.683594 344.546875 C 455.773438 345.511719 455.332031 346.828125 454.980469 347.75 C 454.367188 349.242188 453.488281 350.648438 452.4375 351.878906 C 451.425781 353.0625 450.195312 354.117188 448.878906 354.90625 C 447.34375 355.828125 445.542969 356.488281 443.789062 356.96875 C 442.121094 357.453125 440.363281 357.804688 438.652344 358.023438 C 437.640625 358.15625 436.632812 358.285156 435.621094 358.417969 C 434.480469 358.550781 433.296875 358.636719 432.199219 359.035156 C 432.15625 359.035156 432.109375 359.035156 432.066406 359.078125 C 431.980469 358.550781 431.9375 357.980469 431.890625 357.453125 C 431.804688 356.617188 431.761719 355.742188 431.804688 354.949219 C 431.804688 354.773438 431.804688 354.378906 431.890625 354.246094 C 431.980469 354.160156 432.199219 354.027344 432.332031 353.941406 C 433.296875 353.324219 434.480469 352.800781 435.492188 352.273438 C 436.5 351.789062 437.464844 351.304688 438.476562 350.78125 C 439.132812 350.429688 439.792969 350.121094 440.40625 349.769531 C 442.996094 348.410156 445.632812 347.046875 448.351562 345.992188 C 450.066406 345.335938 451.996094 344.675781 453.796875 344.414062 C 454.148438 344.371094 455.199219 344.238281 455.726562 344.324219 Z M 455.683594 344.371094 " fill-opacity="1" fill-rule="evenodd"/></svg>