<?xml version="1.0" encoding="UTF-8"?>
<svg id="Camada_1" data-name="Camada 1" xmlns="http://www.w3.org/2000/svg" viewBox="0 0 64.28 52.99">
  <defs>
    <style>
      .cls-1 {
        fill-rule: evenodd;
      }
    </style>
  </defs>
  <g id="Camada_1-2" data-name="Camada_1">
    <g id="_2559505045440" data-name=" 2559505045440">
      <path class="cls-1" d="M27.84,31.73c.03-.72,.08-1.18,.18-1.56,.11-.42,.26-.75,.47-1.01,.22-.28,.49-.47,.81-.61,.32-.13,.68-.21,1.06-.21,.35,0,.71,.06,1.03,.19,.34,.14,.64,.37,.9,.66,.25,.29,.45,.64,.59,1.04,.14,.39,.23,.82,.29,1.5,.05,.64,.08,1.54,.1,2.9,.01,.91,.02,2.03,.03,3.23,.02,2.27,.04,4.79,.09,6.56,.04,1.32,.1,2.22,.21,2.88,.1,.62,.25,1.03,.46,1.41,.22,.39,.51,.75,.87,1.09,.36,.34,.8,.64,1.31,.92,.55,.3,1.18,.56,1.86,.75,.61,.17,1.26,.28,1.9,.29,.68,.02,1.37-.07,2.03-.26,.64-.18,1.25-.46,1.82-.85,.58-.39,1.11-.89,1.56-1.46,.45-.57,.83-1.21,1.09-1.88,.3-.77-.45,.69-.71,1-.35,.43-.76,.8-1.21,1.06-.47,.27-.97,.42-1.5,.47-.54,.05-1.09-.02-1.66-.18-.58-.17-1.18-.45-1.73-.88-.48-.38-.94-.86-1.34-1.49-.42-.66-.78-1.48-1.06-2.48-.28-.99-.48-2.18-.61-3.59-.23-2.63-.15-6.08-.1-8.39v-.38c.03-1.14,.04-1.94,.05-2.5s0-.89,0-1.12c0-.17,0-.27-.01-.33-.07-.16-.04-.35,.09-.48,.17-.17,.44-.17,.61,0,.06,.06,.12,.12,.15,.34,.01,.08,.02,.21,.02,.46,0,.23,0,.57,0,1.14,0,.57-.02,1.37-.04,2.51v.38c-.06,2.28-.13,5.69,.09,8.31,.12,1.36,.31,2.49,.58,3.43,.26,.93,.58,1.67,.96,2.26,.34,.54,.73,.95,1.14,1.27,.46,.36,.95,.59,1.44,.73,.46,.13,.91,.19,1.34,.15,.41-.03,.79-.15,1.14-.36,.36-.21,.68-.5,.97-.85,.32-.39,.58-.84,.78-1.31,.3-.69,.46-1.44,.62-2.21,.06-.27,.11-.54,.17-.79,.13-.54,.28-1.09,.47-1.6,.19-.53,.43-1.03,.73-1.47h0c.29-.44,.63-.81,1-1.12,.4-.33,.82-.57,1.22-.72,.32-.12,.62-.17,.88-.19,.53-.04,.97,.16,1.04,.32,.13,.29,.03,.48-.26,.6-.08,.03-.18,.06-.32,.09-.21,.05-.52,.13-.82,.26-.29,.12-.58,.29-.87,.51-.25,.2-.48,.44-.68,.71-.21,.3-.39,.64-.54,1.04-.15,.42-.27,.91-.36,1.48-.05,.29-.09,.59-.13,.91-.14,1.05-.3,2.24-.75,3.36-.3,.75-.71,1.47-1.22,2.11-.5,.64-1.1,1.2-1.76,1.64-.65,.44-1.34,.76-2.06,.96-.75,.21-1.52,.31-2.29,.29-.72-.02-1.44-.14-2.11-.32-.74-.2-1.44-.49-2.04-.82-.58-.31-1.07-.66-1.48-1.05-.43-.4-.78-.83-1.04-1.3-.26-.46-.44-.95-.56-1.69-.11-.7-.18-1.63-.22-2.99-.05-1.77-.07-4.3-.09-6.58,0-1.18-.02-2.3-.03-3.22-.02-1.31-.05-2.18-.1-2.83-.05-.6-.13-.97-.24-1.28-.11-.3-.26-.56-.44-.77-.17-.19-.36-.34-.58-.43s-.45-.13-.69-.13c-.26,0-.51,.05-.73,.15-.19,.08-.35,.19-.47,.35-.13,.17-.24,.39-.31,.68-.08,.33-.13,.74-.15,1.38-.03,.68-.03,1.6-.01,2.95v1.05c.03,2.7,.06,6.39-.06,8.79-.07,1.39-.18,2.37-.36,3.13-.18,.78-.42,1.33-.73,1.85-.32,.53-.7,1.03-1.16,1.46-.43,.42-.93,.79-1.48,1.09s-1.16,.52-1.79,.67c-.65,.15-1.34,.24-2.02,.24-.69,0-1.38-.06-2.04-.21-.64-.14-1.27-.35-1.83-.64-.56-.28-1.06-.64-1.5-1.05-.46-.43-.84-.91-1.16-1.44-.31-.52-.54-1.06-.75-1.62-.19-.53-.36-1.11-.52-1.69-.07-.23,.07-.47,.3-.54s.47,.07,.54,.3c.15,.54,.31,1.08,.51,1.63,.19,.52,.4,1.02,.67,1.47,.28,.46,.61,.88,1.01,1.25,.38,.35,.81,.66,1.3,.91,.49,.25,1.04,.44,1.62,.56,.6,.13,1.23,.19,1.85,.19,.62,0,1.24-.08,1.83-.22,.56-.13,1.1-.33,1.58-.6,.48-.26,.91-.58,1.28-.94,.4-.39,.74-.82,1.02-1.29,.27-.45,.48-.92,.63-1.6,.16-.71,.28-1.64,.34-2.97,.12-2.4,.09-6.06,.07-8.74v-1.05c-.02-1.36-.02-2.3,0-2.98h0Zm-14.29,14.41s-.03,.09-.02,.14c.08,.28,.16,.56,.25,.86,.08,.27,.17,.54,.27,.81,.1,.28,.21,.55,.32,.81,.12,.26,.25,.52,.4,.77,.15,.26,.32,.5,.51,.73,.19,.23,.39,.45,.6,.65,.22,.2,.45,.39,.69,.56,.24,.17,.49,.32,.76,.45,.27,.13,.55,.26,.84,.36,.3,.1,.61,.19,.93,.26,.32,.07,.65,.12,.97,.15,.34,.03,.68,.05,1.01,.05,.33,0,.67-.02,1-.06,.33-.04,.65-.09,.97-.17,.31-.07,.62-.17,.91-.28,.29-.11,.56-.23,.83-.38,.26-.14,.51-.3,.74-.47,.24-.18,.47-.37,.68-.57,.22-.21,.42-.43,.6-.66,.19-.24,.36-.49,.52-.75,.15-.25,.28-.5,.4-.79,.12-.29,.22-.61,.31-.99,.09-.37,.16-.79,.21-1.3,.06-.51,.11-1.1,.14-1.79,.06-1.2,.08-2.72,.09-4.27,0-1.56,0-3.15-.02-4.5v-1.05c-.01-.67-.01-1.24-.01-1.73,0-.49,0-.89,.02-1.24,.01-.33,.03-.6,.05-.83,.03-.24,.06-.43,.1-.6,.04-.16,.09-.3,.15-.43,.06-.13,.13-.25,.21-.34,.07-.09,.16-.18,.26-.25,.09-.07,.2-.13,.31-.17,.12-.05,.26-.09,.4-.12,.14-.03,.28-.04,.42-.04s.28,0,.41,.03c.13,.02,.26,.06,.38,.11,.13,.05,.24,.12,.36,.21s.21,.18,.31,.29c.1,.11,.19,.24,.27,.39,.08,.14,.15,.29,.21,.46,.06,.17,.11,.35,.15,.57,.04,.21,.07,.47,.1,.77,.03,.32,.05,.71,.07,1.18,.02,.46,.03,1.01,.04,1.67,.01,.87,.02,1.92,.03,3.04v.21c.02,2.28,.04,4.79,.09,6.55,.02,.67,.05,1.24,.09,1.74,.03,.48,.08,.88,.14,1.22,.06,.36,.13,.65,.22,.91,.09,.26,.19,.48,.32,.7,.13,.22,.27,.44,.44,.64,.16,.21,.35,.4,.56,.6,.2,.19,.42,.36,.66,.53,.24,.17,.5,.33,.78,.48,.3,.16,.62,.32,.97,.45,.33,.13,.67,.25,1.03,.35,.34,.09,.68,.17,1.03,.22,.34,.05,.68,.08,1.01,.09,.37,0,.75,0,1.13-.05,.37-.05,.73-.12,1.09-.22,.36-.1,.7-.23,1.03-.39,.33-.15,.65-.34,.96-.54,.32-.21,.62-.46,.9-.72,.29-.27,.56-.56,.8-.87s.47-.64,.67-.99c.2-.34,.37-.69,.51-1.06,.43-1.1,.59-2.27,.73-3.3,0-.11,.05-.35,.06-.47,.02-.15,.04-.3,.07-.45,.05-.3,.1-.57,.17-.82s.13-.49,.21-.71c.08-.21,.16-.41,.26-.59,.09-.18,.2-.36,.31-.51,.1-.14,.22-.28,.34-.4,.13-.13,.26-.25,.4-.36,.14-.11,.29-.21,.44-.3,.16-.09,.32-.17,.48-.24,.16-.07,.32-.12,.47-.16,.15-.04,.28-.07,.38-.1l.17-.05s.08-.02,.11-.04c.09-.04,.14-.08,.16-.12,.01-.03,0-.08-.01-.14v-.03s-.11-.07-.26-.12c-.15-.05-.34-.07-.54-.05-.13,.01-.27,.03-.42,.06-.13,.03-.27,.07-.4,.12-.19,.07-.38,.16-.58,.28-.19,.11-.39,.25-.57,.4-.18,.15-.35,.31-.52,.5-.14,.16-.28,.33-.4,.51l-.03,.05c-.14,.21-.27,.44-.39,.68-.11,.24-.22,.49-.32,.75-.09,.26-.18,.52-.26,.78-.07,.26-.14,.52-.21,.8l-.09,.39-.09,.4c-.08,.38-.16,.76-.26,1.14-.1,.38-.22,.75-.37,1.11-.11,.25-.23,.49-.37,.73-.13,.23-.29,.44-.45,.64-.15,.19-.32,.37-.5,.52-.17,.15-.35,.28-.54,.39-.19,.11-.39,.2-.6,.26-.21,.07-.43,.11-.65,.13-.23,.02-.46,.02-.71-.01-.24-.03-.48-.08-.73-.15-.27-.08-.54-.18-.8-.32-.24-.12-.49-.28-.72-.46-.22-.17-.44-.37-.64-.6-.19-.21-.38-.46-.55-.73-.19-.31-.38-.65-.54-1.04-.16-.38-.31-.81-.45-1.28-.13-.48-.25-1-.35-1.58s-.18-1.21-.24-1.89c-.22-2.61-.15-6.02-.1-8.31l.03-1.87v-1.04s.02-.7,.02-.7c0-.18,0-.32,0-.44,0-.11,0-.21-.01-.28,0-.07,0-.11-.01-.15,0-.07-.02-.12-.04-.14,0-.02-.03-.03-.04-.05-.04-.04-.09-.06-.14-.06-.05,0-.1,.02-.13,.05-.03,.03-.05,.06-.05,.1,0,.04,0,.08,.01,.11l.02,.04v.17s.02,.21,.02,.21v.44c0,.18,0,.41,0,.68v1.03s-.05,1.85-.05,1.85c-.03,1.16-.05,2.6-.05,4.07,0,1.47,.04,2.98,.15,4.29,.06,.7,.14,1.34,.24,1.93,.1,.59,.22,1.13,.36,1.61,.14,.49,.3,.94,.47,1.34,.17,.4,.36,.76,.56,1.08,.19,.3,.39,.56,.6,.79,.22,.25,.45,.46,.69,.64,.25,.19,.52,.36,.78,.5,.29,.15,.58,.26,.87,.34,.27,.08,.54,.13,.81,.16,.26,.03,.52,.03,.77,.01,.25-.02,.5-.07,.73-.14,.23-.07,.46-.17,.67-.3,.21-.12,.4-.26,.59-.43,.19-.17,.38-.36,.55-.57,.09-.11,.28-.43,.44-.7,.21-.36,.4-.68,.61-.6,.15,.06,.19,.23,.07,.54-.13,.34-.3,.68-.49,1.01-.19,.33-.4,.64-.64,.94-.23,.29-.49,.57-.77,.83-.27,.25-.56,.48-.85,.68-.29,.2-.59,.37-.9,.51-.32,.15-.65,.27-.98,.37-.34,.1-.69,.17-1.04,.21-.35,.05-.71,.06-1.07,.05-.33,0-.65-.04-.97-.09-.33-.05-.66-.12-.99-.21-.34-.09-.67-.21-.98-.33-.33-.13-.64-.28-.93-.43-.26-.14-.51-.3-.73-.45-.23-.16-.44-.33-.63-.51-.19-.17-.36-.36-.51-.55-.15-.19-.29-.39-.41-.6-.11-.2-.21-.41-.29-.65-.08-.24-.15-.51-.2-.83-.06-.34-.1-.73-.13-1.21-.03-.47-.06-1.03-.08-1.7-.03-.88-.05-1.96-.06-3.1-.01-1.13-.02-2.33-.03-3.47v-1.72s-.03-1.51-.03-1.51c0-.67-.02-1.24-.04-1.71-.02-.46-.04-.84-.07-1.17-.03-.33-.07-.6-.11-.84-.05-.23-.1-.42-.17-.6-.07-.19-.15-.36-.24-.52-.09-.16-.19-.31-.31-.44-.11-.13-.24-.25-.38-.35-.13-.1-.28-.18-.43-.25-.14-.06-.29-.1-.45-.13-.16-.03-.33-.05-.49-.04-.17,0-.34,.02-.5,.05-.16,.03-.32,.08-.46,.14-.14,.06-.28,.13-.4,.22-.12,.09-.22,.19-.32,.31-.09,.12-.18,.25-.25,.4-.07,.15-.13,.33-.18,.52-.05,.18-.08,.38-.11,.62-.03,.25-.05,.54-.06,.89-.01,.34-.02,.75-.02,1.23,0,.49,0,1.06,0,1.74v1.05c.02,1.34,.03,2.93,.03,4.48,0,1.56-.03,3.08-.08,4.28-.03,.68-.08,1.25-.13,1.74-.06,.5-.13,.91-.21,1.28-.08,.36-.18,.66-.29,.93s-.23,.51-.38,.75c-.15,.24-.31,.48-.49,.71-.17,.22-.37,.43-.57,.63-.2,.19-.41,.38-.64,.54-.22,.16-.45,.31-.7,.44-.25,.13-.51,.26-.79,.36-.28,.11-.57,.19-.86,.26-.31,.07-.61,.13-.92,.16s-.63,.06-.96,.06c-.32,0-.64-.01-.96-.05-.32-.03-.64-.08-.94-.15-.3-.06-.59-.15-.88-.25-.28-.1-.55-.21-.8-.34-.26-.13-.49-.27-.72-.43-.23-.16-.44-.33-.64-.52-.21-.19-.4-.4-.57-.61-.17-.22-.34-.45-.48-.69-.14-.24-.27-.48-.38-.73-.11-.26-.22-.52-.31-.78-.09-.27-.19-.55-.27-.83-.1-.32-.17-.56-.24-.81-.01-.05-.05-.09-.09-.11-.04-.02-.09-.03-.14-.01-.05,.01-.09,.05-.11,.09h0Z"/>
      <path class="cls-1" d="M23.79,20.26c.24,0,.43,.2,.43,.44-.05,4-.09,8-.14,11.54-.05,3.55-.09,6.63-.13,8.78-.04,2.18-.07,3.42-.13,4.2-.07,.84-.17,1.2-.36,1.58-.34,.7-.92,1.41-1.51,2.11-.15,.18-.42,.21-.61,.06-.18-.15-.21-.43-.06-.61,.55-.66,1.1-1.32,1.39-1.93,.13-.28,.21-.56,.27-1.27,.06-.78,.1-2.01,.13-4.14,.04-2.16,.08-5.24,.13-8.78,.05-3.54,.09-7.54,.14-11.54,0-.24,.2-.43,.44-.43h0Zm-.19,.43c0,3.84-.09,7.7-.14,11.55l-.07,4.9c-.02,1.48-.04,2.79-.06,3.87-.02,1.07-.04,1.91-.06,2.58-.02,.68-.05,1.19-.08,1.58-.03,.37-.07,.63-.11,.83-.05,.21-.11,.37-.18,.52-.15,.32-.37,.65-.62,.98-.25,.33-.52,.66-.8,.99-.03,.04-.05,.09-.04,.14s.03,.09,.07,.13,.09,.05,.14,.04c.05,0,.09-.03,.13-.07h0c.58-.7,1.15-1.38,1.47-2.06,.08-.17,.15-.34,.2-.57,.05-.23,.1-.52,.13-.93,.03-.39,.05-.89,.07-1.56,.02-.68,.04-1.54,.06-2.63,.02-1.08,.04-2.39,.06-3.87l.07-4.91,.14-11.54c0-.05-.02-.1-.05-.13s-.08-.05-.13-.06h0c-.05,0-.1,.02-.14,.05-.03,.03-.06,.08-.06,.13h0Z"/>
      <path class="cls-1" d="M42.03,25.75c-.24,0-.44-.19-.44-.43,0-.24,.19-.44,.43-.44h0c4.86-.07,9.71-.15,12.59-.35,1.41-.1,2.32-.22,2.98-.4,.63-.17,1.03-.38,1.44-.65,.44-.29,.88-.65,1.29-1.07,.39-.39,.75-.82,1.07-1.28,.32-.48,.59-.99,.83-1.51,.24-.53,.46-1.09,.67-1.64,.09-.22,.34-.34,.56-.25,.22,.09,.34,.34,.25,.56-.22,.56-.44,1.13-.69,1.69-.26,.57-.55,1.12-.9,1.63-.34,.5-.75,.98-1.18,1.41-.45,.45-.94,.85-1.42,1.17-.48,.32-.96,.57-1.71,.77-.72,.19-1.68,.32-3.14,.42-2.87,.2-7.75,.28-12.64,.35,0,0,0,0,0,0Zm0-.24h.03c4.87-.08,9.74-.15,12.6-.35,.73-.05,1.33-.11,1.83-.18,.5-.07,.91-.15,1.26-.24,.36-.09,.65-.2,.91-.32,.26-.12,.49-.26,.72-.41,.24-.16,.48-.34,.71-.53,.23-.19,.46-.39,.67-.61,.21-.21,.42-.44,.62-.67,.18-.22,.36-.46,.53-.7,.17-.26,.33-.52,.47-.78,.14-.27,.28-.54,.4-.82,.13-.28,.24-.56,.36-.83,.13-.31,.23-.58,.33-.84,.02-.05,.01-.1,0-.15-.02-.05-.06-.08-.1-.1-.05-.02-.1-.02-.15,0-.05,.02-.08,.06-.1,.11h0c-.22,.56-.44,1.12-.68,1.65-.12,.26-.25,.53-.39,.79-.14,.26-.3,.52-.46,.76-.15,.23-.33,.46-.51,.68-.19,.23-.38,.44-.58,.64-.21,.21-.43,.41-.65,.59-.22,.18-.45,.35-.68,.51-.21,.14-.43,.27-.67,.38s-.51,.21-.85,.3c-.34,.09-.74,.17-1.24,.23-.49,.07-1.08,.12-1.79,.17-2.87,.2-7.73,.28-12.59,.35h-.02c-.05,0-.1,.02-.13,.05-.03,.03-.05,.08-.05,.13h0c0,.05,.02,.1,.06,.13s.08,.05,.13,.05h0Z"/>
      <path class="cls-1" d="M21.62,23.91c.14-.19,.42-.23,.6-.09,.18,.14,.23,.4,.1,.59h0c-1.33,2-2.66,4-4.77,5.08-1.65,.85-3.7,1.09-5.47,1.3-.47,.05-.92,.11-1.33,.17-.94,.14-1.69,.32-2.31,.57-.59,.24-1.06,.54-1.45,.93-.36,.36-.67,.8-.92,1.28-.31,.57-.54,1.2-.71,1.8-.16,.56-.27,1.1-.34,1.6-.07,.5-.12,.96-.15,1.36l-.02,.32c-.04,.68-.08,1.19-.32,1.81-.14,.36-.36,.74-.61,1.1-.25,.35-.53,.68-.83,.94-.31,.27-.62,.47-.94,.63-.31,.16-.61,.28-.91,.39-.22,.09-.48-.02-.56-.25-.09-.22,.02-.48,.25-.56,.29-.11,.57-.22,.84-.36,.26-.13,.52-.29,.76-.51,.25-.22,.49-.5,.7-.79,.21-.31,.4-.63,.51-.92,.2-.49,.23-.94,.26-1.54l.02-.33c.03-.42,.07-.9,.15-1.42,.08-.53,.19-1.11,.36-1.71,.19-.65,.44-1.34,.78-1.97,.29-.55,.65-1.06,1.07-1.48,.48-.47,1.04-.84,1.74-1.12,.68-.28,1.5-.48,2.51-.62,.43-.06,.88-.12,1.35-.17,1.7-.2,3.67-.44,5.18-1.21,1.9-.97,3.17-2.88,4.44-4.79v-.02s.02,0,.02,0Zm.32,.07s-.09,.03-.13,.07h-.01c-.64,.97-1.28,1.93-2,2.77-.73,.86-1.55,1.6-2.53,2.1-.77,.4-1.67,.66-2.58,.84-.91,.18-1.83,.29-2.68,.39l-.69,.08c-.21,.03-.42,.05-.65,.09-.5,.07-.95,.16-1.35,.26-.4,.1-.77,.21-1.1,.35-.34,.13-.64,.29-.92,.47-.28,.18-.52,.38-.75,.6-.2,.19-.38,.41-.54,.64-.18,.25-.34,.51-.49,.79-.15,.29-.29,.6-.42,.91-.13,.34-.25,.68-.34,1.02-.08,.3-.15,.59-.21,.87-.06,.28-.11,.55-.15,.81s-.07,.51-.09,.74c-.02,.23-.04,.45-.06,.66l-.02,.33c-.04,.62-.07,1.09-.28,1.62-.06,.15-.14,.32-.23,.48-.09,.17-.19,.33-.31,.49-.11,.16-.24,.32-.36,.46-.12,.14-.25,.27-.38,.38-.13,.11-.26,.21-.4,.31-.14,.09-.27,.17-.41,.24-.28,.14-.57,.26-.86,.37h0s-.09,.06-.11,.1c-.02,.04-.02,.09,0,.14h0c.02,.05,.06,.09,.1,.11,.05,.02,.1,.02,.15,0,.14-.05,.28-.11,.45-.18,.14-.06,.29-.13,.44-.2,.15-.08,.3-.16,.45-.26,.15-.1,.3-.21,.44-.34,.14-.12,.28-.26,.41-.41,.13-.15,.26-.32,.39-.49,.12-.17,.24-.35,.33-.53,.1-.17,.18-.35,.25-.52,.23-.58,.27-1.08,.31-1.73,0-.11,.01-.21,.02-.32,.01-.2,.03-.41,.05-.65,.02-.24,.05-.48,.09-.73,.04-.25,.08-.52,.14-.79,.06-.28,.13-.56,.21-.84,.09-.32,.2-.66,.33-.98,.11-.29,.25-.58,.4-.87,.14-.26,.29-.5,.45-.73,.16-.22,.33-.42,.51-.6,.21-.21,.44-.39,.69-.55,.25-.16,.53-.3,.84-.43,.32-.13,.67-.24,1.07-.34,.39-.1,.82-.18,1.3-.25,.41-.06,.85-.11,1.31-.17h.03c.88-.11,1.84-.22,2.76-.41,.92-.19,1.83-.46,2.63-.87,1.02-.52,1.86-1.28,2.61-2.14,.7-.81,1.32-1.72,1.93-2.65h0l.14-.21s.04-.09,.03-.14-.03-.09-.07-.12c-.04-.03-.09-.04-.14-.03v-.02Z"/>
      <path class="cls-1" d="M21.76,19.48c.24-.01,.44,.17,.45,.41s-.17,.44-.41,.45c-4.52,.21-9.03,.42-12.02,.39-1.51-.01-2.63-.09-3.53-.24-.93-.15-1.62-.38-2.27-.7-.66-.32-1.26-.74-1.77-1.23-.49-.48-.89-1.03-1.17-1.63-.28-.62-.42-1.29-.44-1.97-.01-.68,.11-1.38,.36-2.06H.98c.24-.64,.6-1.27,1.03-1.83,.45-.6,.97-1.11,1.5-1.5,.52-.38,1.05-.64,1.72-.86,.64-.21,1.42-.36,2.44-.56,.42-.08,.98-.18,1.56-.28,1.84-.33,4.02-.72,5.63-1.12,1.03-.26,1.81-.51,2.44-.78,.61-.27,1.08-.55,1.5-.88,.4-.32,.75-.67,1.05-1.05,.31-.4,.58-.83,.79-1.29,.17-.36,.3-.71,.41-1.01,.28-.76,.49-1.32,1.02-1.17,.28,.08,.47,.47,.6,1.03,.11,.5,.21,1.18,.28,1.89,.02,.19,.04,.44,.07,.69,.09,1.04,.19,2.07,.5,2.75,.17,.38,.41,.66,.72,.89,.33,.24,.74,.42,1.21,.6,.48,.17,1.03,.34,1.55,.49,.57,.17,1.11,.33,1.5,.48,.84,.33,1.15,.67,1.44,1.01,.17,.17,.17,.44,0,.61s-.44,.17-.61,0l-.02-.02c-.23-.26-.46-.52-1.13-.79-.38-.15-.89-.3-1.43-.46-.53-.16-1.09-.32-1.6-.51-.54-.2-1.02-.42-1.42-.71-.42-.31-.76-.7-1-1.23-.36-.81-.46-1.92-.57-3.03-.02-.21-.04-.42-.07-.68-.06-.58-.13-1.13-.22-1.56v.03c-.13,.34-.28,.73-.44,1.08-.24,.52-.54,1.01-.89,1.46-.34,.44-.74,.84-1.2,1.2-.47,.37-.99,.69-1.69,.99-.67,.29-1.5,.56-2.57,.83-1.61,.4-3.82,.8-5.68,1.13-.54,.09-1.04,.19-1.56,.28-1,.19-1.74,.34-2.34,.53-.57,.18-1.02,.4-1.47,.73-.47,.34-.93,.8-1.33,1.33-.37,.49-.69,1.04-.9,1.61-.21,.58-.32,1.17-.31,1.75,.01,.57,.13,1.12,.36,1.63,.23,.5,.56,.96,.98,1.37,.44,.43,.97,.79,1.54,1.08,.57,.28,1.19,.48,2.02,.62,.86,.14,1.93,.21,3.39,.23,2.95,.03,7.46-.18,11.97-.39h-.01Zm0,.25h-.03c-4.5,.21-9,.42-11.95,.39-.74,0-1.38-.03-1.94-.07-.56-.04-1.06-.09-1.5-.16-.43-.07-.8-.16-1.14-.26-.34-.11-.65-.23-.95-.38-.3-.15-.59-.32-.86-.51-.27-.19-.52-.39-.75-.61-.22-.21-.42-.44-.6-.69-.17-.24-.32-.49-.44-.75-.12-.27-.21-.55-.28-.84-.06-.29-.1-.59-.11-.89,0-.31,.02-.62,.07-.92,.05-.3,.14-.61,.25-.91l.06-.16h0c.09-.24,.21-.47,.34-.69,.16-.28,.34-.56,.54-.82,.21-.27,.43-.52,.66-.75,.24-.24,.48-.44,.72-.62,.23-.17,.47-.32,.72-.44,.25-.12,.52-.23,.82-.32,.31-.1,.65-.19,1.04-.27,.39-.09,.83-.17,1.33-.27,.49-.09,1.01-.18,1.56-.28h.01c1.85-.34,4.05-.73,5.65-1.13,.53-.13,1-.26,1.42-.4,.42-.13,.78-.27,1.11-.42,.34-.15,.63-.3,.9-.46,.27-.16,.51-.32,.73-.5,.22-.17,.43-.36,.62-.54,.19-.19,.38-.4,.54-.61,.17-.22,.33-.44,.47-.67,.15-.24,.28-.48,.4-.74,.08-.17,.15-.35,.23-.53,.09-.21,.14-.38,.2-.52l.03-.09-.09-.22c-.05-.11-.08-.2-.05-.3,.05-.17,.15-.23,.36-.18l.05-.16,.04,.19c.19,.07,.16,.18,.11,.36,0,.02-.01,.05-.02,.08v.03s.05,.3,.05,.3c.04,.21,.08,.46,.11,.72,.04,.28,.07,.57,.1,.87,.02,.23,.04,.45,.06,.66v.02c.05,.55,.1,1.1,.19,1.61,.08,.5,.19,.96,.36,1.34,.11,.24,.24,.46,.4,.64,.15,.19,.33,.35,.53,.49,.19,.14,.4,.26,.62,.37,.23,.11,.48,.21,.74,.31,.25,.09,.51,.18,.78,.26,.29,.09,.55,.17,.81,.24,.28,.08,.56,.17,.78,.24,.25,.08,.48,.15,.67,.23,.36,.14,.6,.29,.79,.43,.19,.15,.31,.29,.43,.43h0s.09,.07,.13,.07,.1-.02,.13-.06c.04-.04,.06-.09,.06-.13,0-.04-.01-.08-.04-.11l-.03-.03c-.14-.16-.28-.32-.48-.47-.2-.15-.47-.31-.87-.47-.4-.15-.92-.31-1.48-.48h0c-.27-.08-.55-.17-.8-.24-.26-.08-.52-.17-.77-.26-.24-.09-.47-.18-.68-.28-.21-.1-.41-.22-.59-.35-.17-.13-.32-.26-.46-.43-.13-.16-.25-.34-.34-.56-.16-.36-.27-.81-.34-1.3-.07-.48-.12-1-.17-1.52l-.07-.69c-.04-.36-.08-.71-.13-1.05-.05-.31-.09-.58-.15-.81-.06-.27-.13-.49-.23-.64-.07-.11-.13-.19-.2-.21-.31-.09-.48,.37-.72,1v.02c-.06,.15-.12,.31-.19,.49-.07,.18-.15,.36-.23,.54-.11,.24-.24,.47-.38,.7-.13,.22-.28,.44-.44,.64-.16,.2-.33,.39-.51,.58-.18,.18-.38,.35-.58,.51-.21,.17-.44,.33-.7,.48-.25,.15-.53,.29-.85,.43-.32,.14-.68,.28-1.09,.41-.41,.13-.87,.26-1.38,.39-.81,.2-1.76,.4-2.74,.59-.94,.18-1.96,.37-2.9,.54l-1.56,.28c-.52,.09-.96,.18-1.36,.27-.4,.09-.74,.18-1.06,.28-.32,.1-.61,.21-.88,.35-.27,.13-.52,.29-.77,.47-.26,.19-.51,.41-.76,.66-.25,.25-.48,.52-.7,.8-.21,.28-.4,.57-.58,.88-.15,.26-.28,.53-.38,.81l-.03,.09c-.12,.32-.21,.65-.27,.98-.06,.34-.09,.67-.08,.99,0,.33,.04,.66,.11,.97,.07,.31,.17,.61,.3,.91,.13,.28,.29,.56,.47,.81,.19,.26,.41,.52,.64,.75,.24,.24,.51,.45,.79,.65,.29,.2,.59,.38,.91,.54,.31,.15,.63,.28,.99,.4s.76,.21,1.2,.28c.44,.07,.94,.13,1.51,.17,.58,.04,1.24,.06,1.98,.07,2.97,.03,7.48-.18,11.99-.39h.01c.05,0,.1-.03,.13-.06,.03-.03,.05-.08,.05-.14h0c0-.06-.03-.1-.06-.13-.04-.03-.09-.05-.14-.05h-.01Z"/>
      <path class="cls-1" d="M2.3,22.77c.18,.42,.39,.81,.64,1.14,.27,.35,.6,.64,1.02,.8,1.01,.4,2.71,.28,4.37,.17h0c.3-.02,.59-.04,.95-.06,.86-.05,1.69-.07,2.49-.08,.79,0,1.56,0,2.3,0h.75c1.65,.01,3.19,0,4.73-.02h.01s.04,0,.04,0c.2,0,.38,.08,.5,.21s.21,.31,.21,.5-.08,.38-.21,.5-.31,.21-.5,.21h-.22c-.7,0-1.4,.02-2.12,.02-.79,0-1.6,0-2.44,0h-.76c-1.44-.02-2.98-.03-4.69,.07l-.95,.06c-.89,.06-1.8,.12-2.65,.11-.87-.02-1.67-.11-2.33-.38-.68-.27-1.19-.69-1.59-1.2-.36-.46-.63-.98-.87-1.53-.26-.06-.48-.19-.65-.38-.21-.22-.33-.52-.33-.85,0-.34,.14-.66,.37-.89,.23-.23,.54-.37,.89-.37s.66,.14,.89,.37h0c.23,.23,.37,.54,.37,.89,0,.16-.03,.31-.08,.45-.03,.09-.07,.17-.13,.24h0Zm.2,1.48c-.32-.41-.56-.89-.77-1.4l-.07-.16,.12-.13c.05-.06,.1-.13,.13-.21,.03-.08,.05-.16,.05-.25,0-.19-.08-.37-.2-.49s-.3-.2-.49-.2-.37,.08-.49,.2-.2,.3-.2,.49,.07,.35,.18,.47c.11,.13,.28,.21,.46,.22h.17s.07,.17,.07,.17c.24,.56,.5,1.09,.85,1.54,.34,.44,.78,.8,1.36,1.03,.6,.24,1.33,.32,2.14,.34,.82,.01,1.72-.05,2.61-.11l.95-.06c1.71-.1,3.27-.09,4.73-.07h.76c.84,.01,1.65,0,2.44,0,.79,0,1.57-.01,2.34-.03h.02s.07-.02,.09-.05c.03-.03,.05-.07,.05-.11s-.02-.08-.05-.11c-.03-.03-.06-.04-.1-.05h-.02c-1.55,.02-3.11,.04-4.78,.03h-.76c-.74-.01-1.5-.02-2.29,0-.78,0-1.6,.03-2.46,.08-.32,.02-.63,.04-.95,.06h-.01c-1.72,.12-3.47,.24-4.61-.21-.53-.21-.93-.55-1.26-.98h0Zm-.12-.76c-.11-.2-.21-.41-.3-.62l-.05-.12,.07-.11s.04-.06,.05-.09c.02-.03,.03-.07,.05-.1,.02-.06,.04-.12,.05-.18,.01-.06,.02-.12,.02-.18,0-.14-.03-.27-.08-.38-.05-.12-.13-.24-.22-.33h0c-.09-.1-.2-.17-.32-.22-.12-.05-.25-.08-.38-.08s-.27,.03-.39,.08c-.12,.05-.22,.12-.31,.21h-.01c-.09,.11-.17,.22-.22,.34-.05,.12-.08,.25-.08,.38,0,.13,.03,.26,.07,.37,.05,.12,.11,.23,.2,.32,.07,.07,.15,.14,.24,.19s.18,.09,.28,.11l.12,.03,.05,.11c.11,.27,.24,.53,.38,.78,.13,.24,.29,.48,.46,.7,.19,.24,.4,.46,.65,.64s.52,.35,.84,.48c.31,.12,.66,.21,1.04,.27,.38,.06,.79,.09,1.21,.09s.85,0,1.3-.03c.43-.02,.88-.05,1.34-.08l.95-.06c1.67-.1,3.18-.09,4.6-.08h.87s1.24,0,1.24,0h1.2c.78-.01,1.56-.03,2.35-.03,.06,0,.13-.01,.18-.03,.06-.02,.11-.06,.15-.1l.02-.02s.06-.08,.08-.13c.02-.05,.03-.12,.03-.18s-.01-.12-.03-.18c-.02-.06-.06-.11-.1-.15h0s-.09-.08-.15-.1c-.05-.02-.11-.03-.18-.03h-.05c-.77,.01-1.54,.02-2.32,.03-.79,0-1.58,0-2.41,0h-1.88c-.38-.01-.77-.01-1.17,0s-.8,.01-1.22,.02c-.41,.01-.83,.03-1.26,.05-.31,.02-.59,.04-.87,.06h-.1c-1.69,.12-3.4,.24-4.47-.18-.24-.09-.44-.22-.63-.37-.18-.15-.35-.32-.49-.51-.13-.17-.26-.36-.37-.57h0Zm-.09-.03c.12,.23,.26,.44,.4,.63,.15,.2,.32,.38,.51,.53,.19,.15,.4,.28,.64,.38,1.08,.43,2.81,.31,4.5,.19h.11c.28-.03,.55-.05,.86-.06,.42-.03,.85-.04,1.27-.05,.41-.01,.81-.02,1.21-.02,.78,0,1.53,0,2.25,0h.79c.84,.01,1.64,0,2.43,0,.79,0,1.56-.01,2.34-.03h.04s.09,.02,.14,.03h.02s.03,0,.03,0l.07,.07s.07,.08,.09,.13h0s.03,.1,.03,.15v.05s.05,.06,.05,.06l-.17,.17s-.07,.06-.11,.08c-.04,.02-.08,.03-.13,.04-.08,0-.17,0-.26,0-.71,0-1.41,.02-2.13,.02h-1.2c-.41,0-.82,0-1.24,0-.27,0-.53,0-.8,0-.72,0-1.46-.01-2.23,0-.78,0-1.59,.03-2.45,.08-.3,.02-.66,.06-.95,.06-.89,.06-1.79,.12-2.62,.11-.42,0-.81-.03-1.18-.09-.38-.05-.73-.14-1.04-.27-.31-.12-.59-.28-.83-.47-.24-.19-.45-.4-.63-.63-.19-.24-.35-.49-.5-.77-.14-.26-.27-.54-.39-.83v-.02s-.03,0-.03,0c-.12,0-.23-.04-.34-.09-.11-.05-.2-.12-.28-.21-.08-.09-.14-.19-.18-.3-.04-.11-.07-.22-.07-.34,0-.13,.03-.25,.07-.36,.05-.11,.12-.22,.2-.31l.17-.17,.02,.02s.07-.04,.11-.05c.11-.05,.23-.07,.36-.07s.25,.03,.36,.07c.11,.05,.22,.12,.31,.2,.09,.09,.16,.19,.2,.31,.05,.11,.07,.23,.07,.36,0,.05,0,.11-.02,.17-.01,.06-.03,.11-.05,.16-.02,.05-.05,.1-.07,.15-.03,.05-.06,.09-.1,.14v.02s0,.02,0,.02c.11,.25,.22,.49,.34,.72h0Z"/>
      <path class="cls-1" d="M39.16,20.35c-.24-.01-.42-.21-.41-.45,.01-.24,.21-.42,.45-.41,4.51,.21,9.02,.42,11.97,.39,1.46-.01,2.54-.09,3.39-.23,.83-.14,1.45-.34,2.02-.62,.58-.28,1.11-.65,1.54-1.08,.42-.4,.75-.87,.98-1.37,.23-.51,.35-1.06,.36-1.63,.01-.58-.09-1.17-.31-1.75h0c-.21-.57-.53-1.12-.9-1.61-.4-.52-.86-.99-1.33-1.33-.44-.33-.89-.55-1.47-.73-.6-.19-1.34-.34-2.34-.53-.52-.1-1.03-.19-1.56-.28-1.86-.34-4.06-.73-5.68-1.13-1.07-.27-1.9-.54-2.57-.83-.69-.3-1.22-.62-1.69-.99-.46-.36-.86-.76-1.2-1.2-.36-.45-.65-.94-.89-1.46-.16-.36-.31-.74-.44-1.08v-.03c-.09,.43-.17,.99-.23,1.56-.03,.27-.05,.48-.07,.68-.1,1.11-.2,2.22-.57,3.03-.24,.53-.58,.92-1,1.23-.4,.3-.88,.51-1.42,.71-.51,.19-1.07,.35-1.6,.51-.54,.16-1.05,.31-1.43,.46-.67,.26-.9,.53-1.13,.79l-.02,.02c-.17,.17-.44,.17-.62,0-.17-.17-.17-.44,0-.61,.3-.34,.6-.67,1.44-1.01,.4-.16,.94-.32,1.5-.48,.52-.15,1.07-.32,1.55-.49,.47-.17,.88-.36,1.21-.6,.31-.23,.55-.51,.72-.89,.31-.68,.4-1.72,.5-2.75,.02-.25,.05-.5,.07-.69,.07-.71,.17-1.39,.28-1.89,.13-.56,.32-.95,.6-1.03,.53-.15,.74,.41,1.02,1.17,.11,.31,.24,.66,.41,1.01,.21,.46,.48,.89,.79,1.29,.3,.38,.65,.73,1.05,1.05,.41,.32,.88,.61,1.5,.88,.63,.28,1.41,.53,2.44,.78,1.61,.4,3.79,.79,5.62,1.12,.59,.11,1.14,.21,1.56,.28,1.03,.19,1.8,.35,2.45,.56,.67,.21,1.2,.47,1.72,.86,.53,.39,1.05,.91,1.5,1.5,.43,.56,.79,1.19,1.03,1.83h0c.25,.68,.37,1.38,.36,2.06-.01,.69-.16,1.36-.44,1.97-.28,.6-.68,1.15-1.17,1.63-.5,.49-1.11,.91-1.77,1.23-.64,.32-1.34,.54-2.27,.7-.9,.15-2.02,.22-3.53,.24-2.99,.03-7.5-.18-12.02-.39h.01Zm-.12-.31s.08,.06,.13,.06h0c4.51,.21,9.02,.42,12,.39,.75,0,1.4-.03,1.98-.07,.57-.04,1.07-.09,1.51-.17,.45-.07,.85-.17,1.21-.28,.36-.11,.68-.24,.99-.4,.32-.16,.63-.34,.91-.54,.28-.2,.55-.42,.79-.65,.24-.23,.46-.48,.64-.75,.18-.26,.34-.53,.47-.81,.13-.29,.23-.6,.3-.91,.07-.32,.11-.64,.11-.97,0-.32-.02-.66-.08-.99-.06-.33-.15-.66-.27-.98l-.05-.14c-.1-.25-.22-.5-.36-.75-.17-.31-.37-.6-.58-.88-.22-.28-.45-.55-.7-.8-.25-.25-.5-.47-.76-.66-.25-.18-.5-.34-.77-.47-.27-.13-.56-.25-.88-.35-.32-.1-.66-.19-1.06-.28s-.85-.17-1.36-.27l-1.56-.28c-1.85-.33-4.03-.73-5.64-1.12-.52-.13-.97-.26-1.38-.39-.41-.13-.77-.27-1.09-.41-.32-.14-.6-.28-.85-.43-.26-.15-.48-.31-.7-.48-.21-.16-.4-.33-.58-.51-.19-.19-.36-.38-.51-.58-.16-.2-.31-.42-.44-.64-.14-.23-.26-.46-.38-.7-.17-.36-.3-.72-.42-1.03h0c-.24-.64-.42-1.11-.73-1.02-.07,.02-.14,.09-.2,.21-.09,.16-.17,.38-.23,.64-.05,.23-.1,.5-.15,.81-.05,.33-.09,.69-.13,1.05-.02,.2-.04,.42-.06,.64v.05c-.05,.52-.1,1.04-.17,1.52-.08,.49-.18,.94-.34,1.3-.09,.21-.21,.4-.34,.56-.13,.16-.29,.3-.46,.43-.18,.13-.37,.24-.59,.35-.21,.1-.44,.19-.68,.28-.25,.09-.51,.18-.77,.26-.25,.08-.52,.16-.8,.24h0c-.56,.17-1.09,.32-1.48,.48-.4,.16-.67,.31-.87,.47s-.34,.31-.48,.47l-.03,.03s-.04,.07-.04,.11c0,.05,.02,.1,.05,.13,.04,.04,.09,.06,.13,.06,.05,0,.09-.02,.13-.05l.02-.02c.25-.28,.5-.57,1.22-.85,.2-.08,.43-.15,.67-.24,.22-.07,.49-.15,.78-.24,.26-.07,.52-.15,.81-.24,.27-.09,.54-.17,.78-.26,.26-.1,.51-.2,.74-.31,.22-.11,.43-.23,.62-.37,.2-.14,.37-.31,.53-.49s.29-.4,.4-.64c.17-.38,.28-.85,.36-1.34,.08-.51,.13-1.06,.18-1.61l.07-.68c.03-.3,.07-.59,.1-.87,.04-.26,.07-.51,.11-.72l.06-.3v-.03s-.01-.06-.02-.08c-.05-.18-.08-.29,.11-.36l.04-.21,.05,.18c.2-.05,.3,.02,.35,.18,.03,.11,0,.19-.05,.3l-.09,.22s.02,.07,.03,.09c.12,.33,.26,.71,.42,1.05,.12,.26,.25,.5,.4,.74,.14,.23,.3,.46,.47,.67,.17,.21,.35,.42,.54,.61,.19,.19,.4,.37,.62,.54,.23,.18,.47,.34,.73,.5,.27,.16,.56,.31,.9,.46,.33,.14,.7,.28,1.11,.42,.42,.13,.89,.27,1.42,.4,.8,.2,1.75,.4,2.73,.59,1.02,.2,2.02,.38,2.93,.54h.03c.54,.1,1.05,.19,1.54,.28,.5,.09,.94,.18,1.33,.27,.39,.09,.73,.17,1.04,.27,.3,.09,.57,.2,.82,.32,.25,.13,.49,.27,.72,.44,.24,.18,.49,.39,.72,.62,.23,.23,.45,.48,.66,.75,.2,.26,.38,.54,.54,.82,.13,.23,.24,.46,.34,.69h0l.06,.16c.11,.3,.19,.61,.25,.91,.05,.31,.08,.62,.07,.92,0,.3-.04,.6-.1,.89s-.16,.57-.28,.84c-.12,.26-.27,.52-.44,.75-.18,.24-.38,.48-.6,.69-.23,.22-.48,.43-.75,.61-.27,.19-.56,.36-.86,.51-.3,.15-.61,.27-.95,.38s-.71,.19-1.14,.26c-.44,.07-.93,.13-1.5,.16-.56,.04-1.2,.06-1.94,.07-2.95,.03-7.45-.18-11.95-.39h-.03c-.05,0-.1,.02-.14,.05-.03,.03-.06,.07-.06,.12h0c0,.06,.02,.11,.05,.15h-.02Z"/>
      <path class="cls-1" d="M24.26,4.48c-.22,.08-.46-.03-.55-.25-.09-.22,.02-.48,.24-.56h.01c1.81-.68,3.63-1.35,5.61-1.52,.83-.07,1.69-.05,2.48,.01,1.09,.09,2.08,.26,2.76,.41,.6,.13,.97,.24,1.22,.34,.28,.11,.41,.21,.55,.31,.19,.14,.24,.41,.1,.6-.14,.19-.41,.24-.6,.1-.09-.07-.19-.13-.37-.21-.21-.09-.53-.18-1.07-.3-.65-.14-1.6-.31-2.64-.39-.75-.06-1.56-.08-2.34-.01-1.86,.16-3.62,.81-5.38,1.46h0Zm-.23-.23s.09,.02,.14,0l.2-.07c.81-.3,1.63-.6,2.46-.85,.91-.27,1.83-.48,2.77-.56,.37-.03,.75-.05,1.14-.04,.43,0,.85,.02,1.24,.05,.47,.04,.92,.09,1.34,.15,.52,.08,.98,.17,1.34,.24,.28,.06,.5,.11,.68,.17,.18,.05,.33,.1,.44,.15,.11,.04,.19,.08,.25,.12,.06,.04,.11,.07,.16,.11h0s.09,.05,.14,.04c.04,0,.09-.03,.11-.07v-.02s.02-.01,.02-.01c.02-.04,.03-.08,.02-.13,0-.05-.03-.09-.08-.12-.07-.05-.13-.09-.21-.14-.08-.05-.17-.09-.3-.14-.12-.05-.26-.1-.45-.15-.19-.05-.43-.11-.72-.18-.37-.08-.84-.17-1.37-.25-.42-.06-.88-.12-1.36-.16-.42-.03-.85-.05-1.28-.06-.38,0-.77,.01-1.17,.05-1.94,.17-3.74,.83-5.54,1.5h-.01s-.08,.06-.1,.11c-.02,.05-.02,.1,0,.15,.02,.05,.06,.09,.1,.1h0Z"/>
      <path class="cls-1" d="M25.36,19.31c.19-.1,.44-.09,.65-.06,.26,.04,.53,.13,.78,.22,.34,.13,.66,.3,.98,.47l.22,.11c.11,.05,.22,.11,.33,.16,.15,.07,.3,.14,.44,.23,.11,.07,.21,.15,.28,.28,.07,.12,.09,.24,.1,.38,0,.13,0,.26,0,.38-.01,.13-.03,.27-.05,.4-.02,.11-.05,.22-.11,.32-.09,.15-.24,.24-.42,.22-.1-.01-.17-.05-.26-.11-.03-.02-.06-.04-.1-.05-.07-.02-.18-.03-.25-.04-.13-.01-.25-.03-.38-.05-.23-.03-.46-.08-.68-.14-.26-.07-.52-.17-.75-.31-.22-.13-.42-.3-.58-.49s-.31-.42-.4-.66c-.09-.21-.15-.46-.13-.68,.02-.25,.13-.46,.36-.57h0Zm.32,.61v.02c-.01,.11,.04,.26,.08,.37,.07,.17,.17,.33,.29,.48,.12,.14,.26,.26,.41,.35,.18,.11,.39,.18,.59,.24,.19,.05,.39,.09,.59,.12,.12,.02,.23,.03,.35,.05,.13,.01,.27,.03,.4,.07h.02c0-.06,.01-.12,.02-.18,0-.09,.01-.19,0-.29,0-.02,0-.06,0-.08,0,0-.04-.03-.05-.04-.11-.07-.25-.13-.37-.19-.11-.05-.23-.11-.34-.17l-.22-.12c-.3-.16-.6-.31-.92-.44-.2-.08-.42-.15-.63-.18-.04,0-.16-.02-.22,0h0Zm.01-.45c-.08,0-.16,.02-.22,.05-.07,.03-.12,.08-.16,.14-.04,.07-.07,.15-.07,.24,0,.08,0,.17,.02,.26,.02,.11,.06,.22,.1,.32,.04,.11,.1,.21,.16,.31,.06,.1,.13,.19,.21,.28s.16,.17,.25,.25c.09,.07,.18,.14,.28,.2,.1,.06,.21,.11,.33,.16,.12,.05,.24,.09,.36,.12,.11,.03,.21,.06,.32,.08,.1,.02,.21,.04,.33,.06,.14,.02,.27,.04,.41,.05,.08,0,.18,.02,.26,.05h0c.05,.02,.1,.05,.14,.07h.01s.06,.05,.09,.06c.02,0,.04,.01,.06,.02,.04,0,.07,0,.1-.01,.03-.02,.06-.05,.09-.09,.02-.03,.03-.07,.05-.1,.01-.04,.03-.09,.03-.13,.01-.06,.02-.12,.03-.18,0-.05,.01-.12,.02-.19,0-.07,0-.13,.01-.18,0-.06,0-.11,0-.17,0-.05,0-.11-.02-.15-.01-.04-.03-.08-.05-.12-.02-.04-.05-.07-.08-.1-.03-.03-.07-.06-.11-.09-.11-.07-.24-.13-.36-.19l-.39-.19-.22-.11c-.16-.09-.32-.17-.48-.24-.16-.08-.32-.15-.48-.21-.12-.05-.24-.09-.36-.13-.12-.03-.24-.07-.36-.08-.09-.01-.19-.02-.28-.02h0Zm-.25,.43l.03-.19,.17-.03s.09,0,.15,0c.07,0,.13,.01,.16,.01,.11,.02,.24,.05,.36,.08,.12,.03,.23,.07,.33,.11,.16,.06,.32,.14,.48,.21,.15,.07,.3,.15,.46,.24l.39,.2,.24,.11c.11,.05,.22,.11,.32,.17l.05,.03s.04,.03,.06,.05l.03,.03v.04s.04,.11,.04,.15h0c0,.06,0,.12,0,.17,0,.06,0,.11,0,.16-.03,.09-.05,.41-.06,.5l-.29-.11c-.09-.03-.21-.04-.32-.05l-.21-.02-.18-.03c-.1-.01-.2-.03-.31-.05-.11-.02-.21-.05-.31-.07-.11-.03-.21-.07-.33-.11-.11-.04-.22-.09-.32-.15-.09-.05-.17-.11-.25-.18-.08-.07-.15-.14-.22-.22-.07-.08-.13-.17-.19-.26-.06-.09-.11-.19-.14-.28-.03-.07-.06-.15-.08-.25-.02-.08-.03-.16-.02-.24h0s0-.02,0-.02Z"/>
      <path class="cls-1" d="M20.17,31.48c.34,0,.66,.14,.89,.37h0c.23,.23,.37,.54,.37,.89s-.14,.66-.37,.89c-.23,.23-.54,.37-.89,.37-.13,0-.26-.02-.38-.06-.07-.02-.13-.05-.19-.08-.68,.35-1.36,.69-2.05,.97-.74,.3-1.48,.54-2.24,.66-.45,.07-.89,.1-1.34,.09s-.88-.04-1.31-.1c-.28-.04-.56-.08-.83-.13-.23-.04-.45-.09-.66-.13-.09,.08-.2,.15-.31,.21-.16,.08-.34,.12-.54,.12-.35,0-.66-.14-.89-.37s-.37-.54-.37-.89,.14-.66,.37-.89c.23-.23,.54-.37,.89-.37,.29,0,.56,.1,.77,.27,.17,.13,.31,.31,.39,.52,.21,.05,.42,.09,.61,.12,.25,.05,.5,.09,.75,.12,.38,.05,.75,.08,1.13,.09,.37,0,.74-.02,1.11-.07,.64-.1,1.29-.31,1.95-.58,.62-.26,1.25-.57,1.89-.9,.03-.29,.16-.54,.36-.74,.23-.23,.54-.37,.89-.37h0Zm.49,.76c-.13-.13-.3-.2-.49-.2s-.37,.08-.49,.2-.2,.3-.2,.49c0,.07,0,.13,0,.19l-.15,.08c-.69,.36-1.38,.71-2.08,.99-.7,.29-1.39,.51-2.07,.62-.4,.06-.81,.09-1.21,.08-.4,0-.8-.04-1.19-.09-.26-.03-.52-.08-.78-.13-.28-.05-.53-.11-.78-.16l-.17-.04-.04-.17c-.04-.15-.13-.29-.25-.38-.12-.09-.27-.15-.43-.15-.19,0-.37,.08-.49,.2-.13,.13-.2,.3-.2,.49s.08,.37,.2,.49,.3,.2,.49,.2c.11,0,.21-.02,.3-.07,.09-.04,.17-.11,.24-.19l.11-.13,.17,.04c.28,.06,.54,.12,.79,.16,.27,.05,.53,.09,.8,.13,.41,.05,.83,.09,1.24,.09,.41,0,.83-.02,1.24-.09,.7-.11,1.41-.33,2.11-.62,.71-.29,1.42-.65,2.14-1.02l.15-.08,.14,.1c.06,.04,.12,.07,.19,.1,.07,.02,.14,.03,.21,.03,.19,0,.37-.08,.49-.2s.2-.3,.2-.49-.08-.37-.2-.49h0Zm-.11-.44c-.12-.05-.25-.08-.38-.08s-.27,.03-.39,.07c-.11,.04-.2,.11-.29,.18l-.04,.04c-.08,.08-.15,.17-.19,.28s-.08,.21-.09,.32v.13s-.13,.06-.13,.06c-.32,.17-.64,.33-.96,.48-.32,.15-.63,.3-.95,.43-.34,.14-.67,.26-1.01,.36-.34,.1-.67,.18-1,.23-.19,.03-.39,.05-.58,.06-.19,.01-.38,.02-.58,.01-.2,0-.39-.01-.58-.03-.19-.01-.38-.04-.58-.06-.13-.02-.26-.04-.38-.06-.13-.02-.26-.04-.38-.07l-.29-.06-.44-.09-.05-.12c-.03-.08-.08-.16-.13-.23-.05-.07-.11-.13-.18-.19-.09-.07-.19-.13-.29-.16-.1-.03-.21-.05-.33-.05-.14,0-.27,.03-.39,.08-.11,.04-.21,.11-.29,.18l-.04,.04c-.09,.09-.17,.21-.22,.33-.05,.12-.08,.25-.08,.38s.03,.27,.08,.39c.05,.12,.13,.24,.22,.33,.09,.09,.2,.17,.33,.22,.12,.05,.25,.08,.39,.08,.08,0,.15,0,.22-.02,.07-.02,.14-.04,.21-.07,.05-.02,.09-.05,.13-.07,.05-.03,.09-.06,.12-.09l.09-.08,.44,.09,.33,.06c.13,.03,.27,.05,.4,.07,.13,.02,.27,.04,.41,.06,.21,.03,.42,.05,.64,.07,.22,.02,.44,.03,.64,.03,.21,0,.43,0,.65-.02,.22-.01,.44-.04,.65-.07,.36-.06,.72-.14,1.09-.25,.36-.11,.73-.24,1.09-.39,.34-.14,.68-.29,1.02-.45,.34-.16,.67-.33,1.01-.51l.11-.06,.11,.06,.08,.04,.08,.03c.05,.02,.1,.03,.15,.04,.05,0,.1,.01,.15,.01,.14,0,.27-.03,.38-.08,.12-.05,.24-.13,.33-.22l.04-.04c.07-.08,.14-.18,.18-.29,.05-.12,.08-.25,.08-.39s-.03-.27-.08-.38c-.05-.12-.13-.24-.22-.33h0c-.09-.09-.21-.17-.33-.22h0Zm-.03,.07c.11,.05,.22,.12,.31,.2,.09,.09,.16,.19,.2,.31,.05,.11,.07,.23,.07,.36s-.03,.25-.07,.36c-.02,.04-.03,.07-.05,.11l.02,.02-.17,.17c-.09,.09-.19,.15-.31,.2-.11,.05-.23,.07-.36,.07-.05,0-.09,0-.15-.01-.05,0-.09-.02-.14-.03-.05-.01-.09-.03-.13-.05-.04-.02-.08-.05-.12-.08h-.02s-.02,0-.02,0c-.36,.19-.72,.37-1.08,.55-.36,.17-.73,.34-1.08,.48-.36,.15-.72,.28-1.08,.38-.36,.11-.72,.19-1.09,.25-.22,.03-.43,.06-.64,.07-.21,.01-.42,.02-.64,.02-.22,0-.43-.01-.64-.03-.21-.02-.42-.04-.63-.07-.26-.03-.52-.08-.78-.13l-.42-.08-.43-.09v.02c-.06,.05-.11,.1-.16,.15s-.11,.08-.18,.11c-.06,.03-.13,.05-.19,.07s-.14,.02-.21,.02c-.26,0-.5-.11-.66-.28-.09-.09-.15-.19-.2-.3-.05-.11-.07-.24-.07-.36s.03-.25,.07-.36c.05-.11,.12-.22,.2-.3l.19-.19,.03,.03s.06-.03,.09-.04c.11-.05,.24-.07,.36-.07,.11,0,.21,.02,.31,.05,.1,.03,.19,.09,.28,.15,.08,.06,.15,.14,.21,.23s.1,.18,.12,.29v.02s.4,.09,.4,.09l.4,.08c.13,.02,.26,.05,.38,.07,.13,.02,.26,.04,.38,.06,.19,.03,.38,.05,.58,.06,.2,.02,.4,.03,.58,.03,.19,0,.39,0,.58-.01,.19-.01,.39-.03,.58-.06,.33-.05,.66-.13,1-.23,.34-.1,.68-.23,1.02-.37,.34-.14,.68-.3,1.02-.46,.34-.17,.68-.34,1.03-.52h.02s0-.3,0-.3h.04s.02-.08,.04-.11c.05-.11,.12-.22,.2-.3l.17-.17,.02,.02s.07-.04,.11-.05c.11-.05,.24-.07,.36-.07s.25,.03,.36,.07h0Z"/>
      <path class="cls-1" d="M1.08,42.32c.54,0,.97,.44,.97,.97s-.44,.97-.97,.97-.97-.44-.97-.97,.44-.97,.97-.97Zm.52,.46c-.13-.13-.32-.21-.52-.21s-.38,.08-.52,.21c-.13,.13-.21,.32-.21,.52s.08,.38,.21,.52c.13,.13,.32,.21,.52,.21s.39-.08,.52-.21c.13-.13,.21-.32,.21-.52s-.08-.38-.21-.52Z"/>
      <path class="cls-1" d="M13.71,45.26c.54,0,.97,.44,.97,.97s-.44,.97-.97,.97-.97-.44-.97-.97,.44-.97,.97-.97Zm.52,.46c-.13-.13-.32-.21-.52-.21s-.39,.08-.52,.21c-.13,.13-.21,.32-.21,.52s.08,.38,.21,.52c.13,.13,.32,.21,.52,.21s.39-.08,.52-.21c.13-.13,.21-.32,.21-.52s-.08-.38-.21-.52h0Z"/>
      <path class="cls-1" d="M21.97,23.2c.54,0,.97,.44,.97,.97s-.44,.97-.97,.97-.97-.44-.97-.97,.44-.97,.97-.97Zm.52,.46c-.13-.13-.32-.21-.52-.21s-.39,.08-.52,.21-.21,.32-.21,.52,.08,.39,.21,.52,.32,.21,.52,.21,.38-.08,.52-.21c.13-.13,.21-.32,.21-.52s-.08-.39-.21-.52h0Z"/>
      <path class="cls-1" d="M21.62,47.65c.54,0,.97,.44,.97,.97s-.44,.97-.97,.97-.97-.44-.97-.97,.44-.97,.97-.97Zm.52,.46c-.13-.13-.32-.21-.52-.21s-.38,.08-.52,.21c-.13,.13-.21,.32-.21,.52s.08,.38,.21,.52c.13,.13,.32,.21,.52,.21s.38-.08,.52-.21c.13-.13,.21-.32,.21-.52s-.08-.38-.21-.52Z"/>
      <path class="cls-1" d="M37.03,27.34c.54,0,.97,.44,.97,.97s-.44,.97-.97,.97-.97-.44-.97-.97,.44-.97,.97-.97Zm.52,.46c-.13-.13-.32-.21-.52-.21s-.38,.08-.52,.21c-.13,.13-.21,.32-.21,.52s.08,.38,.21,.52,.32,.21,.52,.21,.38-.08,.52-.21c.13-.13,.21-.32,.21-.52s-.08-.39-.21-.52Z"/>
      <path class="cls-1" d="M47.78,34.92c-.1,.16-.23,.29-.38,.39-.2,.13-.43,.21-.69,.21-.34,0-.66-.14-.89-.37-.23-.23-.37-.54-.37-.89s.14-.66,.37-.89,.54-.37,.89-.37c.23,0,.44,.06,.63,.17,.14,.08,.26,.19,.36,.32,.7-.03,1.38-.06,2.04-.06,.71,0,1.37,.03,1.96,.1,.37,.05,.71,.11,1.03,.2,.32,.09,.61,.19,.89,.32,.28,.13,.54,.28,.78,.45s.46,.36,.67,.56c.19,.19,.37,.4,.54,.62l.09,.13c-.07-.24-.15-.47-.24-.68-.11-.27-.23-.53-.36-.77-.13-.24-.28-.47-.42-.68-.15-.21-.3-.41-.47-.6-.16-.18-.33-.36-.51-.52-.18-.16-.37-.32-.58-.46-.21-.15-.44-.28-.69-.41-.26-.13-.54-.25-.84-.36-.51-.18-1.1-.35-1.72-.5-.62-.15-1.29-.29-1.95-.43h0c-.28-.06-.55-.12-1.06-.23-.4-.09-.79-.18-1.16-.28s-.73-.2-1.08-.31c-.36-.11-.71-.24-1.03-.37-.33-.14-.66-.29-.98-.46-.32-.17-.62-.35-.92-.54-.3-.2-.6-.41-.88-.64-.28-.23-.55-.46-.81-.71-.25-.24-.48-.49-.69-.75-.21-.26-.4-.5-.56-.75-.16-.25-.31-.5-.43-.74-.12-.24-.23-.48-.32-.72-.09-.24-.18-.48-.25-.71-.07-.24-.14-.46-.19-.67-.05-.21-.11-.43-.16-.65-.1-.44-.17-.85-.25-1.25h0c-.03-.2,.01-.39,.11-.54,.1-.15,.26-.26,.46-.3,.19-.03,.38,.01,.53,.11,.15,.1,.26,.26,.3,.46l.11,.61c.04,.21,.08,.42,.12,.6,.04,.19,.09,.4,.14,.6,.05,.2,.11,.4,.17,.6,.06,.2,.13,.4,.21,.6,.08,.2,.17,.4,.28,.62,.11,.21,.22,.41,.36,.62,.13,.21,.28,.41,.45,.61,.17,.21,.37,.42,.59,.63,.21,.21,.45,.42,.7,.62,.25,.2,.51,.39,.77,.56,.26,.17,.52,.33,.8,.47,.29,.15,.57,.28,.86,.4,.3,.12,.6,.23,.91,.33,.32,.1,.66,.2,1.01,.29s.72,.18,1.11,.26l1.05,.22c.66,.14,1.34,.28,2,.45,.66,.16,1.3,.34,1.85,.54,.37,.13,.71,.28,1.01,.44,.31,.16,.59,.33,.85,.5,.26,.18,.5,.37,.72,.58,.22,.2,.43,.42,.62,.64,.2,.23,.39,.46,.56,.71,.18,.26,.35,.52,.51,.81,.16,.28,.3,.59,.44,.92,.13,.32,.25,.67,.35,1.04,.11,.4,.2,.82,.28,1.25,.08,.42,.15,.85,.22,1.28,.05,.33,.11,.66,.16,.95,.05,.29,.11,.57,.17,.83,.07,.26,.14,.48,.21,.68,.07,.19,.16,.36,.24,.5,.08,.13,.17,.26,.25,.36,.09,.1,.18,.19,.27,.28,.21,.19,.43,.34,.59,.45,.18,.13,.33,.23,.44,.36,.13,.17,.19,.35,.13,.59v.04s-.03,.08-.05,.12c-.06,.14-.24,.31-.37,.37-.12,.05-.25,.08-.4,.07-.05,0-.1,0-.16-.02-.06,0-.11-.02-.17-.03-.15-.04-.34-.1-.53-.19-.17-.08-.34-.17-.52-.29-.18-.12-.36-.26-.53-.42-.17-.15-.33-.32-.48-.51-.15-.18-.28-.37-.41-.57-.12-.19-.22-.4-.31-.6-.1-.24-.18-.49-.24-.75-.07-.26-.12-.5-.17-.76-.04-.18-.08-.36-.13-.58-.05-.2-.1-.39-.16-.58-.07-.22-.16-.45-.26-.68-.1-.22-.21-.44-.34-.65-.11-.19-.24-.39-.38-.57-.13-.17-.27-.33-.42-.48-.15-.15-.31-.29-.48-.41-.17-.12-.36-.23-.55-.32-.2-.09-.43-.17-.68-.24-.26-.07-.53-.12-.82-.16-.53-.07-1.14-.09-1.8-.09-.61,0-1.27,.03-1.95,.06h0Zm-.71-1.26c-.1-.06-.22-.09-.35-.09-.19,0-.37,.08-.49,.2s-.2,.3-.2,.49,.08,.37,.2,.49,.3,.2,.49,.2c.14,0,.27-.04,.38-.11,.11-.07,.2-.18,.26-.31l.07-.16h.17c.73-.05,1.45-.07,2.13-.07,.68,0,1.32,.02,1.87,.09,.33,.04,.62,.1,.89,.17,.28,.07,.53,.17,.77,.27,.23,.11,.44,.23,.64,.37,.2,.14,.38,.3,.56,.47,.16,.17,.32,.35,.47,.54,.15,.2,.29,.41,.42,.63,.13,.23,.26,.47,.36,.71,.11,.24,.2,.49,.28,.74,.07,.21,.12,.42,.17,.62,.04,.18,.09,.39,.13,.6,.05,.26,.11,.5,.17,.74,.06,.23,.13,.45,.22,.67,.08,.19,.17,.36,.27,.53,.11,.18,.23,.35,.36,.5,.13,.16,.28,.32,.43,.45,.15,.14,.31,.26,.46,.36,.15,.1,.3,.18,.44,.25,.16,.07,.32,.13,.44,.16,.05,.01,.09,.02,.12,.03,.04,0,.07,0,.1,0,.06,0,.11,0,.15-.02,.03-.01,.05-.03,.07-.06,.01-.02,.02-.03,.03-.05,.02-.07,0-.11-.02-.15-.06-.07-.17-.15-.32-.25-.17-.12-.42-.29-.65-.49-.11-.1-.22-.21-.33-.34s-.21-.27-.31-.43c-.1-.17-.19-.36-.28-.58-.09-.22-.17-.46-.24-.75-.07-.26-.12-.55-.18-.87-.06-.32-.11-.63-.16-.96-.07-.41-.13-.83-.21-1.26-.08-.42-.17-.82-.27-1.2-.1-.35-.21-.68-.33-.99-.12-.3-.26-.59-.41-.86-.15-.27-.31-.52-.47-.75-.17-.24-.34-.46-.53-.67-.18-.21-.38-.41-.58-.6-.2-.19-.42-.36-.66-.53-.24-.17-.5-.32-.78-.47-.29-.15-.6-.28-.95-.41-.54-.19-1.15-.37-1.79-.52-.64-.15-1.32-.3-1.99-.44l-1.05-.23c-.39-.09-.77-.17-1.13-.27s-.71-.19-1.04-.3c-.33-.1-.64-.22-.96-.34-.32-.13-.62-.27-.91-.42-.28-.15-.57-.32-.85-.5-.28-.19-.56-.39-.81-.59-.26-.21-.51-.43-.74-.65-.23-.22-.44-.45-.63-.68-.19-.22-.35-.44-.49-.66-.15-.23-.28-.45-.39-.66s-.21-.44-.3-.66c-.09-.21-.16-.43-.23-.64-.07-.21-.13-.43-.18-.63-.05-.2-.1-.41-.15-.62-.05-.22-.09-.42-.13-.61l-.11-.61s-.03-.08-.07-.1c-.03-.02-.07-.03-.12-.03-.04,0-.08,.03-.1,.07-.02,.03-.03,.07-.03,.11h0c.07,.41,.15,.82,.24,1.24,.05,.2,.09,.41,.15,.63,.06,.22,.12,.44,.19,.65,.07,.22,.15,.45,.24,.67,.09,.22,.19,.44,.3,.67,.12,.23,.25,.46,.4,.69,.15,.24,.33,.47,.52,.7,.19,.24,.42,.47,.66,.7,.24,.23,.49,.46,.77,.67,.27,.21,.54,.42,.84,.61,.28,.19,.58,.36,.87,.52,.3,.16,.61,.3,.93,.43,.33,.13,.66,.25,.99,.36,.34,.11,.69,.21,1.05,.3,.36,.09,.75,.18,1.14,.27,.37,.08,.71,.15,1.05,.23h0c.64,.14,1.31,.28,1.96,.44,.64,.15,1.26,.33,1.78,.52,.33,.12,.63,.25,.9,.39,.28,.14,.52,.29,.75,.45,.23,.16,.44,.33,.64,.51,.19,.18,.38,.37,.55,.57,.17,.2,.34,.41,.5,.64,.16,.23,.32,.47,.46,.73,.14,.26,.27,.53,.39,.83,.12,.29,.23,.61,.32,.94,.07,.27,.14,.55,.2,.84,.06,.3,.11,.59,.16,.88l.44,2.6-.97-2.45c-.07-.17-.15-.35-.24-.53-.09-.18-.18-.35-.27-.51-.14-.24-.29-.46-.45-.67-.15-.2-.31-.38-.49-.56-.19-.19-.38-.36-.6-.5-.21-.15-.44-.28-.69-.4-.24-.11-.51-.21-.8-.29-.3-.08-.61-.14-.95-.18-.56-.07-1.21-.1-1.89-.09-.68,0-1.42,.03-2.17,.07h-.17s-.08-.14-.08-.14c-.06-.11-.15-.2-.26-.26h.01Zm-.09-.37c-.08-.02-.17-.03-.26-.03-.14,0-.27,.03-.38,.07-.12,.05-.24,.13-.33,.22h0c-.09,.09-.17,.2-.22,.33-.05,.12-.08,.25-.08,.38s.03,.27,.08,.39c.05,.12,.13,.24,.22,.33,.09,.09,.21,.17,.33,.22,.12,.05,.25,.08,.38,.08,.1,0,.2-.01,.29-.04,.09-.03,.18-.07,.26-.12,.06-.04,.12-.09,.17-.14s.1-.11,.13-.17l.07-.11h.13c.33-.02,.67-.04,1-.05,.33-.01,.64-.02,.96-.02,.34,0,.66,0,.96,.02,.31,.01,.6,.04,.87,.07,.16,.02,.31,.04,.44,.07,.14,.03,.28,.06,.41,.09s.26,.07,.37,.11,.23,.09,.34,.14c.11,.05,.21,.1,.31,.16,.1,.06,.19,.12,.28,.18,.09,.06,.18,.13,.26,.21,.09,.08,.18,.16,.25,.23,.08,.08,.15,.16,.23,.24,.08,.09,.15,.18,.21,.27,.07,.09,.14,.19,.21,.29,.07,.1,.13,.2,.19,.3,.06,.11,.12,.21,.18,.33,.06,.11,.11,.23,.17,.35,.05,.11,.1,.23,.15,.35,.05,.12,.09,.24,.12,.35v.04c.04,.09,.06,.17,.09,.26,.03,.1,.05,.2,.07,.3,.04,.18,.08,.37,.12,.55v.05c.06,.25,.11,.5,.18,.74,.03,.12,.07,.24,.11,.37,.04,.12,.08,.23,.13,.35,.04,.1,.09,.19,.13,.28,.05,.1,.1,.19,.16,.29s.12,.19,.18,.28c.07,.09,.13,.18,.2,.27,.08,.09,.15,.18,.23,.26,.08,.09,.16,.16,.24,.23,.08,.07,.16,.14,.25,.21,.08,.06,.17,.13,.26,.18,.08,.05,.16,.1,.24,.14,.09,.05,.17,.09,.25,.13,.08,.04,.17,.07,.26,.1,.09,.03,.17,.06,.24,.07l.15,.03h.07s.06,.01,.06,.01c.05,0,.11,0,.15-.01,.05,0,.09-.02,.13-.04,.04-.02,.09-.06,.14-.11,.05-.05,.09-.1,.11-.14,.01-.03,.02-.05,.03-.08v-.03c.02-.08,.02-.15,0-.21s-.05-.12-.09-.17c-.04-.05-.09-.1-.15-.15-.07-.06-.15-.11-.23-.17h-.02c-.17-.13-.38-.28-.59-.47-.05-.04-.1-.09-.15-.14-.05-.05-.09-.1-.15-.16-.05-.05-.09-.12-.14-.18s-.09-.13-.13-.21c-.05-.08-.09-.16-.13-.25-.04-.09-.09-.18-.12-.28-.04-.11-.08-.21-.12-.33-.04-.12-.07-.25-.11-.38-.03-.13-.06-.27-.09-.41-.03-.13-.05-.28-.08-.44-.05-.29-.1-.58-.15-.89l-.11-.7c-.04-.22-.07-.43-.11-.63-.04-.22-.08-.43-.13-.63-.05-.2-.09-.4-.15-.6-.05-.18-.1-.36-.16-.53s-.12-.34-.18-.49-.13-.31-.2-.46c-.07-.15-.14-.29-.22-.43-.08-.14-.16-.28-.24-.4-.08-.13-.17-.26-.26-.38-.09-.12-.17-.24-.27-.36-.09-.11-.18-.23-.28-.34s-.19-.22-.3-.32c-.1-.1-.2-.21-.31-.3-.11-.1-.22-.19-.34-.29-.11-.09-.23-.18-.36-.27-.13-.09-.26-.17-.39-.25-.13-.08-.27-.16-.43-.24-.15-.07-.3-.15-.47-.22-.17-.07-.34-.14-.52-.21-.28-.1-.57-.19-.87-.28-.31-.09-.63-.17-.96-.25-.32-.08-.65-.15-1-.23-.38-.08-.69-.15-1-.21-.54-.11-1.08-.23-1.62-.36-.16-.04-.34-.08-.54-.13-.19-.05-.37-.1-.52-.14-.18-.05-.35-.1-.5-.15-.16-.05-.32-.11-.48-.16-.17-.06-.32-.12-.46-.17-.16-.07-.31-.13-.44-.19-.15-.07-.3-.14-.44-.22-.14-.07-.28-.15-.42-.23-.13-.08-.26-.16-.4-.25s-.28-.19-.4-.28c-.13-.09-.26-.19-.39-.3-.12-.1-.25-.2-.37-.31-.12-.11-.24-.21-.35-.32-.11-.1-.21-.21-.32-.33-.1-.11-.2-.22-.29-.32-.09-.11-.17-.21-.25-.32-.08-.11-.15-.21-.22-.32-.07-.1-.13-.21-.19-.32-.07-.11-.12-.22-.17-.32-.05-.11-.11-.21-.15-.32-.04-.1-.09-.2-.13-.31-.04-.11-.08-.21-.12-.31-.03-.09-.07-.2-.1-.3l-.09-.31-.08-.31-.08-.31-.07-.3c-.05-.26-.24-1.01-.24-1.22-.01-.06-.03-.12-.07-.17-.03-.05-.08-.1-.13-.13-.05-.03-.11-.06-.17-.07s-.12-.01-.18,0-.12,.03-.17,.07c-.05,.03-.1,.08-.13,.13-.03,.05-.06,.11-.07,.17-.01,.05-.01,.11,0,.16,0,0,0,.02,0,.03,.07,.4,.15,.81,.24,1.24l.07,.33,.08,.32c.03,.11,.06,.21,.09,.32,.03,.11,.07,.23,.1,.34,.03,.1,.07,.22,.12,.35,.04,.13,.09,.24,.13,.35,.05,.11,.1,.24,.15,.36,.05,.11,.1,.23,.17,.35,.06,.12,.12,.24,.19,.36,.07,.12,.14,.24,.22,.36s.16,.24,.25,.36c.09,.12,.19,.25,.29,.37,.1,.12,.21,.24,.32,.36,.11,.12,.23,.24,.35,.36,.13,.12,.26,.24,.38,.36,.13,.11,.26,.22,.4,.34,.14,.11,.28,.22,.42,.32,.15,.11,.3,.21,.44,.3,.14,.09,.29,.18,.44,.28,.15,.09,.3,.17,.46,.26,.16,.08,.32,.16,.48,.24,.16,.07,.32,.14,.48,.21,.17,.07,.34,.13,.49,.19,.17,.06,.34,.12,.52,.17,.16,.05,.34,.1,.52,.16,.19,.05,.38,.1,.54,.15,.15,.04,.34,.09,.57,.14,.23,.05,.42,.1,.59,.13,.42,.09,.71,.15,1,.21l1.05,.22c.32,.07,.64,.14,.96,.22,.32,.08,.63,.16,.91,.24,.29,.08,.57,.17,.83,.27,.15,.06,.3,.11,.45,.18,.15,.06,.28,.13,.42,.19,.13,.06,.25,.13,.38,.21,.12,.07,.23,.14,.34,.22,.11,.07,.21,.15,.32,.24,.09,.08,.19,.16,.29,.25,.1,.09,.19,.18,.28,.27,.09,.09,.17,.18,.26,.28s.17,.19,.25,.3c.09,.11,.16,.21,.24,.32,.08,.11,.15,.22,.22,.34s.14,.24,.21,.36c.07,.13,.14,.26,.2,.39,.06,.13,.12,.27,.18,.41,.05,.11,.09,.22,.13,.34s.08,.24,.12,.36l.35,1.17-.03-.16c-.03-.13-.06-.27-.09-.42-.03-.15-.07-.28-.1-.4-.05-.16-.09-.32-.15-.48-.05-.15-.11-.3-.16-.44-.06-.14-.12-.28-.18-.42-.06-.13-.13-.26-.2-.39-.07-.13-.14-.25-.21-.36-.08-.12-.15-.24-.23-.34-.08-.12-.16-.22-.24-.32-.08-.1-.16-.2-.25-.3-.08-.1-.17-.19-.26-.28-.09-.09-.18-.18-.27-.27-.1-.09-.19-.17-.3-.26-.1-.08-.21-.16-.32-.24-.12-.08-.23-.15-.35-.22-.12-.07-.24-.14-.38-.21-.13-.07-.27-.13-.42-.19-.15-.07-.3-.13-.46-.18-.25-.09-.53-.18-.83-.27-.31-.09-.62-.17-.93-.24-.31-.07-.64-.15-.98-.22-.35-.08-.66-.14-.98-.21l-.52-.11-.54-.12-.59-.13c-.17-.04-.35-.09-.56-.14-.2-.05-.38-.1-.54-.15-.18-.05-.36-.1-.52-.16-.17-.05-.34-.11-.51-.17-.18-.06-.35-.13-.5-.19-.17-.07-.33-.14-.48-.21-.16-.07-.32-.15-.47-.23-.15-.08-.3-.16-.45-.25-.15-.09-.3-.18-.44-.28-.15-.1-.3-.2-.44-.3-.14-.1-.28-.21-.42-.32-.13-.11-.27-.22-.4-.34-.13-.11-.26-.23-.38-.35-.13-.12-.24-.24-.36-.36-.11-.11-.21-.24-.32-.36-.1-.12-.19-.24-.28-.36-.09-.13-.18-.25-.25-.36-.08-.12-.15-.24-.22-.36-.07-.11-.13-.23-.19-.36-.06-.11-.11-.23-.17-.35-.06-.13-.1-.24-.15-.34-.04-.11-.09-.23-.13-.35-.03-.1-.07-.22-.11-.34-.03-.11-.07-.22-.1-.33-.03-.1-.06-.21-.09-.33l-.08-.33-.07-.31c-.05-.21-.09-.42-.13-.63l-.08-.42h0c0-.06-.03-.15-.03-.21,0-.05,0-.1,0-.14,.01-.05,.03-.09,.06-.14s.07-.08,.11-.11c.04-.03,.09-.05,.14-.06,.05,0,.11,0,.15,0,.05,.01,.1,.03,.14,.06s.08,.07,.11,.11,.05,.09,.06,.14c.06,.3,.11,.6,.17,.91l.07,.31,.07,.31c.02,.09,.05,.2,.07,.3l.08,.31c.03,.11,.06,.21,.09,.32,.03,.09,.06,.19,.1,.31,.04,.11,.08,.22,.12,.31,.04,.11,.09,.21,.14,.32,.05,.1,.09,.21,.15,.32,.06,.11,.11,.22,.17,.32,.06,.11,.13,.22,.2,.32,.07,.11,.15,.22,.22,.32,.08,.11,.17,.22,.25,.32,.09,.11,.19,.21,.29,.33,.1,.11,.21,.22,.32,.33,.11,.11,.23,.22,.35,.32s.24,.21,.38,.31c.13,.1,.26,.2,.39,.3,.14,.1,.28,.19,.41,.28,.13,.09,.27,.17,.41,.26,.14,.08,.28,.16,.41,.23,.14,.07,.29,.15,.44,.22,.15,.07,.3,.14,.46,.2,.16,.07,.32,.13,.46,.18,.16,.06,.32,.11,.48,.16,.15,.05,.32,.1,.5,.15,.19,.05,.36,.1,.52,.14,.15,.04,.34,.08,.55,.13l.57,.13,1.05,.23c.36,.08,.73,.15,1.01,.21,.32,.07,.65,.15,.99,.23,.32,.08,.64,.16,.95,.25,.31,.09,.6,.18,.87,.28,.18,.07,.35,.13,.51,.2,.17,.07,.33,.15,.47,.22s.28,.15,.42,.24c.14,.08,.27,.17,.39,.25,.12,.08,.24,.17,.36,.27,.11,.09,.22,.19,.33,.28s.21,.2,.31,.3c.1,.1,.2,.21,.29,.32,.09,.11,.19,.22,.28,.34,.09,.12,.18,.24,.27,.36,.08,.11,.17,.24,.25,.38,.08,.13,.16,.27,.24,.4,.08,.14,.15,.28,.22,.43,.07,.15,.14,.3,.2,.45,.06,.16,.12,.32,.18,.49,.05,.17,.11,.34,.16,.52,.05,.19,.1,.39,.15,.6,.05,.21,.09,.42,.13,.62,.04,.22,.08,.43,.11,.64,.03,.21,.07,.42,.1,.63,.05,.33,.11,.65,.16,.95,.03,.15,.06,.3,.09,.45,.03,.14,.06,.27,.09,.4,.03,.14,.07,.27,.11,.38s.07,.22,.12,.33c.04,.11,.09,.21,.13,.3s.09,.17,.13,.25c.05,.08,.09,.15,.14,.21,.05,.07,.09,.13,.14,.19,.05,.06,.1,.11,.15,.17,.05,.05,.1,.1,.15,.15,.11,.1,.22,.19,.33,.26,.11,.08,.21,.15,.3,.21,.07,.05,.14,.1,.2,.14,.07,.05,.13,.11,.17,.16,.04,.05,.07,.1,.08,.17,0,.06,0,.12,0,.19-.01,.05-.03,.09-.06,.13-.02,.03-.05,.06-.08,.09-.03,.03-.06,.05-.1,.06-.04,.02-.08,.03-.13,.04-.04,0-.08,0-.13,0h-.06s-.06-.01-.06-.01h-.07s-.07-.03-.07-.03c-.07-.02-.15-.04-.24-.07-.07-.03-.15-.06-.24-.1-.08-.03-.16-.08-.24-.12-.08-.04-.16-.09-.24-.14-.09-.06-.17-.12-.25-.18-.07-.06-.16-.13-.24-.21-.08-.07-.16-.15-.24-.23-.07-.08-.15-.16-.22-.25s-.14-.17-.2-.26-.12-.18-.18-.27c-.05-.09-.1-.18-.15-.28-.05-.1-.09-.19-.13-.28-.05-.11-.09-.23-.13-.35-.04-.11-.07-.23-.1-.35s-.06-.25-.09-.37l-.15-.68-.07-.28c-.03-.11-.05-.21-.07-.3-.03-.1-.06-.2-.09-.3-.03-.11-.08-.23-.13-.36-.05-.13-.1-.24-.15-.36-.05-.11-.11-.23-.17-.35-.06-.11-.12-.23-.18-.34-.06-.1-.13-.21-.19-.31-.07-.1-.13-.19-.21-.29-.07-.09-.15-.19-.22-.27-.07-.08-.15-.17-.23-.24-.08-.08-.16-.16-.25-.23-.09-.07-.18-.14-.27-.21-.09-.06-.19-.13-.29-.18-.1-.06-.2-.11-.31-.16-.11-.05-.23-.1-.35-.14-.12-.04-.25-.08-.38-.12-.13-.03-.27-.07-.41-.09-.15-.03-.3-.05-.45-.07-.27-.03-.56-.06-.87-.07-.31-.01-.64-.02-.97-.02s-.68,0-1.04,.02c-.35,.01-.71,.03-1.08,.05h-.02v.02c-.05,.08-.09,.16-.15,.23s-.13,.13-.2,.18l-.17,.11-.02-.02-.07,.02c-.09,.03-.17,.04-.27,.04-.13,0-.25-.03-.36-.07-.11-.05-.22-.12-.31-.2l-.17-.17,.02-.02s-.04-.07-.05-.11c-.05-.11-.07-.23-.07-.36s.03-.25,.07-.36c.05-.11,.12-.22,.2-.31s.19-.16,.31-.2c.11-.05,.23-.07,.36-.07,.08,0,.17,.01,.25,.03s.16,.05,.23,.09l.12,.07h0s.05,.06,.07,.08c.06,.06,.11,.13,.15,.2v.02h.03c.37-.02,.74-.03,1.11-.05,.36-.01,.72-.02,1.07-.02s.68,0,1,.02c.32,.01,.63,.04,.92,.08,.18,.02,.35,.05,.51,.08,.16,.03,.32,.07,.48,.11,.15,.04,.29,.09,.44,.14,.13,.05,.27,.1,.4,.16,.13,.06,.26,.13,.38,.19,.12,.07,.24,.14,.35,.22,.11,.08,.22,.16,.32,.25,.11,.09,.21,.18,.3,.28,.09,.1,.18,.19,.26,.28,.08,.09,.17,.2,.25,.3,.08,.11,.16,.22,.24,.34,.08,.11,.15,.24,.23,.36,.05,.08,.1,.17,.14,.26s.09,.17,.14,.27c.05,.09,.09,.19,.13,.28,.04,.09,.08,.18,.11,.27l.12,.31c-.05-.3-.1-.6-.15-.89-.3-.41-.6-.82-.9-1.23-.08-.11-.17-.21-.26-.32-.08-.1-.17-.19-.26-.28-.1-.1-.21-.2-.31-.28-.11-.09-.22-.17-.33-.26-.11-.08-.23-.15-.36-.23-.13-.07-.26-.14-.39-.2-.13-.06-.27-.12-.41-.17-.14-.05-.28-.09-.44-.14-.15-.04-.31-.08-.47-.11-.17-.03-.34-.06-.52-.08-.29-.04-.59-.06-.92-.08-.33-.02-.66-.02-1.01-.02-.32,0-.66,0-1,.02-.33,.01-.68,.03-1.03,.04h-.13s-.08-.09-.08-.09c-.04-.05-.08-.1-.13-.14-.04-.03-.08-.06-.12-.09l-.04-.02c-.07-.04-.16-.08-.25-.1h0Z"/>
      <path class="cls-1" d="M63.3,17.18c.54,0,.97,.44,.97,.97s-.44,.97-.97,.97-.97-.44-.97-.97,.44-.97,.97-.97Zm.52,.46c-.13-.13-.32-.21-.52-.21s-.39,.08-.52,.21c-.13,.13-.21,.32-.21,.52s.08,.38,.21,.52,.32,.21,.52,.21,.38-.08,.52-.21c.13-.13,.21-.32,.21-.52s-.08-.38-.21-.52h0Z"/>
      <path class="cls-1" d="M42.02,24.35c.54,0,.97,.44,.97,.97s-.44,.97-.97,.97-.97-.44-.97-.97,.44-.97,.97-.97Zm.52,.46c-.13-.13-.32-.21-.52-.21s-.38,.08-.52,.21c-.13,.13-.21,.32-.21,.52s.08,.39,.21,.52,.32,.21,.52,.21,.38-.08,.52-.21,.21-.32,.21-.52-.08-.38-.21-.52Z"/>
      <path class="cls-1" d="M36.32,13.07c.34,0,.66,.14,.89,.37h0c.23,.23,.37,.54,.37,.89s-.14,.66-.37,.89c-.23,.23-.54,.37-.89,.37s-.65-.13-.87-.36c-.18-.17-.3-.4-.36-.65l-.13-.03c-.11-.03-.24-.06-.4-.09-.36-.08-.8-.16-1.31-.24-.4-.06-.84-.11-1.3-.15-.4-.03-.81-.05-1.2-.05-.36,0-.73,.01-1.09,.04-.77,.07-1.52,.22-2.26,.42-.71,.19-1.39,.42-2.08,.67-.06,.24-.19,.46-.38,.62-.22,.2-.52,.32-.83,.32-.35,0-.66-.14-.89-.37-.23-.23-.37-.54-.37-.89s.14-.66,.37-.89c.23-.23,.54-.37,.89-.37,.16,0,.32,.03,.46,.09,.09,.04,.18,.09,.26,.14,.73-.26,1.47-.51,2.22-.72,.81-.22,1.64-.39,2.49-.46,.4-.03,.8-.05,1.21-.05,.46,0,.9,.02,1.32,.06,.49,.04,.96,.1,1.4,.16,.54,.08,1.02,.17,1.4,.26,.19,.04,.36,.08,.53,.13,.1,.03,.19,.05,.28,.08,.07-.05,.15-.08,.24-.11,.13-.04,.27-.07,.41-.07Zm.49,.76c-.13-.13-.3-.2-.49-.2-.08,0-.16,.01-.23,.04-.07,.03-.14,.06-.2,.11l-.11,.09-.14-.04c-.11-.03-.23-.07-.38-.11-.14-.03-.3-.07-.51-.12-.37-.08-.84-.17-1.36-.25-.42-.06-.88-.12-1.36-.16-.42-.03-.85-.05-1.28-.06-.38,0-.77,.01-1.16,.05-.82,.07-1.62,.23-2.4,.44-.79,.21-1.56,.48-2.32,.75l-.16,.06-.12-.12c-.07-.06-.14-.11-.22-.14-.08-.03-.16-.05-.26-.05-.19,0-.37,.08-.49,.2s-.2,.3-.2,.49,.08,.37,.2,.49c.13,.13,.3,.2,.49,.2,.18,0,.34-.07,.47-.18s.21-.27,.23-.44l.02-.17,.16-.06c.75-.28,1.51-.53,2.27-.74,.77-.21,1.56-.37,2.36-.44,.37-.03,.75-.05,1.14-.04,.43,0,.85,.02,1.24,.05,.47,.04,.92,.09,1.34,.15,.52,.08,.98,.17,1.34,.24,.15,.03,.28,.06,.41,.1,.12,.03,.23,.06,.33,.09l.19,.06v.2c.01,.19,.09,.36,.21,.48s.3,.2,.49,.2,.37-.08,.49-.2,.2-.3,.2-.49-.08-.37-.2-.49h0Zm-.11-.43c-.12-.05-.25-.08-.39-.08-.06,0-.11,0-.17,.01-.05,0-.11,.02-.16,.04-.04,.01-.07,.03-.1,.04-.03,.01-.06,.03-.09,.05l-.09,.06c-.12-.04-.25-.07-.37-.11l-.25-.06c-.06-.01-.15-.04-.27-.06-.21-.05-.44-.09-.68-.14-.21-.04-.44-.08-.71-.11-.21-.03-.44-.06-.67-.09s-.47-.05-.71-.07c-.22-.02-.44-.03-.65-.04-.21,0-.43-.01-.64-.02-.2,0-.41,0-.62,0-.18,0-.38,.02-.58,.03-.42,.04-.84,.09-1.24,.17-.41,.08-.81,.17-1.21,.28-.37,.1-.74,.21-1.1,.33-.38,.12-.74,.25-1.1,.38l-.12,.04-.1-.07s-.07-.04-.1-.06-.07-.04-.11-.05c-.06-.02-.12-.04-.18-.05-.06-.01-.12-.02-.19-.02-.14,0-.27,.03-.39,.08-.12,.05-.23,.12-.32,.21h-.01c-.09,.1-.17,.21-.22,.34-.05,.12-.08,.25-.08,.39s.03,.27,.08,.39c.05,.12,.13,.24,.22,.33,.09,.09,.21,.17,.33,.22,.12,.05,.25,.07,.39,.07,.13,0,.25-.02,.36-.07,.12-.05,.22-.11,.31-.19,.07-.07,.14-.14,.19-.23,.05-.08,.09-.17,.11-.27l.03-.12,.12-.04c.36-.13,.7-.25,1.04-.36,.35-.11,.71-.22,1.06-.32,.37-.1,.75-.19,1.14-.26,.39-.07,.77-.13,1.16-.16,.17-.01,.36-.03,.55-.03,.19,0,.38-.01,.57,0,.2,0,.4,0,.6,.01,.22,0,.43,.02,.63,.04,.22,.02,.44,.04,.65,.06,.23,.03,.45,.06,.66,.09,.22,.03,.45,.07,.67,.11,.26,.05,.47,.09,.66,.13l.21,.05c.16,.04,.31,.08,.47,.12l.03,.15c.02,.1,.05,.2,.1,.28,.05,.09,.11,.17,.18,.24,.09,.09,.2,.16,.32,.21,.12,.05,.25,.07,.38,.07s.27-.03,.38-.08c.12-.05,.24-.13,.33-.22h0c.09-.1,.16-.21,.21-.33,.05-.12,.08-.25,.08-.39s-.03-.27-.07-.38c-.05-.12-.13-.24-.22-.33h0c-.09-.1-.2-.17-.32-.22h0Zm-.03,.06c.12,.05,.22,.12,.31,.2s.15,.19,.2,.31c.05,.11,.07,.23,.07,.36s-.03,.25-.07,.36c-.01,.04-.03,.07-.05,.11l.02,.02-.17,.17c-.09,.09-.19,.15-.31,.2-.11,.05-.23,.07-.36,.07s-.24-.03-.36-.07c-.11-.05-.21-.11-.3-.2-.09-.08-.16-.19-.21-.3-.05-.11-.07-.23-.08-.35v-.03l-.17-.05-.17-.04-.2-.05-.21-.05c-.2-.04-.42-.09-.65-.13-.2-.04-.42-.07-.68-.11-.21-.03-.44-.06-.67-.09-.21-.03-.43-.05-.65-.06-.21-.02-.41-.03-.6-.04-.21,0-.42-.01-.62-.02-.19,0-.39,0-.58,0-.17,0-.35,.02-.54,.03-.4,.03-.79,.09-1.17,.16-.38,.07-.77,.16-1.15,.27-.38,.1-.75,.22-1.13,.34-.39,.13-.76,.26-1.13,.39h-.02s0,.03,0,.03c-.01,.11-.05,.23-.1,.33-.05,.1-.12,.19-.21,.27-.08,.07-.18,.14-.29,.18-.1,.04-.22,.06-.34,.06-.13,0-.25-.03-.36-.07-.11-.05-.22-.12-.3-.2-.09-.09-.15-.19-.2-.31-.05-.11-.07-.23-.07-.36s.03-.25,.07-.36c.05-.11,.12-.22,.2-.3l.17-.17,.02,.02s.07-.04,.11-.05c.11-.05,.24-.07,.36-.07,.06,0,.12,0,.18,.02s.12,.03,.17,.05c.05,.02,.11,.05,.16,.08,.05,.03,.1,.07,.14,.11h.01s.02,0,.02,0c.4-.14,.78-.28,1.16-.4,.39-.13,.78-.25,1.18-.36,.39-.11,.79-.2,1.2-.28,.41-.08,.82-.14,1.24-.17,.19-.02,.38-.03,.58-.03,.2,0,.4-.01,.6,0,.21,0,.42,0,.63,.01,.23,.01,.45,.03,.66,.04,.23,.02,.46,.04,.68,.07,.24,.03,.47,.06,.69,.09,.24,.03,.47,.07,.7,.11,.26,.05,.49,.09,.68,.13l.28,.06,.24,.06,.21,.06,.2,.06h.02s.08-.07,.13-.09c.05-.03,.09-.05,.14-.06s.1-.03,.15-.04c.05,0,.1-.01,.15-.01,.13,0,.25,.03,.36,.07h0Z"/>
      <path class="cls-1" d="M21.94,0c.54,0,.97,.44,.97,.97s-.44,.97-.97,.97-.97-.44-.97-.97,.44-.97,.97-.97Zm.52,.46c-.13-.13-.32-.21-.52-.21s-.39,.08-.52,.21c-.13,.13-.21,.32-.21,.52s.08,.39,.21,.52c.13,.13,.32,.21,.52,.21s.38-.08,.52-.21c.13-.13,.21-.32,.21-.52s-.08-.38-.21-.52h0Z"/>
      <path class="cls-1" d="M39.01,0c.54,0,.97,.44,.97,.97s-.44,.97-.97,.97-.97-.44-.97-.97,.44-.97,.97-.97Zm.52,.46c-.13-.13-.32-.21-.52-.21s-.39,.08-.52,.21c-.13,.13-.21,.32-.21,.52s.08,.39,.21,.52,.32,.21,.52,.21,.38-.08,.52-.21c.13-.13,.21-.32,.21-.52s-.08-.38-.21-.52h0Z"/>
      <path class="cls-1" d="M36.45,19.53c-.07-.03-.14-.05-.23-.05-.09,0-.19,0-.28,.02-.12,.02-.24,.05-.36,.08-.12,.04-.24,.08-.36,.13-.16,.06-.32,.14-.48,.21-.17,.08-.32,.16-.48,.24l-.22,.11c-.13,.06-.26,.13-.39,.19-.12,.06-.25,.12-.36,.19-.04,.03-.08,.06-.12,.09-.03,.03-.06,.06-.08,.1-.02,.04-.04,.08-.05,.12-.01,.05-.02,.1-.02,.15,0,.06,0,.12,0,.17,0,.05,0,.11,.01,.18,0,.07,.01,.13,.02,.19,0,.06,.02,.12,.03,.18,0,.05,.02,.09,.03,.13,.01,.04,.03,.07,.05,.1,.03,.04,.05,.07,.09,.09,.03,.01,.06,.02,.1,.01,.02,0,.05,0,.06-.02,.03-.01,.06-.03,.09-.05h0s.08-.06,.14-.08h0c.08-.03,.18-.04,.26-.05l.23-.03,.18-.03c.11-.02,.23-.04,.33-.06,.11-.02,.21-.05,.32-.08,.12-.03,.24-.07,.36-.12s.23-.1,.33-.16c.09-.06,.19-.12,.28-.2,.09-.07,.17-.16,.25-.24,.08-.09,.15-.19,.21-.28,.06-.1,.11-.21,.16-.31,.04-.1,.08-.21,.1-.32,.02-.09,.03-.17,.02-.26,0-.09-.03-.17-.07-.24-.04-.06-.09-.11-.15-.14Zm.11-.22c-.19-.1-.44-.09-.65-.06-.26,.04-.53,.13-.78,.22-.34,.13-.66,.3-.98,.47l-.22,.11c-.11,.05-.22,.11-.33,.16-.15,.07-.3,.14-.44,.23-.11,.07-.21,.15-.28,.28-.07,.12-.09,.24-.1,.38,0,.13,0,.26,0,.38,.01,.13,.03,.27,.05,.4,.02,.11,.05,.22,.11,.32,.09,.15,.24,.24,.42,.22,.1-.01,.17-.05,.26-.11,.03-.02,.06-.04,.09-.05,.07-.02,.18-.03,.25-.04,.13-.01,.25-.03,.38-.05,.23-.03,.46-.08,.68-.14,.26-.07,.52-.17,.75-.31,.22-.13,.42-.3,.58-.49,.17-.19,.31-.42,.41-.66,.09-.21,.15-.46,.13-.68-.02-.25-.13-.46-.36-.57h0Zm-.32,.61v.02c.01,.11-.04,.26-.08,.37-.07,.17-.17,.33-.29,.48-.12,.14-.26,.26-.41,.35-.18,.11-.39,.18-.59,.24-.19,.05-.39,.09-.59,.12-.12,.02-.23,.03-.35,.05-.13,.01-.27,.03-.4,.07h-.02c0-.06-.01-.12-.02-.18,0-.09-.01-.19,0-.29,0-.02,0-.06,0-.08,0,0,.04-.03,.05-.04,.11-.07,.25-.13,.37-.19,.11-.05,.23-.11,.34-.17l.22-.12c.3-.16,.6-.31,.92-.44,.2-.08,.42-.15,.63-.18,.04,0,.16-.02,.22,0h0Zm.24-.05v.04c.01,.07,0,.15-.02,.24-.02,.09-.05,.18-.08,.25-.04,.09-.09,.19-.15,.28-.06,.09-.12,.18-.19,.26-.07,.08-.14,.15-.22,.22-.08,.07-.16,.13-.25,.18-.1,.06-.21,.11-.32,.15s-.22,.08-.33,.11c-.1,.03-.2,.05-.31,.07-.11,.02-.21,.04-.31,.05l-.39,.05c-.11,.01-.23,.03-.32,.05l-.3,.11c-.03-.23-.06-.42-.07-.65,0-.06,0-.11,0-.17v-.07s.01-.06,.03-.09v-.03s.04-.03,.04-.03c.02-.02,.04-.04,.06-.05l.05-.03c.1-.06,.21-.12,.32-.17l.4-.2,.22-.12c.16-.08,.32-.16,.46-.24,.16-.08,.32-.15,.48-.21,.1-.04,.21-.08,.33-.11,.12-.04,.24-.07,.35-.08,.03,0,.09-.01,.16-.01,.05,0,.1,0,.15,0l.16,.03,.03,.16h0Z"/>
    </g>
  </g>
</svg>