<svg xmlns="http://www.w3.org/2000/svg" xmlns:xlink="http://www.w3.org/1999/xlink" width="1080" zoomAndPan="magnify" viewBox="0 0 810 809.999993" height="1080" preserveAspectRatio="xMidYMid meet" version="1.0"><defs><clipPath id="f174bfe915"><path d="M 42 385 L 177 385 L 177 467.996094 L 42 467.996094 Z M 42 385 " clip-rule="nonzero"/></clipPath><clipPath id="75b52dc3e8"><path d="M 256 341.996094 L 347 341.996094 L 347 456 L 256 456 Z M 256 341.996094 " clip-rule="nonzero"/></clipPath></defs><g clip-path="url(#f174bfe915)"><path fill="#000000" d="M 171.585938 398.644531 C 173.023438 399.269531 174.125 400.179688 174.890625 401.28125 C 175.707031 402.429688 176.136719 403.773438 176.1875 405.304688 C 176.28125 407.320312 176.136719 409.332031 175.660156 411.25 C 175.179688 413.167969 174.460938 415.035156 173.40625 416.808594 C 172.640625 418.101562 171.730469 419.207031 170.675781 420.117188 C 169.621094 421.074219 168.46875 421.839844 167.175781 422.464844 C 164.828125 423.613281 162.429688 424.765625 159.988281 425.769531 C 157.589844 426.777344 155.097656 427.734375 152.65625 428.597656 L 104.25 446.378906 L 72.859375 458.027344 C 72.476562 458.167969 72.046875 458.410156 71.660156 458.648438 C 71.277344 458.890625 70.894531 459.175781 70.558594 459.511719 C 70.367188 459.703125 70.128906 459.894531 69.9375 460.039062 C 69.695312 460.230469 69.457031 460.375 69.21875 460.46875 C 68.929688 460.613281 68.59375 460.660156 68.257812 460.660156 C 67.78125 460.660156 67.347656 460.519531 66.917969 460.230469 C 66.726562 460.328125 66.535156 460.421875 66.34375 460.519531 C 63.46875 461.523438 60.589844 462.628906 57.765625 463.730469 C 54.9375 464.832031 52.15625 465.980469 49.425781 467.132812 C 48.898438 467.417969 48.464844 467.515625 47.9375 467.753906 C 47.652344 467.851562 47.414062 467.898438 47.171875 467.945312 L 46.644531 467.945312 C 46.644531 467.945312 46.117188 468.042969 46.117188 468.042969 L 42.429688 468.042969 L 44.824219 465.214844 C 45.445312 464.496094 46.070312 463.824219 46.691406 463.296875 C 47.316406 462.722656 47.988281 462.242188 48.609375 461.8125 C 50.957031 460.230469 53.355469 458.746094 55.800781 457.355469 C 58.292969 455.917969 60.78125 454.574219 63.371094 453.28125 L 66.628906 451.554688 C 67.875 450.933594 68.976562 450.359375 69.9375 449.878906 C 70.320312 449.6875 70.65625 449.445312 70.941406 449.207031 C 71.230469 448.921875 71.46875 448.632812 71.710938 448.296875 L 73.628906 445.421875 C 84.121094 429.507812 94.664062 413.597656 105.210938 397.6875 C 105.351562 397.445312 105.496094 397.207031 105.59375 396.96875 C 105.6875 396.726562 105.785156 396.441406 105.785156 396.199219 C 106.023438 395.003906 106.359375 393.898438 106.789062 392.84375 C 107.222656 391.792969 107.75 390.785156 108.421875 389.824219 C 109.140625 388.675781 110 387.8125 111.054688 387.285156 C 112.109375 386.710938 113.308594 386.472656 114.652344 386.519531 C 114.652344 386.519531 114.9375 386.519531 115.035156 386.519531 C 115.175781 386.519531 115.320312 386.421875 115.464844 386.375 C 115.847656 386.136719 116.28125 385.992188 116.664062 385.894531 C 117.09375 385.753906 117.574219 385.703125 118.003906 385.703125 L 118.339844 385.703125 C 118.773438 385.800781 119.15625 385.945312 119.539062 386.136719 C 119.921875 386.328125 120.304688 386.566406 120.59375 386.804688 L 120.640625 386.804688 C 120.640625 386.804688 120.832031 387.046875 120.976562 387.09375 L 121.359375 387.238281 C 125.097656 387.957031 128.835938 388.722656 132.527344 389.539062 C 136.265625 390.351562 139.953125 391.167969 143.597656 392.03125 C 150.929688 393.757812 158.261719 395.386719 165.640625 397.015625 C 166.648438 397.207031 167.605469 397.496094 168.613281 397.78125 C 169.621094 398.070312 170.578125 398.453125 171.535156 398.835938 Z M 172.113281 403.246094 C 171.679688 402.671875 171.058594 402.191406 170.242188 401.808594 C 169.378906 401.472656 168.519531 401.136719 167.65625 400.847656 C 166.792969 400.5625 165.882812 400.371094 164.972656 400.179688 C 157.640625 398.597656 150.257812 396.917969 142.878906 395.195312 C 139.1875 394.332031 135.546875 393.515625 131.902344 392.703125 C 128.214844 391.886719 124.476562 391.167969 120.785156 390.449219 L 120.6875 390.449219 C 120.257812 390.304688 119.875 390.160156 119.492188 389.96875 C 119.15625 389.777344 118.820312 389.539062 118.53125 389.300781 C 118.386719 389.203125 118.292969 389.105469 118.195312 389.058594 L 117.957031 388.964844 L 117.667969 388.964844 C 117.667969 388.964844 117.382812 389.105469 117.285156 389.15625 C 116.902344 389.394531 116.421875 389.585938 115.992188 389.683594 C 115.5625 389.777344 115.082031 389.824219 114.601562 389.777344 C 113.882812 389.777344 113.308594 389.875 112.78125 390.160156 C 112.253906 390.449219 111.824219 390.878906 111.441406 391.503906 C 110.914062 392.316406 110.480469 393.179688 110.097656 394.042969 C 109.761719 394.90625 109.476562 395.769531 109.28125 396.679688 C 109.1875 397.160156 109.042969 397.636719 108.898438 398.117188 C 108.707031 398.597656 108.46875 399.027344 108.179688 399.460938 C 97.636719 415.371094 87.140625 431.28125 76.597656 447.242188 L 74.777344 450.023438 C 74.394531 450.644531 73.914062 451.21875 73.386719 451.699219 C 72.859375 452.179688 72.238281 452.5625 71.566406 452.898438 C 70.320312 453.519531 69.265625 454.046875 68.308594 454.527344 L 65.046875 456.300781 C 62.890625 457.402344 60.734375 458.554688 58.675781 459.75 C 60.878906 458.890625 63.035156 458.121094 65.238281 457.308594 C 65.433594 457.210938 66.007812 456.921875 66.152344 456.875 C 66.582031 456.730469 66.964844 456.636719 67.398438 456.683594 C 67.730469 456.683594 68.117188 456.828125 68.402344 456.972656 C 68.882812 456.492188 69.363281 456.109375 69.9375 455.773438 C 70.511719 455.4375 71.085938 455.101562 71.757812 454.863281 C 81.773438 450.691406 92.941406 447.003906 103.195312 443.214844 C 115.082031 438.855469 141.058594 427.542969 151.648438 425.4375 C 154.042969 424.621094 156.441406 423.664062 158.835938 422.703125 C 161.183594 421.699219 163.484375 420.644531 165.835938 419.492188 C 166.839844 418.964844 167.75 418.390625 168.566406 417.671875 C 169.378906 416.953125 170.050781 416.089844 170.675781 415.132812 C 171.535156 413.644531 172.160156 412.113281 172.542969 410.53125 C 172.925781 408.949219 173.070312 407.269531 172.976562 405.546875 C 172.925781 404.636719 172.6875 403.867188 172.257812 403.292969 Z M 88.484375 440.484375 L 145.65625 412.589844 C 142.253906 412.015625 138.804688 411.488281 135.257812 410.914062 C 132.09375 410.484375 128.933594 410.050781 126.105469 409.667969 C 124.523438 409.476562 122.988281 409.238281 121.457031 408.949219 C 119.921875 408.660156 118.386719 408.324219 116.855469 407.992188 L 116.617188 407.992188 C 116.617188 407.992188 116.519531 408.132812 116.519531 408.132812 C 115.992188 408.902344 115.417969 409.667969 114.792969 410.484375 C 114.21875 411.25 113.597656 411.96875 112.972656 412.6875 C 108.371094 418.054688 103.867188 423.230469 99.457031 428.214844 C 96.007812 432.097656 92.367188 436.21875 88.578125 440.484375 Z M 122.988281 427.496094 L 81.964844 447.480469 L 81.101562 446.285156 C 81.101562 446.285156 79.90625 445.085938 79.90625 445.085938 C 80.816406 443.984375 82.0625 442.304688 83.117188 441.300781 C 87.429688 436.507812 91.933594 431.378906 96.726562 425.964844 C 101.375 420.691406 105.878906 415.515625 110.242188 410.433594 C 110.816406 409.761719 111.390625 409.042969 111.964844 408.324219 C 112.492188 407.65625 113.019531 406.886719 113.597656 406.121094 C 114.027344 405.449219 114.601562 404.972656 115.320312 404.683594 C 115.992188 404.445312 116.757812 404.394531 117.574219 404.636719 C 119.058594 404.972656 120.496094 405.304688 121.984375 405.59375 C 123.46875 405.882812 124.953125 406.121094 126.488281 406.3125 C 129.792969 406.746094 132.765625 407.128906 135.6875 407.558594 C 140.289062 408.277344 144.988281 409.042969 149.828125 409.859375 L 149.972656 409.859375 C 149.972656 409.859375 150.449219 410.050781 150.738281 410.148438 C 150.929688 410.242188 151.21875 410.339844 151.503906 410.53125 L 154.570312 412.113281 L 122.941406 427.542969 Z M 122.988281 427.496094 " fill-opacity="1" fill-rule="nonzero"/></g><path fill="#000000" d="M 726.746094 437.417969 C 726.746094 437.417969 726.359375 437.5625 726.121094 437.65625 C 717.832031 439.09375 709.539062 440.390625 701.296875 441.730469 C 692.191406 443.214844 683.132812 444.796875 674.027344 446.378906 C 671.105469 446.90625 668.179688 447.386719 665.304688 447.960938 C 656.152344 449.78125 646.996094 451.652344 637.84375 453.664062 C 632.574219 454.957031 627.300781 456.398438 622.125 458.027344 C 623.800781 457.929688 625.429688 457.785156 627.109375 457.644531 C 635.976562 456.78125 644.839844 456.0625 653.660156 455.535156 C 656.582031 455.246094 659.554688 455.054688 662.523438 454.863281 C 669.28125 454.429688 676.039062 454.097656 682.84375 453.710938 C 687.78125 453.425781 692.765625 453.136719 697.703125 452.898438 C 704.460938 452.609375 711.265625 452.417969 718.023438 452.226562 C 722.144531 452.132812 726.3125 451.890625 730.433594 451.746094 C 735.035156 451.554688 739.636719 451.125 744.238281 450.308594 C 748.023438 449.734375 751.425781 447.867188 754.347656 445.46875 C 758.902344 441.828125 762.785156 437.511719 765.613281 432.386719 C 766.378906 430.949219 767.382812 428.789062 765.707031 427.640625 L 765.613281 427.640625 C 765.613281 427.640625 765.5625 427.496094 765.5625 427.496094 C 765.515625 427.449219 765.417969 427.351562 765.371094 427.304688 C 765.179688 427.160156 764.988281 427.015625 764.796875 426.875 C 764.507812 426.683594 764.171875 426.539062 763.933594 426.441406 C 759.09375 424.765625 753.773438 423.421875 748.742188 421.984375 C 736.855469 418.582031 724.921875 415.273438 712.988281 411.96875 L 707.429688 410.433594 L 713.183594 409.859375 C 720.273438 409.140625 727.605469 408.421875 734.746094 408.183594 C 737.238281 408.085938 741.363281 407.941406 743.855469 408.46875 C 744.378906 408.46875 745.101562 408.277344 745.53125 408.183594 C 746.96875 407.894531 748.40625 408.230469 749.699219 408.804688 C 751.328125 409.378906 753.152344 408.230469 754.398438 407.222656 C 759.523438 403.246094 764.03125 398.40625 766.808594 392.511719 C 767.769531 390.546875 767.960938 389.585938 765.5625 389.585938 C 762.160156 389.585938 758.804688 389.585938 755.402344 389.585938 C 750.035156 389.492188 744.667969 389.492188 739.347656 389.441406 C 733.117188 389.441406 726.886719 389.441406 720.65625 389.585938 C 715.816406 389.539062 711.023438 389.777344 706.234375 390.210938 C 702.398438 390.6875 698.996094 392.652344 696.074219 395.050781 C 691.757812 398.644531 687.972656 402.765625 684.859375 407.414062 C 682.941406 410.289062 680.351562 415.035156 683.757812 417.910156 C 684.332031 418.488281 684.90625 418.964844 685.53125 419.445312 C 687.542969 420.835938 689.890625 422.273438 692.191406 423.230469 C 693.148438 423.613281 694.109375 423.996094 695.019531 424.332031 C 699.476562 425.867188 704.171875 427.113281 708.726562 428.359375 C 717.0625 430.613281 725.449219 432.816406 733.835938 434.925781 L 740.644531 436.652344 L 733.644531 437.035156 C 731.34375 437.179688 729.042969 437.273438 726.746094 437.371094 Z M 726.746094 437.417969 " fill-opacity="1" fill-rule="evenodd"/><g clip-path="url(#75b52dc3e8)"><path fill="#000000" d="M 333.378906 350 C 333.378906 349.136719 333.808594 348.226562 334.625 347.265625 C 335.246094 346.546875 336.160156 345.734375 337.355469 344.824219 C 338.554688 343.960938 339.5625 343.289062 340.421875 342.808594 C 341.476562 342.28125 342.386719 341.996094 343.15625 341.996094 C 343.828125 341.996094 344.449219 342.089844 344.878906 342.332031 C 345.742188 342.761719 346.175781 343.433594 346.175781 344.34375 C 346.175781 344.773438 345.933594 345.492188 345.503906 346.5 C 345.167969 347.265625 344.640625 348.320312 343.96875 349.566406 C 343.105469 351.292969 342.339844 352.632812 341.621094 353.546875 C 340.664062 354.839844 339.65625 355.460938 338.652344 355.460938 C 338.507812 355.460938 338.125 356.277344 336.542969 357.90625 C 334.625 359.871094 331.941406 362.84375 328.492188 366.773438 C 325.039062 370.75 322.164062 374.105469 319.960938 376.835938 C 317.753906 379.523438 316.222656 381.628906 315.261719 383.117188 C 314.449219 384.457031 313.730469 385.847656 313.15625 387.332031 C 312.578125 388.820312 312.050781 390.351562 311.714844 391.933594 C 311.285156 393.898438 310.085938 396.871094 308.027344 400.800781 C 306.015625 404.636719 303.234375 409.523438 299.640625 415.371094 C 291.730469 428.261719 285.933594 437.753906 282.289062 443.742188 C 278.554688 449.925781 276.589844 453.183594 276.445312 453.519531 C 276.300781 453.953125 276.109375 454.289062 275.820312 454.574219 C 275.390625 455.007812 274.910156 455.199219 274.335938 455.199219 C 273.136719 455.199219 271.988281 454.289062 270.980469 452.515625 C 270.214844 451.21875 269.445312 449.304688 268.585938 446.8125 C 268.058594 445.277344 267.289062 442.355469 266.285156 437.992188 C 265.277344 433.679688 263.984375 427.878906 262.449219 420.59375 C 261.011719 413.789062 259.863281 408.660156 258.902344 405.257812 C 258.183594 402.671875 258.761719 401.375 258.375 401.375 C 258.042969 401.375 257.707031 401.328125 257.417969 401.136719 C 256.652344 400.753906 256.269531 400.128906 256.316406 399.21875 C 256.316406 398.835938 256.460938 398.40625 256.699219 397.925781 C 257.082031 397.160156 257.898438 396.054688 259.09375 394.667969 L 259.144531 394.667969 C 260.246094 393.421875 261.15625 392.414062 261.875 391.503906 C 262.546875 390.640625 262.976562 389.921875 263.265625 389.347656 L 263.410156 389.105469 C 264.03125 388.246094 264.75 387.667969 265.660156 387.382812 C 266.523438 387.09375 267.480469 387.140625 268.488281 387.476562 L 268.535156 387.476562 C 269.304688 387.765625 269.972656 388.292969 270.5 389.058594 C 270.933594 389.683594 271.316406 390.449219 271.652344 391.40625 C 271.890625 392.222656 272.226562 393.46875 272.609375 395.242188 C 272.992188 397.015625 273.425781 399.171875 273.902344 401.664062 C 274.335938 404.347656 274.816406 407.175781 275.4375 410.148438 C 276.011719 413.070312 276.636719 416.042969 277.355469 419.0625 L 277.691406 420.929688 C 278.167969 420.308594 279.605469 418.246094 282.050781 414.75 C 284.449219 411.25 287.992188 406.074219 292.691406 399.21875 C 296.90625 393.039062 300.453125 388.101562 303.328125 384.457031 C 306.253906 380.71875 308.554688 378.371094 310.136719 377.316406 C 310.949219 376.789062 312.4375 375.351562 314.542969 373.050781 C 316.699219 370.703125 319.578125 367.394531 323.121094 363.128906 C 326.667969 358.914062 329.304688 355.652344 331.03125 353.304688 C 332.5625 351.246094 333.332031 350.09375 333.332031 349.902344 Z M 337.210938 349.519531 L 336.828125 350 C 336.828125 350.910156 335.824219 352.730469 333.808594 355.414062 C 333.234375 356.179688 332.5625 357.042969 331.84375 358.003906 L 334.144531 355.558594 C 336.398438 353.210938 337.929688 352.058594 338.746094 352.058594 C 338.890625 352.058594 338.746094 351.867188 338.984375 351.484375 C 339.5625 350.765625 340.230469 349.617188 341 348.082031 C 341.429688 347.21875 341.8125 346.453125 342.101562 345.878906 L 342.003906 345.878906 C 341.285156 346.261719 340.421875 346.835938 339.417969 347.601562 C 338.410156 348.371094 337.691406 348.992188 337.210938 349.519531 Z M 312.386719 381.34375 C 313.058594 380.289062 314.066406 378.898438 315.359375 377.269531 C 313.875 378.753906 312.769531 379.761719 312.003906 380.289062 C 310.710938 381.101562 308.746094 383.261719 306.0625 386.664062 C 303.28125 390.160156 299.785156 395.003906 295.566406 401.234375 C 291.109375 407.796875 287.515625 412.976562 284.878906 416.808594 C 282.339844 420.453125 280.851562 422.609375 280.324219 423.230469 L 275.628906 429.269531 L 273.953125 419.828125 C 273.234375 416.714844 272.609375 413.742188 272.035156 410.914062 C 271.460938 408.085938 270.980469 405.257812 270.5 402.429688 C 269.972656 399.792969 269.542969 397.6875 269.207031 396.105469 C 268.871094 394.523438 268.535156 393.324219 268.34375 392.605469 C 268.152344 392.03125 267.960938 391.550781 267.722656 391.265625 C 267.578125 391.070312 267.480469 390.976562 267.386719 390.929688 C 267.097656 390.832031 266.859375 390.832031 266.714844 390.878906 C 266.570312 390.878906 266.476562 391.023438 266.332031 391.167969 C 265.949219 391.933594 265.375 392.84375 264.605469 393.851562 C 263.839844 394.859375 262.832031 396.007812 261.636719 397.253906 C 260.917969 398.070312 260.390625 398.742188 260.054688 399.21875 C 260.820312 400.273438 261.539062 402.046875 262.257812 404.539062 C 263.21875 407.992188 264.414062 413.167969 265.851562 420.066406 C 267.386719 427.257812 268.632812 433.054688 269.6875 437.371094 C 270.691406 441.683594 271.410156 444.511719 271.890625 445.851562 C 272.707031 448.152344 273.378906 449.878906 274.046875 450.980469 L 274.046875 451.078125 C 275.054688 449.398438 276.828125 446.429688 279.414062 442.164062 C 283.535156 435.355469 289.335938 425.867188 296.765625 413.742188 C 300.3125 407.941406 303.042969 403.199219 305.007812 399.410156 C 306.925781 395.722656 308.027344 393.085938 308.410156 391.40625 C 308.792969 389.585938 309.367188 387.859375 309.992188 386.230469 C 310.664062 384.601562 311.476562 383.019531 312.386719 381.488281 Z M 312.386719 381.34375 " fill-opacity="1" fill-rule="nonzero"/></g><path fill="#000000" d="M 548.511719 394.042969 C 552.105469 387.621094 554.023438 384.410156 554.214844 384.410156 C 554.550781 384.410156 554.597656 385.511719 554.359375 387.667969 C 554.359375 387.910156 554.359375 388.148438 554.261719 388.484375 C 554.214844 388.820312 554.167969 389.011719 554.167969 389.15625 C 554.167969 389.921875 554.3125 390.402344 554.648438 390.640625 C 554.984375 390.878906 555.703125 391.070312 556.753906 391.3125 C 558.386719 391.550781 559.4375 392.175781 559.871094 393.277344 C 565.621094 413.214844 568.546875 423.613281 568.546875 424.476562 C 568.546875 424.8125 568.402344 425.101562 568.066406 425.292969 C 567.730469 425.53125 567.105469 425.675781 566.101562 425.769531 C 565.140625 425.867188 563.800781 425.964844 562.125 426.011719 C 560.445312 426.058594 558.097656 426.105469 555.175781 426.105469 C 546.261719 426.105469 541.613281 426.441406 541.277344 427.066406 C 541.035156 427.402344 541.371094 427.640625 542.234375 427.878906 C 543 427.976562 543.960938 428.023438 545.15625 428.023438 C 548.082031 428.023438 549.566406 428.261719 549.566406 428.695312 C 549.566406 429.222656 547.507812 432.769531 543.335938 439.335938 L 537.15625 449.304688 L 531.785156 450.453125 C 526.5625 451.652344 522.921875 452.273438 520.859375 452.273438 C 519.132812 452.273438 518.222656 451.796875 518.222656 450.789062 C 518.222656 448.921875 519.132812 446.429688 521.003906 443.265625 C 522.441406 440.628906 523.542969 438.902344 524.359375 438.039062 C 525.171875 437.179688 526.324219 436.507812 527.855469 436.074219 L 528 436.074219 L 528.335938 435.933594 L 530.300781 435.261719 C 530.300781 435.261719 529.628906 435.210938 528.671875 435.117188 L 525.890625 435.117188 L 527.523438 431.523438 C 528.289062 429.894531 529.007812 428.886719 529.628906 428.597656 C 530.253906 428.3125 531.929688 428.121094 534.519531 428.121094 C 538.015625 428.121094 539.742188 427.734375 539.742188 426.96875 C 539.742188 426.441406 539.503906 426.25 539.070312 426.488281 C 538.640625 426.824219 537.105469 426.777344 534.519531 426.347656 L 530.925781 425.675781 L 536.960938 414.75 C 538.160156 412.589844 540.125 408.996094 542.90625 403.964844 C 545.683594 398.933594 547.507812 395.671875 548.367188 394.1875 Z M 580.046875 407.941406 L 589.824219 390.449219 L 597.972656 390.449219 C 603.625 390.449219 606.453125 390.640625 606.453125 391.121094 C 606.453125 391.886719 601.230469 401.808594 590.78125 420.929688 C 580.335938 440.054688 574.535156 450.261719 573.480469 451.554688 C 572.617188 452.417969 570.269531 452.851562 566.4375 452.851562 C 563.609375 452.851562 561.882812 452.660156 561.210938 452.273438 C 560.542969 451.890625 559.582031 450.644531 558.289062 448.585938 C 556.5625 445.421875 555.507812 442.355469 555.175781 439.429688 C 554.980469 437.5625 554.503906 434.878906 553.878906 431.28125 L 553.402344 428.023438 L 559.773438 428.023438 C 568.257812 428.023438 573.144531 426.921875 574.488281 424.765625 C 575.160156 423.664062 575.398438 423.085938 575.300781 423.039062 C 575.207031 422.992188 574.582031 423.421875 573.527344 424.429688 C 571.996094 425.867188 571.132812 426.296875 570.894531 425.722656 C 570.894531 424.523438 573.960938 418.582031 580.046875 407.941406 Z M 580.046875 407.941406 " fill-opacity="1" fill-rule="nonzero"/><path fill="#000000" d="M 537.539062 430.613281 C 537.539062 430.613281 537.875 430.515625 537.875 430.277344 C 537.875 430.035156 537.777344 429.941406 537.539062 429.941406 C 537.296875 429.941406 537.203125 430.035156 537.203125 430.277344 C 537.203125 430.515625 537.296875 430.613281 537.539062 430.613281 Z M 537.539062 430.613281 " fill-opacity="1" fill-rule="nonzero"/><path fill="#000000" d="M 497.761719 389.492188 C 508.304688 388.964844 514.246094 388.675781 515.539062 388.675781 C 518.03125 388.675781 519.277344 388.964844 519.277344 389.492188 C 519.277344 390.351562 518.128906 391.070312 515.828125 391.597656 C 512.90625 392.460938 511.417969 393.5625 511.417969 394.859375 C 511.417969 395.722656 512.136719 397.6875 513.527344 400.753906 C 515.15625 404.011719 516.691406 408.277344 518.082031 413.597656 C 519.519531 418.871094 520.1875 422.703125 520.1875 425.101562 C 520.1875 425.339844 520.1875 425.53125 520.09375 425.769531 C 520.046875 426.011719 519.996094 426.15625 519.996094 426.25 C 519.566406 427.976562 517.648438 430.804688 514.292969 434.734375 C 510.941406 438.664062 507.777344 441.683594 504.804688 443.886719 C 497.953125 448.921875 488.75 451.796875 477.199219 452.5625 L 467.089844 453.042969 L 457.597656 444.894531 C 453.667969 441.539062 451.082031 439.046875 449.835938 437.5625 C 448.589844 436.074219 447.964844 434.300781 447.964844 432.335938 C 447.964844 430.46875 448.445312 427.929688 449.453125 424.667969 C 452.375 413.453125 458.367188 404.921875 467.425781 399.027344 C 472.121094 395.960938 476.671875 393.757812 481.128906 392.316406 C 485.585938 390.878906 491.097656 389.96875 497.617188 389.539062 Z M 498.910156 405.355469 C 496.515625 402.765625 494.835938 401.425781 493.832031 401.425781 C 492.726562 401.519531 489.183594 403.101562 483.191406 406.167969 C 477.199219 409.238281 473.175781 411.535156 471.113281 413.214844 C 469.582031 414.414062 467.757812 416.90625 465.652344 420.644531 C 463.542969 424.382812 462.199219 427.59375 461.625 430.179688 C 461.53125 430.421875 461.480469 430.707031 461.480469 431.140625 C 461.480469 432.433594 463.015625 434.253906 466.035156 436.507812 C 469.101562 438.808594 471.496094 439.957031 473.222656 439.957031 C 473.652344 439.957031 474.949219 439.863281 477.152344 439.621094 C 484.867188 438.855469 491.289062 437.082031 496.417969 434.253906 C 501.546875 431.425781 504.421875 428.023438 505.09375 424.140625 C 505.1875 423.613281 505.238281 422.800781 505.238281 421.699219 C 505.238281 418.964844 504.660156 416.089844 503.464844 413.023438 C 502.265625 409.957031 500.730469 407.414062 498.910156 405.355469 Z M 498.910156 405.355469 " fill-opacity="1" fill-rule="nonzero"/><path fill="#000000" d="M 442.695312 416.378906 L 442.886719 416.714844 C 443.75 417.960938 443.941406 419.492188 443.460938 421.027344 C 442.789062 423.183594 441.066406 424.765625 439.246094 425.914062 C 437.710938 427.113281 433.0625 435.546875 432.007812 437.464844 C 431.335938 438.664062 430.664062 439.8125 429.996094 441.011719 C 429.417969 442.113281 428.796875 443.167969 428.222656 444.269531 C 427.742188 445.132812 427.261719 445.996094 426.785156 446.859375 C 426.402344 447.53125 426.066406 448.199219 425.632812 448.824219 C 425.539062 448.96875 425.441406 449.113281 425.347656 449.253906 L 425.25 449.589844 L 424.867188 449.972656 C 424.242188 450.644531 423.382812 451.027344 422.46875 451.027344 C 421.082031 451.027344 419.785156 450.359375 418.734375 449.445312 C 417.628906 448.535156 416.769531 447.386719 416.480469 445.996094 C 416.289062 445.085938 416.289062 444.175781 416.574219 443.3125 C 417.582031 440.003906 421.03125 434.015625 422.664062 430.851562 C 423.574219 429.078125 425.058594 426.488281 426.160156 424.238281 C 425.011719 424.238281 423.8125 424.238281 423.191406 424.238281 L 418.253906 424.238281 L 416.433594 427.160156 C 413.558594 432.144531 410.679688 437.226562 407.757812 442.210938 L 407.757812 442.304688 C 407.757812 442.304688 407.613281 442.402344 407.613281 442.402344 C 406.511719 443.839844 404.644531 444.941406 402.964844 445.757812 C 401.191406 446.523438 399.898438 447.675781 398.988281 449.304688 C 398.171875 450.742188 397.167969 452.035156 396.0625 453.234375 C 395.105469 454.289062 393.765625 455.726562 392.183594 455.726562 C 390.359375 455.726562 389.449219 454 389.929688 452.371094 C 390.410156 450.742188 391.941406 448.007812 392.757812 446.476562 C 395.152344 441.683594 397.597656 436.9375 400.042969 432.144531 C 401.046875 430.179688 409.339844 413.214844 410.824219 412.398438 C 410.730469 412.398438 410.777344 412.304688 410.824219 412.257812 C 411.066406 411.394531 411.589844 410.769531 412.214844 410.339844 C 412.117188 409.765625 412.214844 409.140625 412.40625 408.566406 C 412.933594 406.886719 414.179688 404.636719 415.042969 403.101562 C 416.289062 400.800781 417.488281 398.308594 418.253906 395.769531 C 419.066406 393.46875 420.027344 391.023438 421.320312 388.964844 C 421.992188 387.910156 422.855469 386.613281 423.859375 385.894531 C 424.867188 385.175781 426.304688 384.792969 427.597656 384.601562 C 429.132812 384.410156 430.617188 384.074219 431.960938 383.738281 C 432.34375 383.59375 432.824219 383.546875 433.300781 383.546875 C 436.753906 383.546875 436.035156 387.574219 435.410156 389.683594 C 433.972656 394.425781 430.664062 400.515625 428.367188 404.921875 C 426.878906 407.75 425.058594 411.011719 423.523438 414.078125 C 424.148438 414.078125 424.722656 414.078125 425.15625 414.078125 L 427.167969 414.078125 L 433.0625 413.886719 L 439.386719 402.574219 C 441.210938 399.316406 446 390.402344 448.828125 388.054688 C 450.171875 386.902344 451.371094 385.609375 452.375 384.121094 C 453.476562 382.542969 455.011719 380.863281 457.121094 380.863281 C 459.230469 380.863281 460.140625 382.828125 459.5625 384.699219 C 459.132812 386.136719 457.648438 388.628906 456.929688 390.019531 C 454.820312 394.042969 452.617188 398.023438 450.507812 402.046875 L 442.742188 416.570312 Z M 442.695312 416.378906 " fill-opacity="1" fill-rule="evenodd"/><path fill="#000000" d="M 416.574219 416.714844 C 416.574219 416.714844 415.953125 416.378906 414.753906 416.378906 C 413.84375 416.472656 413.363281 416.664062 413.363281 417.046875 C 413.605469 417.335938 414.179688 417.433594 415.136719 417.335938 C 416.097656 417.242188 416.574219 417 416.574219 416.714844 Z M 416.574219 416.714844 " fill-opacity="1" fill-rule="nonzero"/><path fill="#000000" d="M 354.511719 387.191406 C 355.425781 386.230469 356.71875 385.753906 358.394531 385.65625 C 360.792969 385.65625 371.382812 385.992188 390.167969 386.664062 C 408.957031 387.332031 418.347656 387.71875 418.398438 387.765625 C 418.445312 387.765625 418.398438 388.101562 418.207031 388.722656 C 418.011719 389.347656 417.773438 390.066406 417.535156 390.785156 C 417.007812 392.078125 416.574219 392.84375 416.289062 393.132812 C 416 393.421875 415.425781 393.5625 414.609375 393.5625 C 413.414062 393.5625 412.503906 393.996094 411.878906 394.859375 C 411.304688 395.578125 410.25 395.960938 408.765625 395.960938 C 407.46875 395.960938 406.367188 395.960938 405.457031 395.863281 C 404.59375 395.816406 403.589844 395.769531 402.484375 395.769531 C 400.761719 395.769531 399.753906 396.152344 399.515625 396.871094 C 399.417969 397.0625 399.132812 397.6875 398.652344 398.691406 C 398.222656 399.699219 397.835938 400.464844 397.550781 400.992188 C 396.449219 403.199219 395.296875 404.972656 394.148438 406.21875 C 392.613281 407.941406 391.128906 410.769531 389.640625 414.554688 C 388.636719 417.046875 385.902344 422.367188 381.445312 430.515625 C 377.039062 438.664062 374.304688 443.3125 373.394531 444.460938 C 373.011719 444.847656 372.773438 445.277344 372.675781 445.660156 C 371.574219 448.394531 370.808594 449.972656 370.425781 450.308594 C 370.183594 450.359375 365.679688 450.691406 356.8125 451.21875 C 347.949219 451.746094 342.867188 452.035156 341.621094 452.035156 L 338.554688 452.132812 L 337.644531 441.777344 C 337.210938 436.792969 336.878906 433.824219 336.683594 432.769531 C 336.492188 431.714844 336.015625 431.140625 335.296875 430.996094 C 334.625 430.804688 333.714844 430.226562 332.660156 429.222656 C 331.605469 428.261719 331.125 427.542969 331.222656 427.160156 C 331.316406 426.824219 333.332031 426.683594 337.308594 426.683594 C 339.992188 426.683594 341.667969 426.777344 342.386719 426.96875 C 343.300781 427.351562 344.019531 429.507812 344.59375 433.390625 L 345.550781 439.238281 L 351.0625 439.335938 C 354.992188 439.382812 357.484375 439.574219 358.539062 439.863281 C 359.546875 440.148438 360.121094 440.917969 360.121094 442.113281 C 360.121094 443.457031 360.601562 444.128906 361.605469 444.128906 L 362.996094 444.128906 L 362.179688 442.496094 C 361.605469 441.492188 361.414062 440.722656 361.558594 440.199219 C 361.75 439.527344 362.566406 439.144531 364.050781 439.09375 L 366.398438 438.902344 C 369.753906 431.042969 373.445312 422.847656 377.421875 414.222656 L 379.148438 414.222656 C 380.199219 414.222656 380.824219 414.027344 380.917969 413.597656 C 381.015625 413.214844 380.726562 412.6875 380.007812 412.113281 L 378.90625 411.203125 C 379.722656 409.378906 380.871094 406.648438 382.453125 403.007812 C 384.035156 399.363281 385.234375 396.582031 386.046875 394.714844 L 376.175781 394.714844 C 370.761719 394.714844 367.023438 394.476562 365.058594 393.996094 C 363.09375 393.515625 361.558594 392.511719 360.503906 390.878906 C 359.882812 389.824219 358.492188 389.15625 356.285156 388.867188 L 353.171875 388.484375 L 354.511719 387.09375 Z M 354.511719 387.191406 " fill-opacity="1" fill-rule="nonzero"/><path fill="#000000" d="M 381.542969 408.996094 C 381.542969 408.996094 381.878906 408.902344 381.878906 408.660156 C 381.878906 408.421875 381.78125 408.324219 381.542969 408.324219 C 381.304688 408.324219 381.207031 408.421875 381.207031 408.660156 C 381.207031 408.902344 381.304688 408.996094 381.542969 408.996094 Z M 381.542969 408.996094 " fill-opacity="1" fill-rule="nonzero"/><path fill="#000000" d="M 368.554688 443.601562 C 369.082031 443.886719 369.515625 443.886719 369.800781 443.503906 C 369.945312 443.265625 369.800781 443.167969 369.464844 443.167969 L 368.890625 443.167969 C 368.507812 443.167969 368.269531 443.167969 368.21875 443.265625 Z M 368.554688 443.601562 " fill-opacity="1" fill-rule="nonzero"/><path fill="#000000" d="M 235.996094 439.09375 L 228.617188 440.722656 L 183.949219 450.742188 C 178.820312 451.890625 176.1875 452.464844 176.042969 452.464844 C 175.46875 452.464844 174.507812 451.988281 173.117188 450.980469 C 172.015625 450.214844 170.484375 449.015625 168.46875 447.433594 C 166.457031 445.851562 164.972656 444.65625 163.917969 443.742188 C 162.574219 442.59375 161.902344 441.730469 161.808594 441.109375 C 161.710938 440.484375 162.238281 438.953125 163.4375 436.554688 C 164.445312 434.542969 166.027344 431.570312 168.132812 427.6875 C 170.148438 423.613281 172.78125 419.347656 175.035156 415.324219 L 177.433594 415.324219 C 176.953125 415.082031 176.714844 414.75 176.664062 414.414062 C 176.570312 413.695312 177.144531 411.96875 178.484375 409.378906 C 179.683594 406.984375 181.457031 403.726562 183.804688 399.554688 L 191.855469 385.128906 L 211.121094 385.753906 C 218.503906 385.945312 224.828125 386.136719 230.054688 386.28125 C 235.421875 386.472656 239.6875 386.613281 242.898438 386.757812 L 259.335938 387.476562 L 257.898438 389.921875 C 257.179688 391.121094 256.460938 392.460938 255.742188 393.851562 C 255.023438 395.242188 254.304688 396.726562 253.585938 398.308594 L 253.105469 399.316406 L 238.632812 399.316406 C 232.59375 399.316406 228.855469 399.410156 227.371094 399.601562 C 226.746094 399.699219 226.265625 399.792969 225.882812 399.988281 C 225.644531 400.082031 225.453125 400.226562 225.355469 400.371094 L 225.261719 400.464844 C 224.828125 400.992188 224.253906 401.425781 223.632812 401.808594 C 223.007812 402.144531 222.335938 402.382812 221.570312 402.574219 C 220.898438 402.71875 219.84375 402.8125 218.503906 402.863281 C 217.113281 402.910156 215.484375 402.957031 213.519531 402.957031 L 205.613281 402.957031 C 205.417969 403.53125 205.226562 404.15625 204.988281 404.730469 L 228.230469 404.730469 C 230.4375 404.730469 232.402344 404.730469 234.078125 404.828125 C 235.707031 404.875 236.953125 404.972656 237.769531 405.066406 C 238.773438 405.210938 239.542969 405.402344 240.164062 405.738281 C 241.125 406.21875 241.652344 406.9375 241.792969 407.847656 C 241.84375 408.277344 241.699219 408.996094 241.316406 410.003906 C 241.027344 410.769531 240.597656 411.777344 240.019531 413.117188 C 239.496094 414.316406 238.773438 415.324219 237.863281 416.089844 C 236.953125 416.855469 235.898438 417.382812 234.652344 417.671875 C 232.6875 418.101562 224.878906 419.207031 211.265625 420.980469 C 207 421.503906 203.695312 421.984375 201.347656 422.464844 C 199.140625 422.894531 197.894531 423.230469 197.511719 423.472656 L 197.464844 423.472656 C 197.464844 423.472656 197.273438 423.757812 197.03125 424.140625 C 196.699219 424.71875 196.363281 425.53125 195.980469 426.539062 C 195.546875 427.6875 195.164062 428.597656 194.972656 429.316406 C 196.171875 429.175781 198.085938 428.886719 200.769531 428.457031 C 205.226562 427.785156 211.265625 426.777344 218.933594 425.53125 C 224.878906 424.523438 229.382812 423.804688 232.402344 423.328125 C 235.660156 422.847656 237.578125 422.558594 238.199219 422.558594 C 238.679688 422.558594 239.0625 422.558594 239.398438 422.703125 C 239.972656 422.847656 240.40625 423.085938 240.742188 423.472656 C 240.980469 423.710938 241.125 423.996094 241.265625 424.332031 C 241.363281 424.621094 241.460938 424.910156 241.507812 425.242188 C 241.601562 425.867188 241.507812 426.824219 241.171875 428.121094 C 240.933594 429.222656 240.5 430.707031 239.878906 432.578125 C 239.253906 434.445312 238.773438 435.835938 238.390625 436.746094 C 237.722656 438.328125 236.90625 439.144531 235.949219 439.144531 Z M 227.898438 437.371094 C 232.929688 436.265625 235.613281 435.691406 235.996094 435.644531 L 235.804688 435.546875 C 235.5625 435.5 235.277344 435.40625 235.277344 435.308594 C 235.660156 434.445312 236.089844 433.152344 236.667969 431.425781 C 237.195312 429.703125 237.625 428.3125 237.863281 427.257812 C 238.007812 426.683594 238.105469 426.296875 238.105469 426.011719 C 237.53125 426.011719 235.804688 426.25 232.929688 426.730469 C 229.621094 427.210938 225.164062 427.976562 219.507812 428.886719 C 211.410156 430.226562 205.324219 431.1875 201.296875 431.808594 C 196.9375 432.480469 194.445312 432.816406 193.726562 432.816406 C 193.292969 432.816406 192.863281 432.769531 192.574219 432.625 C 191.808594 432.335938 191.378906 431.808594 191.28125 431.042969 C 191.1875 430.46875 191.28125 429.652344 191.617188 428.550781 C 191.855469 427.640625 192.289062 426.539062 192.816406 425.195312 C 193.246094 423.996094 193.679688 423.085938 194.0625 422.320312 C 194.589844 421.410156 195.117188 420.785156 195.644531 420.402344 C 196.457031 419.875 198.136719 419.398438 200.722656 418.917969 C 203.214844 418.4375 206.617188 417.960938 210.882812 417.433594 C 224.398438 415.707031 232.066406 414.605469 233.933594 414.222656 C 234.605469 414.078125 235.179688 413.789062 235.660156 413.359375 C 236.140625 412.925781 236.570312 412.351562 236.90625 411.632812 C 237.480469 410.339844 237.863281 409.378906 238.152344 408.660156 L 238.152344 408.515625 C 238.152344 408.515625 237.722656 408.421875 237.433594 408.375 C 236.667969 408.277344 235.515625 408.230469 234.078125 408.183594 C 232.6875 408.183594 230.773438 408.132812 228.328125 408.132812 L 199.957031 408.132812 L 201.96875 403.148438 L 203.261719 399.460938 L 213.613281 399.460938 C 215.628906 399.460938 217.257812 399.460938 218.457031 399.363281 C 219.652344 399.316406 220.46875 399.21875 220.996094 399.125 C 221.425781 399.027344 221.761719 398.882812 222.097656 398.742188 C 222.386719 398.597656 222.578125 398.40625 222.769531 398.164062 C 223.199219 397.589844 223.824219 397.109375 224.589844 396.777344 C 225.308594 396.441406 226.125 396.25 227.082031 396.105469 C 228.710938 395.914062 232.640625 395.816406 238.773438 395.816406 L 251.042969 395.816406 C 251.621094 394.570312 252.195312 393.371094 252.769531 392.222656 L 253.632812 390.546875 L 242.847656 390.066406 C 239.542969 389.921875 235.277344 389.777344 230.003906 389.585938 C 224.636719 389.394531 218.359375 389.25 211.074219 389.058594 L 193.871094 388.53125 L 186.824219 401.089844 C 184.429688 405.355469 182.703125 408.566406 181.601562 410.769531 C 180.59375 412.734375 180.117188 413.742188 180.117188 413.789062 C 180.210938 414.507812 181.695312 412.734375 185.148438 412.734375 L 191.378906 412.734375 C 193.152344 412.734375 194.636719 412.832031 195.835938 413.070312 C 197.226562 413.308594 198.230469 413.742188 198.949219 414.316406 C 199.191406 414.554688 199.429688 414.746094 199.574219 414.988281 C 199.8125 415.324219 200.003906 415.707031 200.050781 416.089844 L 200.050781 416.378906 C 200.050781 417.191406 199.667969 417.816406 198.855469 418.199219 C 198.566406 418.34375 198.183594 418.4375 197.703125 418.535156 C 197.03125 418.628906 196.074219 418.679688 194.828125 418.679688 L 191.328125 418.679688 C 189.558594 418.679688 187.734375 418.582031 185.960938 418.535156 L 183.375 418.535156 C 181.21875 418.628906 179.253906 418.679688 177.097656 418.679688 L 171.203125 429.269531 C 169.140625 433.007812 167.605469 435.933594 166.601562 437.992188 C 165.738281 439.71875 165.308594 440.4375 165.308594 440.484375 C 165.308594 440.722656 165.59375 440.484375 166.265625 441.058594 C 167.222656 441.921875 168.710938 443.121094 170.675781 444.65625 C 172.589844 446.1875 174.125 447.339844 175.179688 448.105469 C 175.945312 448.679688 175.945312 448.96875 176.089844 448.96875 C 176.136719 448.96875 178.4375 448.441406 183.230469 447.339844 L 227.894531 437.320312 Z M 235.996094 435.644531 C 236.285156 435.644531 236.042969 435.644531 235.804688 435.546875 Z M 235.996094 435.644531 " fill-opacity="1" fill-rule="nonzero"/><path fill="#000000" d="M 665.449219 437.371094 C 665.160156 437.371094 655.097656 439.574219 635.351562 444.03125 C 615.558594 448.488281 605.640625 450.691406 605.542969 450.691406 C 605.160156 450.691406 603.003906 449.160156 599.023438 446.042969 C 595.09375 442.929688 593.082031 441.203125 593.035156 440.820312 C 592.9375 440.246094 595 436.125 599.167969 428.503906 L 605.589844 417.046875 L 609.234375 417.046875 C 609.519531 417.046875 610.238281 417.046875 611.34375 417 C 612.445312 416.953125 613.402344 416.90625 614.167969 416.90625 C 614.839844 416.90625 615.941406 416.90625 617.429688 417 C 618.914062 417.046875 620.0625 417.046875 620.832031 417.046875 L 624.328125 417.046875 C 626.726562 417.046875 627.921875 416.855469 627.875 416.472656 C 627.875 416.28125 627.683594 416.042969 627.347656 415.753906 C 626.4375 414.988281 624.328125 414.605469 620.925781 414.605469 L 614.695312 414.605469 C 610.238281 414.605469 607.988281 414.460938 607.9375 414.171875 C 607.84375 413.40625 610.144531 408.804688 614.839844 400.371094 L 622.363281 386.855469 L 640.574219 387.429688 C 655.242188 387.8125 665.832031 388.148438 672.351562 388.4375 L 685.914062 389.011719 C 684.476562 391.503906 682.988281 394.378906 681.550781 397.589844 L 668.179688 397.589844 C 662.09375 397.589844 658.261719 397.6875 656.679688 397.878906 C 655.097656 398.070312 654.042969 398.546875 653.46875 399.316406 C 652.796875 400.082031 651.886719 400.609375 650.734375 400.847656 C 649.585938 401.089844 646.996094 401.234375 643.019531 401.234375 L 633.867188 401.234375 L 632.957031 403.867188 L 631.902344 406.457031 L 657.734375 406.457031 C 662.382812 406.457031 665.496094 406.550781 667.078125 406.746094 C 668.660156 406.9375 669.472656 407.367188 669.617188 408.039062 C 669.617188 408.324219 669.089844 409.761719 667.941406 412.398438 C 667.078125 414.316406 665.6875 415.515625 663.769531 415.945312 C 661.855469 416.378906 654.089844 417.480469 640.527344 419.207031 C 631.996094 420.257812 627.15625 421.171875 626.007812 421.984375 C 625.382812 422.367188 624.664062 423.664062 623.851562 425.914062 C 622.796875 428.550781 622.316406 430.179688 622.414062 430.851562 C 622.414062 431.042969 622.699219 431.140625 623.179688 431.140625 C 624.425781 431.140625 632.957031 429.84375 648.722656 427.210938 C 660.320312 425.292969 666.648438 424.285156 667.75 424.285156 C 668.421875 424.285156 668.851562 424.382812 669.042969 424.574219 C 669.234375 424.765625 669.332031 425.050781 669.378906 425.4375 C 669.472656 426.203125 668.996094 428.40625 667.84375 431.953125 C 666.695312 435.546875 665.929688 437.320312 665.542969 437.320312 Z M 665.449219 437.371094 " fill-opacity="1" fill-rule="nonzero"/></svg>